<svg xmlns="http://www.w3.org/2000/svg" viewBox="0 0 1887.55 880.83"><defs><style>.cls-1{fill:#00ced1;stroke:#00ced1;opacity:0.8;}.cls-1,.cls-2{stroke-miterlimit:10;}.cls-2{fill:#3f007f;stroke:#3f007f;}</style></defs><g id="Camada_2" data-name="Camada 2"><g id="Camada_1-2" data-name="Camada 1"><rect class="cls-1" x="0.5" y="0.5" width="1886.55" height="879.83"/><path class="cls-2" d="M1739.14,696.76c-33.93-61.55-65.54-118.89-99.06-179.67L1495.66,667.3c-9.74-25.11-19.11-46.38-25.74-68.48-1.57-5.25,4.69-14.52,9.63-19.8,36.53-39,73.29-77.87,110.77-116,9.74-9.91,11.92-17.44,4.49-30-13.1-22.18-25.41-45-35.71-68.62-36.73-84.18,24.4-164.33,91.88-177.9,49-9.87,87.79,11.1,114.14,53.35,27.35,43.87,30.78,90.32,3.32,134.17-17,27.23-41.15,50.21-63.27,74-9,9.63-10.55,16.44-3.77,28.32,26.16,45.91,50.54,92.83,76.73,138.72,7.64,13.39,7,23-2.84,34.49C1763.37,663.34,1753,678.49,1739.14,696.76ZM1653,390.32l7.45.94c25-28.48,51.17-56.06,74.65-85.75,13.94-17.63,9-32.59-10.33-42-31.41-15.36-64.81-18.9-98.93-13.29-23.14,3.8-31.84,16.7-22.69,37.95C1618.13,322.92,1636.23,356.33,1653,390.32Z"/><path class="cls-2" d="M156.14,437.28c-15,0-27.17-.38-39.25.11-11.49.46-16.15-3.66-16.48-15.89-1-37-1.47-37,36.06-37.1,30.24-.07,30.24-.07,37.21-29.58,1.13-4.78,2.22-9.57,3.31-14.36,9.6-42.16,1-35.58,47.51-36.33,11.53-.19,15.67,3.95,12.66,15.55-4,15.45-7,31.14-10.83,46.65-3.19,13,1.93,18.61,14.91,18,1.22-.06,2.46,0,3.68,0,43.61,1.17,43.61,1.17,53.52-41.28,10-42.79,13.81-45.24,58.42-37.38.52.09.95.75,3.6,3-3.34,17-6.22,35.59-10.84,53.76-3.59,14.15-2.51,22.26,15,22.82,4.29.13,9.21,8.21,12.12,13.56,1.81,3.34.44,8.42.43,12.72,0,25,0,25.62-24.78,25.64-12.46,0-20.12,3.58-21.35,16.78-.22,2.42-1.14,4.77-1.66,7.17-6.73,30.82-6.73,30.83,25.44,31.14,22.38.22,22.38.22,22.39,26.27s0,25.79-22.77,26.34c-47,1.12-39.25-8.44-51.57,41.74-.44,1.79-.82,3.59-1.23,5.39-7.55,33.15-17,39.39-51,31.62-3.79-.86-8.88-9.52-8.26-13.82,2.3-15.74,6.46-31.24,10.52-46.68,3.23-12.33.34-17.81-13.64-18.45-48.58-2.23-48.56-2.64-59.63,44.63-.28,1.2-.66,2.37-.93,3.57-7.2,31.32-19.3,39-51.41,30.9-3.44-.86-7.81-8.79-7.27-12.83,2.11-15.79,5.88-31.36,9.33-46.94,2.6-11.72.47-19.75-13.71-19.07-12.62.61-15.74-6.43-15-17.4a108.82,108.82,0,0,0-.05-18.41c-1.3-12.93,4.48-18.83,17-16.72,21.94,3.71,31.64-6.14,33.17-27.22C151.26,457.37,153.64,449.72,156.14,437.28Zm79.23,54.59c37.27-.42,30.69,3.12,39.29-32.7,3.76-15.67.64-23.63-17.12-22a119.06,119.06,0,0,1-25.67-.09C215.26,435,209.65,443,207,458.29,201.14,492,200.43,491.89,235.37,491.87Z"/><path class="cls-2" d="M601.69,613.08c-42.63-.1-72-28.4-72.15-69.51-.15-42.29,29-70,73.24-69.74,43.61.27,72.1,27.48,72.13,68.9C674.94,584.75,645.37,613.17,601.69,613.08ZM626,543c-.1-17.34-8-26.38-23.21-26.51-14.9-.13-24.07,9.62-24.33,25.86-.29,17.63,8.58,27.49,24.5,27.23C618.27,569.29,626.12,560.24,626,543Z"/><path class="cls-2" d="M1429.88,455.27c-43.64-.36-71.63-27.49-71.5-69.31.12-41.56,30.79-70.73,73.55-70,43,.78,71.53,28.83,71.33,70.05C1503.05,428.92,1474.71,455.65,1429.88,455.27Zm25-68.09c.56-17-7.56-27.17-22.31-27.94-15.62-.82-25.38,9.36-25.27,27,.09,14.76,6,25,22.38,25.77C1445.32,412.76,1454.32,403.84,1454.86,387.18Z"/><path class="cls-2" d="M903.11,473.81c43.92.43,72.16,27.52,71.79,68.86-.38,42.67-29.4,70.72-72.79,70.37-42.93-.35-72.2-28.55-72.05-69.42C830.22,500.93,859,473.38,903.11,473.81Zm0,95.78c15.06-.15,23.48-9.59,23.62-26.48.14-16.54-8.8-26.89-23.3-27-15-.1-25.11,11.2-24.8,27.79S887.85,569.75,903.07,569.59Z"/><path class="cls-2" d="M520.18,605.54c-42.1,15.81-62.9-4-74.92-40.44l-5.43,3.28c0,8.72-.34,17.45.08,26.14.69,14.28-8.15,16.21-19.15,15.17C409.59,608.63,393.6,615,393.27,595c-.57-34.41-.11-68.83-.27-103.25-.05-11.13,5.52-15.09,16.09-14.89,17.82.33,35.66-.15,53.48.11,27,.39,41.56,8.28,46.82,24.86,6.12,19.27.05,32.42-24.47,50.13C496.38,569.35,507.94,586.94,520.18,605.54Zm-87.43-85.62c8.74,7,13.8,13.71,17.05,12.93,5.14-1.23,12.32-7.35,12.56-11.73s-6.47-11.15-11.43-12.7C447.64,507.39,442,513.73,432.75,519.92Z"/><path class="cls-2" d="M1313.32,394.67c12.66,19.32,23.88,36.46,35.28,53.85-39,13-62.63-.53-73.77-38.85l-4.61,2.95c-.52,8.49-1.46,17-1.48,25.48-.06,16.64-12.16,14.36-22.18,13.86s-24.27,5-24.39-13.33c-.25-35,0-70-.16-105,0-10,4.49-14.5,14.51-14.36,16.58.23,33.16-.14,49.74.09,20.7.29,42,1.1,51,24.33C1346.22,366.71,1334.77,382.6,1313.32,394.67Zm-49.92-30.95c6.62,6.39,11.94,13.57,13.63,12.8,5.73-2.62,10.17-8,15.11-12.41-4.67-4.49-8.72-10.53-14.29-12.71C1275.54,350.5,1270,357.87,1263.4,363.72Z"/><path class="cls-2" d="M1008.66,448.68c-38.6,12.52-62.9-.46-74.09-40.09l-4.55,4.3c-.47,6.32-1.9,12.74-1.24,18.93,2.17,20.56-10.58,20.29-25.39,20.61-15.28.34-22.32-3.62-21.71-20.52,1.12-31.22.85-62.52.11-93.76-.35-14.5,5.14-19.7,19.35-19,17.12.84,34.32-.06,51.48.31,25.48.54,41,9.44,45.83,26.47,5.87,20.91-2.89,35.58-20.85,45.92-1,.54-1.41,1.94-3.18,4.51ZM937.21,343.27c-4.64,11.09-8.84,16.48-8.4,21.48.37,4.34,6,8.23,9.29,12.32,4.78-4.45,12.71-8.45,13.42-13.47C952.15,359.11,944.83,353.5,937.21,343.27Z"/><path class="cls-2" d="M754.15,507.6c9.78-38.88,36.45-31.45,66.78-29.24C810.62,494.18,803.66,507.76,794,519c-12.94,15-11.2,27.35.4,42.06,10.86,13.78,19.43,29.37,31.68,48.28-18.43,0-34.7,4.26-46.45-1.2-11.52-5.36-18.43-20.6-27.28-31.41-8.3,10.78-14.54,26.17-25.5,31.15-12,5.44-28.32,1.24-48.5,1.24,12.48-18.55,21.06-33.91,32.17-47.16,13.41-16,12.74-29.54-.33-45.1-8.87-10.56-15.52-23-23.4-34.92C717,469.93,732,475.28,754.15,507.6Z"/><path class="cls-2" d="M1030.35,384.39c0-16.59.11-33.17-.07-49.76-.09-9.44,3-15.33,13.64-15.25,20.88.14,41.85-.94,62.6.7,4.91.39,11.54,8.92,13.08,14.83,2.23,8.58-.25,17.48-12.65,17.45-6.13,0-12.45-.39-18.34.93-3.41.77-6.14,4.58-9.17,7,2.75,2.68,5.07,6.44,8.37,7.75,3.8,1.51,8.46,1.1,12.74,1.09,12.23,0,15.26,6.7,15,17.81-.22,10.74-4.08,16.23-15.15,15.64a4.29,4.29,0,0,0-1.83.08c-6.56,2.71-13.09,5.47-19.63,8.22,7,2.81,14,7.55,21.17,8,12,.72,20.06,2.64,20.18,17.26.13,15.15-8.54,16.45-20.26,16.14-18.42-.48-36.86-.38-55.28-.15-10,.13-14.6-4.21-14.48-14.3C1030.53,420,1030.37,402.2,1030.35,384.39Z"/><path class="cls-2" d="M681.89,383c3.91-11.86,8.14-23.62,11.66-35.58,8.51-28.89,8.38-29,38.72-28,4.15.14,8.27.92,14.62,1.66-1.42,6.25-2,11.52-3.82,16.34-12.51,33.3-25.7,66.35-37.72,99.82-4.33,12.07-11.66,15.51-23.58,15.12-11.44-.38-21,0-26.11-14-12.71-34.51-27-68.45-40.91-102.52-5.07-12.4-.91-16.31,11.87-16.64,30.72-.81,30.67-1.24,39.25,27.95,3.53,12,7.24,23.91,10.86,35.87Z"/><path class="cls-2" d="M505.54,384.79c0-16,.4-32-.13-48-.42-12.36,4.18-18.07,17.08-17.67,19,.59,38.12.5,57.16.14,11-.2,15.41,4.64,15.53,15.42s-2.88,18.13-15.36,17.58a4.91,4.91,0,0,0-1.84.11q-11.68,4.18-23.36,8.44c7.2,2.81,14.22,7.16,21.66,8.07,11.12,1.36,14.39,6.69,14.34,17s-3.34,16.66-14.58,16.63a5,5,0,0,0-1.83.09c-6.53,2.73-13,5.52-19.55,8.29,7,2.81,13.91,7.54,21.07,8,12.25.76,20,3.16,19.37,17.79-.49,10.82-4.55,15.63-15.52,15.43-19.67-.35-39.35-.4-59,0-11.28.21-15.21-5.15-15-15.73.3-17.21.08-34.42.08-51.63Z"/><path class="cls-2" d="M813.42,319.34c8.59,0,17.2.35,25.77-.07,11.62-.57,18.48,2.45,18.36,16.18-.11,13-5.8,16.58-17.8,17.44-7.83.56-15.35,5.34-23,8.23,7.32,2.72,14.46,7,22,7.78,11.3,1.2,14.22,6.77,14.24,17s-3.2,15.56-14.3,17.08c-7.62,1-14.72,5.9-22,9.06,7.38,2.43,14.64,6.31,22.18,7,11,1,18.6,2.24,18.81,16.29.21,14.88-7.34,17.29-19.51,17-17.78-.48-35.61-.67-53.38,0-13,.48-17.07-5-16.86-17.45q.84-49.69,0-99.4c-.21-12.06,4.41-16.7,16.12-16.12C793.76,319.72,803.6,319.33,813.42,319.34Z"/><path class="cls-2" d="M392.35,386.08c0-16.58.37-33.18-.1-49.76-.33-11.23,3.11-17.37,15.55-17.1,20.26.45,40.55.31,60.82,0,11.81-.19,14.28,6.71,14.62,16.52.36,10-2.31,17-13.77,17.39-6.74.25-13.77-.29-20.11,1.51-3.52,1-5.88,6.08-8.76,9.32,3,2.45,5.65,6,9.08,7.06,4.57,1.38,9.73.89,14.64,1,11.28.23,14.44,6.88,14.46,17s-3.36,17.62-14.59,16.45c-21.05-2.19-27.51,7.82-24.76,27,3.09,21.53-11.65,19.35-25.57,20-15,.71-23.25-3-21.8-20.25C393.33,416.89,392.32,401.45,392.35,386.08Z"/><path class="cls-2" d="M1145.31,383.47c0-15.37.71-30.78-.17-46.09-1.1-19,10.93-18.46,24-18.31,12.21.14,23.45-.95,23,17.27-.84,33.17-.75,66.39,0,99.57.43,19-12.36,15.9-23.73,16.3-12.29.44-23.94.87-23.2-17.12.7-17.18.15-34.41.15-51.62Z"/></g></g></svg>