<svg xmlns="http://www.w3.org/2000/svg" viewBox="0 0 2653.23 1190.4"><defs><style>.cls-1{fill:#e5d3e9;}.cls-2{fill:#411a45;}.cls-3{fill:#411841;}.cls-4{fill:#3e2774;}</style></defs><g id="Camada_2" data-name="Camada 2"><g id="Camada_1-2" data-name="Camada 1"><path class="cls-1" d="M3.56,1185.2V5.21l5-4.3C19.71.6,30.88,0,42.09,0Q1328.37,0,2614.7,0c11.19,0,22.36.57,33.57.88l5,4.3v1180l-5,4.32c-11.19.31-22.36.88-33.57.88q-1286.28.06-2572.55,0c-11.2,0-22.35-.57-33.57-.88Zm2401-265.57c18.61-24.54,32.56-44.87,48.58-63.47,13.26-15.39,14.09-28.35,3.81-46.36-35.2-61.68-68-124.75-103.13-186.45-9.1-16-7-25.12,5.1-38.06,29.74-32,62.13-62.87,85-99.46,36.9-58.94,32.29-121.36-4.47-180.34-35.42-56.78-87.49-85-153.42-71.71-90.7,18.24-172.87,126-123.49,239.12,13.84,31.71,30.38,62.43,48,92.24,10,16.91,7,27-6,40.34-50.38,51.24-99.8,103.42-148.9,155.9-6.65,7.14-15.07,19.57-12.95,26.62,8.9,29.7,21.51,58.29,34.59,92l194.13-201.93C2316.48,759.84,2359,836.91,2404.58,919.63ZM276.88,570.87c-3.37,16.72-6.56,27-7.32,37.48-2,28.34-15.1,41.57-44.58,36.59-16.78-2.85-24.55,5.1-22.79,22.44a146.11,146.11,0,0,1,.06,24.75c-1,14.73,3.14,24.2,20.11,23.38,19-.92,21.92,9.87,18.43,25.63-4.65,21-9.71,41.88-12.55,63.09-.73,5.44,5.1,16.09,9.76,17.25,43.17,10.85,59.44.56,69.11-41.53.37-1.62.88-3.2,1.25-4.8,14.88-63.54,14.85-63,80.15-60,18.8.85,22.68,8.23,18.36,24.79-5.45,20.75-11,41.59-14.13,62.74-.84,5.78,6,17.42,11.1,18.58,45.78,10.44,58.45,2,68.6-42.51.55-2.4,1-4.83,1.65-7.24,16.55-67.44,6.12-54.6,69.35-56.09C574,714.71,574,715,574,680s0-35-30.08-35.32c-43.24-.41-43.24-.42-34.21-41.81.7-3.22,1.94-6.38,2.24-9.64,1.66-17.74,11.95-22.55,28.7-22.56,33.27,0,33.28-.8,33.3-34.46,0-5.77,1.87-12.61-.57-17.09-3.92-7.2-10.53-18-16.32-18.23-23.45-.76-24.94-11.65-20.11-30.67,6.2-24.42,10.07-49.43,14.56-72.26-3.56-3-4.07-3.87-4.84-4-60-10.56-65.09-7.28-78.53,50.24-13.32,57.05-13.32,57.05-71.93,55.48-1.65,0-3.31-.14-4.95-.06-17.45.87-24.33-6.66-20-24.15,5.1-20.83,9.18-41.93,14.55-62.69,4.08-15.6-1.51-21.17-17-20.91-62.47,1-51-7.84-63.85,48.85q-2.21,9.64-4.45,19.29c-9.37,39.65-9.37,39.65-50,39.78-50.44.13-49.79.11-48.47,49.86.44,16.44,6.7,22,22.16,21.36C240.32,570.37,256.6,570.87,276.88,570.87Zm598.87,236.3c58.7.13,98.46-38.08,98.42-94.56,0-55.67-38.34-92.25-97-92.62-59.51-.36-98.65,36.91-98.44,93.75.15,55.25,39.65,93.33,96.94,93.43ZM1988.93,595c60.26.5,98.35-35.43,98.63-93,.27-55.41-38.12-93.11-95.86-94.16-57.48-1-98.7,38.17-98.87,94-.22,56.22,37.4,92.69,96.06,93.18Zm-708,24.91c-59.24-.58-98,36.45-98.18,93.83-.21,54.93,39.14,92.8,96.83,93.3,58.32.48,97.32-37.23,97.83-94.58.46-55.54-37.5-92-96.53-92.53ZM766.14,797,718.76,725c33-23.82,41.11-41.48,32.89-67.39-7.07-22.28-26.64-32.89-62.95-33.42-23.94-.34-47.93.31-71.87-.15-14.21-.26-21.7,5.1-21.63,20,.22,46.26-.4,92.54.36,138.79.44,26.87,22,18.36,37,19.79,14.79,1.39,26.67-1.19,25.74-20.4-.56-11.69-.1-23.46-.1-35.14l7.29-4.41C681.6,791.68,709.56,818.29,766.14,797ZM1832.22,513.59c28.83-16.21,44.22-37.57,32.21-68.5-12.14-31.23-40.79-32.32-68.58-32.71-22.28-.31-44.57.2-66.86-.12-13.48-.19-19.56,5.85-19.51,19.31.2,47-.11,94.08.22,141.12.17,24.62,19.48,17.25,32.78,17.91,13.47.67,29.74,3.73,29.82-18.63,0-11.41,1.28-22.83,2-34.25l6.2-4c15,51.51,46.72,69.72,99.15,52.21C1864.32,562.6,1849.23,539.58,1832.22,513.59Zm-409.5,72.62-46-70.37c2.39-3.46,3-5.34,4.27-6.07,24.15-13.89,35.93-33.61,28-61.72-6.43-22.88-27.36-34.85-61.61-35.58-23.05-.49-46.17.72-69.19-.41-19.1-.93-26.51,6.06-26,25.54,1,42,1.36,84.07-.15,126-.82,22.7,8.64,28,29.18,27.53,19.91-.44,37-.08,34.13-27.71-.88-8.33,1-17,1.67-25.49l6.12-5.79c15,53.39,47.7,70.84,99.58,54ZM1080.63,665.4c-29.81-43.46-49.91-50.64-90.56-34.49,10.58,16.06,19.53,32.75,31.44,46.91,17.57,20.92,18.47,39.13.45,60.63-14.93,17.8-26.52,38.44-43.24,63.38,27.12,0,49.1,5.64,65.18-1.66,14.74-6.7,23.12-27.38,34.28-41.88,11.89,14.53,21.18,35,36.72,42.22,15.79,7.34,37.66,1.62,62.44,1.62-16.46-25.42-28-46.38-42.59-64.9-15.59-19.77-17.93-36.33-.54-56.54,13-15.11,22.38-33.37,36.23-54.63-40.82-2.95-76.67-12.93-89.81,39.34Zm371.22-165.63c0,24,.23,47.94-.08,71.84-.17,13.57,6,19.38,19.46,19.23,24.76-.32,49.54-.45,74.29.2,15.76.41,27.42-1.34,27.24-21.7-.17-19.65-11-22.23-27.11-23.2-9.67-.59-19-6.95-28.47-10.72,8.79-3.69,17.57-7.42,26.39-11.06a6,6,0,0,1,2.46-.11c14.87.8,20.06-6.59,20.4-21,.32-14.93-3.76-24-20.19-23.94-5.76,0-12,.56-17.13-1.47-4.44-1.76-7.56-6.82-11.22-10.41,4.08-3.28,7.74-8.41,12.33-9.43,7.91-1.78,16.41-1.27,24.65-1.25,16.66,0,20-11.94,17-23.46-2-7.93-11-19.38-17.57-19.93-27.9-2.2-56.1-.74-84.14-1-14.28-.1-18.47,7.82-18.36,20.51.23,22.32.06,44.58.1,66.86Zm-468.39-1.9h-6.94c-4.86-16.08-9.85-32.11-14.59-48.21-11.53-39.23-11.46-38.65-52.76-37.57-17.18.45-22.76,5.7-16,22.36,18.71,45.79,37.91,91.41,55,137.8,6.93,18.83,19.73,18.36,35.1,18.87,16,.53,25.87-4.08,31.7-20.32,16.16-45,33.88-89.41,50.69-134.17,2.43-6.48,3.23-13.57,5.1-22-8.54-1-14.09-2-19.67-2.22-40.79-1.33-40.61-1.22-52,37.61-4.67,16.07-10.38,31.88-15.61,47.81Zm-237,2.44h.11c0,23.13.29,46.28-.11,69.41-.25,14.21,5,21.41,20.2,21.14,26.42-.5,52.88-.43,79.31,0,14.75.26,20.21-6.2,20.86-20.75.89-19.67-9.57-22.88-26-23.91-9.63-.6-18.89-7-28.32-10.74,8.75-3.72,17.5-7.47,26.27-11.14a6.63,6.63,0,0,1,2.47-.13c15.1,0,19.51-8.43,19.59-22.36s-4.32-21.06-19.27-22.88c-10-1.21-19.38-7.07-29.12-10.84,10.46-3.8,20.93-7.61,31.41-11.35a6.85,6.85,0,0,1,2.47-.15c16.77.74,20.81-8.94,20.65-23.63-.16-14.49-6.06-21-20.88-20.72-25.6.48-51.23.59-76.83-.2-17.34-.53-23.52,7.14-23,23.76.79,21.51.23,43,.23,64.49Zm413.83-88c-13.2,0-26.43.52-39.59-.13-15.74-.77-22,5.46-21.66,21.66q1.13,66.79,0,133.6c-.29,16.77,5.24,24.1,22.66,23.46,23.88-.89,47.84-.63,71.74,0,16.32.44,26.52-2.81,26.22-22.81-.27-18.87-10.53-20.62-25.28-21.89-10.14-.87-19.89-6.12-29.81-9.36,9.85-4.25,19.38-10.77,29.58-12.18,14.93-2,19.24-9.18,19.22-23s-3.95-21.18-19.13-22.78c-10.11-1-19.71-6.81-29.58-10.46,10.29-3.89,20.4-10.32,30.91-11.07,16.15-1.15,23.79-6,23.94-23.46.16-18.46-9.07-22.5-24.68-21.74-11.39.61-23,.18-34.5.12Zm-566,89.75c0,20.65,1.35,41.4-.36,61.91C592,587.23,603,592.15,623.2,591.2c18.7-.87,38.52,2,34.37-26.88-3.69-25.74,5-39.2,33.27-36.26,15.11,1.59,19.64-8.39,19.62-22.11s-4.28-22.51-19.44-22.83c-6.6-.13-13.54.52-19.67-1.33-4.61-1.38-8.16-6.2-12.24-9.49,3.87-4.36,7-11.22,11.78-12.52,8.51-2.42,18-1.7,27-2,15.4-.58,19-9.95,18.5-23.38-.46-13.17-3.78-22.44-19.65-22.2-27.25.45-54.51.64-81.75,0-16.73-.37-21.35,7.88-20.91,23,.72,22.31.24,44.62.18,66.92Zm1012.11-3.52h.08c0,23.13.74,46.3-.2,69.35-1,24.18,14.67,23.6,31.19,23,15.3-.54,32.47,3.68,31.89-21.91-1-44.6-1.11-89.25,0-133.83.63-24.48-14.49-23-30.9-23.21-17.61-.21-33.79-.89-32.32,24.59,1.25,20.62.3,41.33.3,62Z"/><path class="cls-2" d="M0,.24A18.59,18.59,0,0,1,4.75.91L0,5.21Z"/><path class="cls-2" d="M2533.78.91a18.65,18.65,0,0,1,4.75-.67v5Z"/><path class="cls-3" d="M4.75,1189.51a18.57,18.57,0,0,1-4.75.65v-5Z"/><path class="cls-3" d="M2538.53,1190.17a18.63,18.63,0,0,1-4.75-.65l4.75-4.32Z"/><path class="cls-4" d="M2397.45,919.63,2264.3,678.14,2070.18,880.07c-13.09-33.75-25.69-62.34-34.6-92-2.12-7,6.31-19.52,13-26.61,49.08-52.49,98.5-104.67,148.89-155.91,13.09-13.31,16-23.45,6-40.34-17.61-29.81-34.15-60.53-48-92.24-49.38-113.15,32.78-220.88,123.49-239.12,65.92-13.26,118,14.93,153.41,71.71,36.72,59,41.38,121.37,4.47,180.34-22.91,36.6-55.31,67.49-85,99.46-12,12.94-14.18,22.09-5.1,38.06,35.16,61.7,67.93,124.77,103.12,186.45,10.28,18,9.5,31-3.8,46.36C2430,874.73,2416.07,895.09,2397.45,919.63ZM2281.68,507.75l10,1.26c33.65-38.27,68.78-75.35,100.34-115.24,18.74-23.69,12-43.85-13.89-56.48-42.18-20.66-87-25.41-132.95-17.88-31.1,5.1-42.83,22.44-30.5,51C2234.8,417.16,2259.12,462.07,2281.68,507.75Z"/><path class="cls-4" d="M269.76,570.87c-20.25,0-36.52-.5-52.76.15-15.45.61-21.71-4.93-22.15-21.37-1.33-49.74-2-49.72,48.46-49.86,40.64-.1,40.64-.1,50-39.77q2.27-9.63,4.45-19.29c12.91-56.69,1.39-47.84,63.85-48.86,15.51-.25,21.07,5.32,17,20.92-5.38,20.76-9.45,41.82-14.55,62.69-4.28,17.49,2.59,25,20,24.15,1.64-.08,3.3,0,5,.06,58.61,1.57,58.61,1.57,71.93-55.48,13.43-57.52,18.56-60.8,78.52-50.24.72.12,1.28,1,4.85,4-4.5,22.83-8.36,47.84-14.56,72.26-4.84,19-3.39,29.91,20.11,30.67,5.76.18,12.38,11,16.31,18.23,2.44,4.48.59,11.32.57,17.09,0,33.66,0,34.44-33.29,34.46-16.76,0-27.05,4.82-28.7,22.56-.31,3.26-1.54,6.42-2.25,9.64-9,41.43-9,41.44,34.21,41.81,30.08.31,30.08.31,30.09,35.32s0,34.68-30.6,35.4c-63.15,1.5-52.76-11.34-69.35,56.09-.59,2.41-1.1,4.84-1.65,7.24-10.15,44.66-22.81,53-68.6,42.62-5.09-1.16-11.94-12.8-11.09-18.58,3.06-21.15,8.68-42,14.12-62.74,4.36-16.56.47-23.94-18.35-24.79-65.27-3-65.27-3.56-80.15,60-.38,1.6-.89,3.19-1.26,4.8-9.67,42.1-25.93,52.39-69.1,41.54-4.62-1.17-10.5-11.81-9.76-17.26,2.83-21.21,7.89-42.14,12.54-63.09,3.49-15.75.62-26.51-18.43-25.63-17,.82-21.15-8.64-20.11-23.38a146.11,146.11,0,0,0-.06-24.75c-1.75-17.34,6-25.32,22.79-22.44,29.49,5,42.52-8.25,44.58-36.59C263.16,597.88,266.35,587.59,269.76,570.87ZM376.25,644.3c50.09-.59,41.25,4.19,52.81-44,5-21.05.85-31.76-23-29.51a158.54,158.54,0,0,1-34.5-.13c-22.33-2.82-29.88,7.88-33.44,28.46-7.92,45.29-8.87,45.13,38.11,45.11Z"/><path class="cls-4" d="M868.59,807.17c-57.31-.13-96.8-38.18-97-93.43-.2-56.84,38.94-94.11,98.45-93.75,58.62.37,96.88,37,97,92.62C967,769.09,927.29,807.3,868.59,807.17Zm32.69-94.25c-.12-23.3-10.76-35.46-31.18-35.63-20-.18-32.35,12.92-32.71,34.75-.39,23.7,11.53,37,32.93,36.61,20.52-.34,31.1-12.51,31-35.73Z"/><path class="cls-4" d="M1981.77,595.06c-58.66-.49-96.29-37-96.11-93.16.16-55.87,41.38-95.08,98.86-94,57.75,1,96.14,38.75,95.87,94.16C2080.11,559.63,2042,595.56,1981.77,595.06Zm33.57-91.52c.75-22.87-10.2-36.53-30-37.56-21-1.1-34.11,12.57-34,36.3.12,19.84,8,33.66,30.08,34.68C2002.52,537.91,2014.61,525.92,2015.34,503.54Z"/><path class="cls-4" d="M1273.72,620c59,.58,97,37,96.49,92.56-.51,57.35-39.51,95.06-97.84,94.58-57.69-.46-97-38.37-96.83-93.3C1175.74,656.42,1214.49,619.42,1273.72,620Zm0,128.75c20.24-.21,31.56-12.89,31.76-35.59.18-22.24-11.83-36.15-31.33-36.28-20.2-.14-33.76,15-33.34,37.35.37,22.1,12.4,34.74,32.86,34.52Z"/><path class="cls-4" d="M759,797c-56.59,21.24-84.55-5.36-100.7-54.36l-7.3,4.41c0,11.71-.45,23.45.11,35.14.92,19.19-11,21.77-25.74,20.4-15-1.43-36.52,7.14-36.95-19.79-.77-46.25-.15-92.53-.36-138.79-.07-15,7.41-20.28,21.63-20,23.95.46,47.93-.19,71.87.15,36.31.54,55.88,11.14,62.94,33.43,8.22,25.9.06,43.56-32.89,67.38ZM641.51,682c11.74,9.33,18.54,18.42,22.91,17.34,6.9-1.66,16.56-9.88,16.87-15.77s-8.69-15-15.36-17.07C661.51,665.1,654,673.63,641.51,682Z"/><path class="cls-4" d="M1825.1,513.59c17,26,32.09,49,47.41,72.41-52.43,17.51-84.18-.7-99.15-52.21l-6.2,4c-.7,11.43-2,22.84-2,34.25-.08,22.36-16.32,19.3-29.82,18.63-13.26-.66-32.63,6.71-32.78-17.91-.32-47,0-94.08-.21-141.12,0-13.46,6-19.5,19.51-19.31,22.28.32,44.58-.19,66.85.12,27.82.39,56.45,1.48,68.58,32.71C1869.32,476,1853.93,497.38,1825.1,513.59ZM1758,472c8.9,8.6,16,18.25,18.36,17.22,7.7-3.53,13.68-10.83,20.3-16.69-6.27-6-11.72-14.15-19.21-17.08-3.13-1.23-10.55,8.7-19.45,16.55Z"/><path class="cls-4" d="M1415.59,586.21c-51.88,16.81-84.53-.64-99.58-53.9l-6.12,5.78c-.63,8.48-2.55,17.11-1.67,25.5,2.92,27.62-14.22,27.27-34.12,27.7-20.54.45-30-4.88-29.18-27.53,1.51-42,1.14-84,.14-126-.47-19.49,6.92-26.52,26-25.55,23,1.13,46.14-.08,69.18.41,34.25.73,55.19,12.71,61.61,35.58,7.9,28.12-3.88,47.83-28,61.72-1.28.74-1.89,2.61-4.27,6.07Zm-96-141.69c-6.23,14.9-11.88,22.15-11.29,28.86.51,5.83,8.06,11.07,12.5,16.56,6.42-6,17.08-11.35,18-18.1C1339.64,465.81,1329.8,458.29,1319.55,444.52Z"/><path class="cls-4" d="M1073.5,665.4c13.15-52.27,49-42.29,89.75-39.31-13.85,21.26-23.21,39.52-36.22,54.64-17.34,20.2-15.06,36.71.54,56.54,14.6,18.52,26.12,39.47,42.58,64.89-24.78,0-46.64,5.72-62.44-1.62-15.48-7.19-24.77-27.69-36.71-42.22-11.16,14.5-19.54,35.18-34.28,41.88-16.08,7.3-38.06,1.66-65.19,1.66,16.78-24.94,28.31-45.57,43.24-63.38,18-21.5,17.12-39.71-.45-60.63-11.91-14.19-20.85-30.88-31.44-46.91C1023.59,614.76,1043.69,621.94,1073.5,665.4Z"/><path class="cls-4" d="M1444.75,499.77c0-22.28.14-44.57-.09-66.87-.14-12.69,4.08-20.61,18.35-20.51,28.07.21,56.25-1.25,84.14.95,6.6.52,15.51,12,17.57,19.93,3.06,11.53-.32,23.46-17,23.46-8.24,0-16.73-.53-24.65,1.25-4.59,1-8.25,6.12-12.33,9.43,3.69,3.59,6.81,8.65,11.22,10.41,5.1,2,11.37,1.49,17.13,1.47,16.43,0,20.51,9,20.2,23.94-.3,14.42-5.49,21.81-20.4,21a6.05,6.05,0,0,0-2.47.11c-8.81,3.64-17.59,7.37-26.38,11.06,9.47,3.77,18.79,10.13,28.46,10.72,16.16,1,27,3.55,27.12,23.2.17,20.39-11.48,22.11-27.24,21.7-24.75-.65-49.53-.52-74.3-.2-13.49.16-19.63-5.66-19.45-19.23C1445,547.67,1444.77,523.72,1444.75,499.77Z"/><path class="cls-4" d="M976.37,497.87c5.26-15.93,11-31.74,15.68-47.82,11.43-38.83,11.22-38.94,52-37.62,5.58.18,11.13,1.23,19.66,2.23-1.91,8.39-2.72,15.48-5.1,22-16.8,44.76-34.53,89.18-50.68,134.17-5.83,16.22-15.69,20.85-31.71,20.32-15.37-.5-28.17,0-35.09-18.87-17.08-46.39-36.29-92-55-137.8-6.8-16.66-1.22-21.91,16-22.36,41.29-1.08,41.22-1.66,52.76,37.57,4.74,16.1,9.73,32.13,14.59,48.21Z"/><path class="cls-4" d="M739.34,500.31c0-21.47.54-43-.18-64.44-.55-16.61,5.63-24.29,23-23.76,25.59.79,51.22.68,76.83.2,14.82-.28,20.71,6.23,20.88,20.73.16,14.68-3.89,24.36-20.65,23.63a6.61,6.61,0,0,0-2.47.14c-10.49,3.74-21,7.56-31.41,11.35,9.68,3.77,19.12,9.63,29.11,10.84,15,1.83,19.38,9,19.28,22.89s-4.49,22.43-19.59,22.35a6.62,6.62,0,0,0-2.47.13c-8.77,3.67-17.52,7.42-26.27,11.14,9.43,3.77,18.69,10.14,28.32,10.74,16.46,1,26.91,4.24,26,23.91-.65,14.55-6.11,21-20.85,20.75-26.44-.48-52.89-.55-79.31,0-15.16.28-20.4-6.93-20.21-21.14.41-23.13.11-46.27.11-69.4Z"/><path class="cls-4" d="M1153.17,412.39c11.55,0,23.11.47,34.68-.09,15.61-.76,24.84,3.29,24.68,21.75-.15,17.43-7.79,22.28-23.94,23.45-10.51.76-20.62,7.14-30.91,11.07,9.82,3.65,19.43,9.39,29.58,10.46,15.18,1.6,19.11,9.09,19.13,22.78s-4.29,20.92-19.22,23c-10.2,1.41-19.78,7.94-29.58,12.18,9.92,3.27,19.67,8.49,29.81,9.36,14.75,1.27,25,3.06,25.28,21.9.29,20-9.87,23.24-26.22,22.8-23.9-.65-47.86-.91-71.74,0-17.42.64-23-6.69-22.66-23.46q1.13-66.78,0-133.6c-.29-16.2,5.92-22.43,21.66-21.66C1126.75,412.85,1140,412.33,1153.17,412.39Z"/><path class="cls-4" d="M587.19,502.06c0-22.3.51-44.61-.13-66.89-.44-15.1,4.18-23.35,20.91-23,27.24.6,54.5.41,81.75,0,15.87-.27,19.19,9,19.65,22.2.48,13.43-3.06,22.8-18.5,23.38-9.08.33-18.52-.39-27,2-4.73,1.34-7.9,8.16-11.78,12.52,4,3.29,7.6,8.11,12.24,9.5,6.12,1.84,13.08,1.19,19.68,1.32,15.16.32,19.37,9.25,19.43,22.84s-4.54,23.69-19.59,22c-28.29-2.94-37,10.52-33.28,36.26,4.16,28.94-15.66,26-34.36,26.88-20.21,1-31.25-4-29.31-27.21C588.52,543.46,587.16,522.71,587.19,502.06Z"/><path class="cls-4" d="M1599.27,498.54c0-20.65,1-41.36-.24-62-1.47-25.49,14.71-24.8,32.32-24.59,16.41.18,31.52-1.28,30.9,23.21-1.12,44.59-1,89.23,0,133.83.58,25.59-16.61,21.37-31.89,21.91-16.52.59-32.18,1.17-31.2-23,.95-23.09.21-46.26.21-69.35Z"/><path class="cls-1" d="M2281.68,507.75c-22.56-45.68-46.91-90.59-67-137.32-12.3-28.56-.6-45.9,30.5-51,45.89-7.54,90.77-2.79,133,17.85,25.92,12.68,32.63,32.79,13.89,56.48-31.56,39.91-66.71,77-100.34,115.24Z"/><path class="cls-1" d="M376.21,644.26c-47,0-46,.18-38.16-45.15,3.57-20.58,11.12-31.28,33.45-28.46a158.54,158.54,0,0,0,34.5.13c23.87-2.25,28.06,8.46,23,29.51C417.46,648.45,426.3,643.67,376.21,644.26Z"/><path class="cls-1" d="M901.28,712.92c.14,23.22-10.42,35.39-31,35.7C848.9,749,837,735.7,837.39,712c.36-21.83,12.68-34.93,32.71-34.75C890.52,677.46,901.16,689.62,901.28,712.92Z"/><path class="cls-1" d="M2015.34,503.54c-.73,22.43-12.82,34.37-33.87,33.39-22-1-30-14.81-30.08-34.68-.15-23.73,13-37.41,34-36.3C2005.18,467,2016.09,480.72,2015.34,503.54Z"/><path class="cls-1" d="M1273.67,748.72c-20.46.2-32.49-12.42-32.91-34.52-.42-22.31,13.13-37.49,33.34-37.35,19.5.13,31.51,14,31.33,36.28C1305.23,735.83,1293.91,748.51,1273.67,748.72Z"/><path class="cls-1" d="M641.51,682c12.48-8.33,20-16.86,24.48-15.47,6.66,2,15.67,11.33,15.35,17.07s-10,14.11-16.86,15.77C660.05,700.38,653.22,691.29,641.51,682Z"/><path class="cls-1" d="M1758,472c8.87-7.85,16.32-17.76,19.38-16.55,7.49,2.93,12.94,11.06,19.21,17.08-6.63,5.86-12.6,13.16-20.3,16.69C1774,490.24,1766.89,480.59,1758,472Z"/><path class="cls-1" d="M1319.55,444.52c10.25,13.75,20.09,21.29,19.24,27.32-1,6.75-11.61,12.13-18,18.1-4.44-5.49-12-10.73-12.5-16.56C1307.67,466.67,1313.32,459.42,1319.55,444.52Z"/></g></g></svg>