<svg xmlns="http://www.w3.org/2000/svg" viewBox="0 0 514.49 479.62"><defs><style>.cls-1{fill:#3d1f75;}</style></defs><g id="Camada_2" data-name="Camada 2"><g id="Camada_1-2" data-name="Camada 1"><path class="cls-1" d="M512.23,20.69c-2.31-7.78-7.6-12.74-14.91-15.8-1.88-.78-3.72-2.08-5.66-2.28-8.39-.85-16.82-1.38-25.23-2l-.06.05-5.79,2.09L456.91,4l-9.25,1.12-19.88,6.64-3.06,1.41L399.59,23.4l-2.24.53L380,34.86l-8.54,6.72-6.17,2.8-.09,0-10.65,8.73-.07,0-3.07,2.51-.12.11L337.36,69.08a.52.52,0,0,1-.63.46q-3.25,3.6-6.52,7.21l-.32.4-.55,1.36c-.34.07-.69.14-1,.19-1.25,2.19-2.52,4.38-3.76,6.57a0,0,0,0,0,0,0l0,0q-4.78,5.31-9.56,10.61a.63.63,0,0,0-.45.64c-6.5,9.91-13.06,19.79-19.43,29.78-.59.93-.11,2.56-.12,3.86l-1.51,2.25-11.15,24.27-2.49,8.16q-3.37,7-6.73,14.06l-1.21-3.82L268.5,156.6l-1.23-4.48Q290.91,110,314.56,67.94l1.23-3.18,4.15-9.6c1-1.84,1.93-3.66,2.86-5.51,3.2-6.37,6.51-12.7,9.55-19.15,1.57-3.34,2.66-6.9,4-10.36,1.49-3.57,3.18-7.08,4.32-10.76.3-1-1.14-2.44-1.78-3.68-1,.7-2.44,1.18-3,2.15-1.54,2.79-2.71,5.78-4,8.68-2.21,6.07-3.88,12.39-6.71,18.14-12.14,24.75-24.28,49.5-37.11,73.9-7.41,14.09-16.11,27.51-24.24,41.23l-2.19,0-9.36-1-8.15-12.4c-1.51-2.59-3-5.2-4.55-7.79-9-15.19-18.06-30.29-26.78-45.62-3.07-5.41-5.19-11.35-7.75-17l-8.39-16.12c-5.62-13.08-11.17-26.2-16.93-39.22-.87-2-2.66-3.54-4-5.3l-2,.84c.41,2.8.26,5.84,1.34,8.34,1.51,3.48,4.38,6.36,5.9,9.83,4.17,9.54,7.93,19.26,11.86,28.9q2.17,5.2,4.36,10.41l3.4,4.74c3.1,4.74,6.56,9.29,9.25,14.25,10.18,18.86,20.12,37.85,30.16,56.78l7.66,12.68c-1.25,4-2.63,7.86-3.7,11.85-1.19,4.47-2.11,9-3.15,13.53-1.49-3.8-3-7.59-4.5-11.4-2.07-6.26-6.13-18.5-6.21-18.77h0q-8.37-16.28-16.76-32.55l-2.37-2.91c-2.31-5.49-4-11.44-10.21-14.08a.56.56,0,0,0-.12-.72L186.4,78.56l-2.68-2.75-7.59-8.45L175,66.23l-1.24-1L158.42,52.58l-.06.05-.89.36c.3-.13.6-.26.89-.37L155.66,51l-2.43-2.29-4.42-4.53,0,0-1.38-1,.1.1-2-1.45-.18-.08-1.26-1,.05.06L136,35l-1.15-.76-5.76-3.84a.75.75,0,0,1-.88-.36l-7.12-4.21c-3.47-1.64-6.92-3.3-10.39-4.91C94.86,13.56,79.05,6.2,61.49,3.9,46.92-.79,32.36-1.81,17.81,4L7.48,11.73,6.29,13.32,1.57,22C-2.22,33.62,1.48,44.24,6.2,54.71q7,16.53,14,33,5.17,19,10.36,37.94h0q1.08,9.28,2.17,18.54l2.67,23.93,7.89,24.2Q49.13,200.17,55,208l.37.24,1.28,1c8.05,2.44,16,5.34,24.18,7.18,5.86,1.33,12,1.24,16.7,1.65L78.74,231.49c-5.1,9.91-10.36,19.73-15.19,29.77a13.15,13.15,0,0,0-.82,7.82c2,9.79,1.33,18.95-3.53,28-1.08,2-.33,6.34,1.26,8.08,3,3.27,7.23,5.38,10.84,8.13.91.69,2.13,2.17,1.92,2.93-1.77,6.48,1.24,10.41,6.55,13.3-.11,2.18-.23,4.35-.34,6.53-.2,1.17-.41,2.34-.61,3.51-7.06,4.87-7.9,9.9-2.47,16.44,2,2.46,4.62,4.46,6.8,6.82,2.9,3.16,5.65,6.46,8.46,9.71l4.89,11,.42,16.84-3.24,4.77q-4,11.52-8,23.05-2.34,5.19-4.67,10.39c-1.19,2.05-2.55,4-3.81,6.06a33.48,33.48,0,0,0-3.2,6.28c-3.34,9.31-.45,17.61,6.06,24.65,4.87,5.25,10.32,3.79,12.43-3.12.53-1.72.88-3.48,1.31-5.23a.58.58,0,0,0,.29-.86h0l3.69-21,.39-4.7a48,48,0,0,1,15.32-27.33c6.48-4.74,13.68-5.49,21.31-3.87l7.19,1.54c4.63.92,9.48,1.24,13.85,2.87,11.06,4.12,20.8-.38,30.73-3.91,1.09-.39,1.88-1.61,2.81-2.44a8.62,8.62,0,0,1,.11-.87l10-10.45a.53.53,0,0,1,.66-.35L204,392.4,210,382.16q1.19-8.3,2.38-16.61c.31-1.77.61-3.54.92-5.31q2.88-12.11,5.77-24.19,1.56-5.71,3.11-11.44l2.79-18.32c5.47-4.2,4.93-10.83,6.68-16.54h0l5.7-18.44h0l3.16-11.17,3.84-5.7q.25,12.71.49,25.4h0c1,6.57,1.62,13.19,3,19.67,1,4.56,1.94,10.08,7.47,11.14s7.17-4.36,9.71-7.91c0-1.15,0-2.31-.07-3.47.79-2.45,2.12-4.87,2.27-7.36.56-9,.73-18.08,1-27.12q1.76-5.58,3.52-11.17h.42l4.32,7.44-.09.6c0,1.06,0,2.12,0,3.18.23.7.47,1.41.7,2.12s.25,1.67.37,2.51.16,1.38.23,2.08c.56,2.3,1.11,4.6,1.67,6.9q1.33,7,2.66,14a1,1,0,0,1,.2,1l1.5,4.49v-.18c.67,1.29,1.35,2.57,2,3.86q2.46,10.37,4.9,20.73c.34,1.46.64,2.92.95,4.38a3.34,3.34,0,0,1,.81.38c.2,1.41.4,2.82.61,4.23.6,2.34,1.19,4.69,1.79,7l1.11,1.27c.06,1.09.13,2.18.19,3.26l3.09,11.59c.83,6.75,1.44,13.53,2.57,20.23.7,4.12,2.17,8.1,3.3,12.15,3.6,2.87,7,6.12,10.87,8.49,4.17,2.54,8.2,4.66,8.54,10.36a6.57,6.57,0,0,0,2.62,4c9.42,7.2,28.67,7.71,39.05,1.21l8.09-.3,22.64-.93c3.85,3.48,8.87,6.32,11.26,10.62a57.82,57.82,0,0,1,6,18.81c1.7,10.69,2,21.62,3.52,32.36.82,5.7,6,8.72,11.42,7.95,7.5-1.05,12.14-5.42,13.14-13,2-14.88-5.18-26.8-12.83-38.52h0c-3.5-7-7.63-13.72-10.38-21-7-18.51-1.48-37.05,13.8-48.46,8.61-6.43,8.61-6.43,5.23-16.6a3,3,0,0,1,.08-1.11l-.07,0L436,335.52l-1.71-7.35,1.92-1.35,2.23-1.22c.85-1.92,2.63-4,2.37-5.75-.82-5.75,1.73-8.29,7-9.07l2.24.11.19-.09,1.77-1.88.19-.47q1.32-5.16,2.62-10.34L453,295.84q-2.08-10.92-4.18-21.85l1.19-1.17q0-7.43-.1-14.86c-.42-.8-.85-1.59-1.27-2.38-2.5-5.88-5.58-11.6-7.31-17.7-1.33-4.67-3.11-8.38-7.45-10.65l-20.74-9.11c.06-.28.11-.55.17-.82l13.86-.76c13,.1,25.27-1.86,34.53-12.27,7.26-3.17,10.74-9.15,12.33-16.55.08-2.22.17-4.45.25-6.67l2.13-6c0-2.31,0-4.61,0-6.92l2.32-4.61q.69-5.7,1.36-11.39c.32-1.68.65-3.36,1-5.05.71-2,1.81-4.06,2.07-6.17,1.21-9.72,2.17-19.46,3.23-29.2L507.7,55.6,512,43.69C514.44,36,516,28.39,512.23,20.69ZM93,194.79l6.79-5,5.58-1.36,17.19-6.89.33-3.47-2.61-2.15-3.51.79-2.09.33-9.27,2.27-.13,0a6.39,6.39,0,0,1-.31.83l-2,.13H92.64L92.2,180l-.5.11L93.85,177l3.34-2.5,1.22-1,.1-.06,1-.76a.9.9,0,0,1,.92-.56l2.51-1.69,5.59-2.91,3.69-2.18,4.58-1,6.77-1.51,9.27-2,7-.3,3.42.39,5.73-1.39-1.06-1.08-1-.81-19.14-5.94-1.75-.15-9.2-.29-6.6.44-8.43,1.88L87,154.92c.1-.81-.06-2.17.33-2.35,3.57-1.69,7.23-3.17,10.87-4.72.13-.62.26-1.24.38-1.86l4.42-2.34,5.74-1.37,12.81-2.34,12.36-1.29-7.78-3.21-26.35-4.56,4.76-5.6,6.08-2.34,1.44-4.46c-.48,1.49-1,3-1.43,4.46l23.82-1.52c0-.4,0-.79.08-1.19l-19.13-2h0c-2-.57-4.11-1.05-6.09-1.8-.55-.2-.82-1.19-1.22-1.82a.55.55,0,0,0,.38-.55c-.22-.94-.43-1.87-.64-2.81l-6.37-3.8,5.11-4.06c.17-.81.34-1.63.5-2.44l.66-4.6,2.21.1,1.17-.91c4.6-2.75,1.13-4.69-1-5.76-2.76-1.37-6-1.81-9-2.65,0-.67,0-1.34,0-2l18.88-3.44c-.09-.69-.17-1.39-.26-2.08L117,79.08c-4.63-.35-9.26-.62-13.87-1.09a29.55,29.55,0,0,1-4.72-1.23l8.09-4.46c8.23-.62,16.48-1.09,24.69-2,2.47-.27,4.82-1.72,7.23-2.63Q136.21,63.32,134,59L133,57.08c1.47-.36,3.19-1.39,4.36-1a94.78,94.78,0,0,1,9.38,4.62l7.78,5h0l10.46,12.64a109.47,109.47,0,0,0,6.57,9.2c6.35,7.32,12.68,14.68,19.54,21.5,3.38,3.36,7.91,5.56,11.92,8.29l4.6,6.69q4.6,9.2,9.2,18.39c1.58,2.3,3.16,4.59,4.73,6.89l-.15,2.56,12.49,18.26,6.3,11.16-3.15,7h0l-9.65-1.19-5.87-3.22-10.75-4.21c-.18.55-.36,1.1-.55,1.64l8.89,4.82c4.24,4.39,10,7.69,10.67,14.64l-22.05.35-17.28,1.23-46,4.37L137,207.81l-14.33.08-24.24-8Zm151.15,45.32-2,3.5-4.57,7.13L233.46,258v.15l-1.74,3.78v0l-.69,1.09-3.69,10.49c-.45,1.89-.9,3.77-1.36,5.66s-.81,3.76-1.22,5.65l0,0c-1,4.63-2,9.24-3,13.87q-.76,8.58-1.55,17.15c0,.5,0,1-.08,1.51-.17,1.35-.35,2.71-.52,4.06l-3.9,14.05-.46-.09-4.14,9.29,0,.07c-.13.71-.26,1.42-.4,2.13l-8.88,12.65-2.28-.53c-.71-3.35-1.65-6.67-2-10.05-.27-2.38-.77-3.65-3.39-2.81l-.28-.13.23.21,0,.54-.49.26-2,1.08-1.3,3.3-4.55,5.11-6.88-2.51,0-.09c-3.24-3.47-5.63-8.67-12.71-5.15,1.21-9.1,2.31-17.43,3.41-25.77l-2.14-.24-1.16.81a.91.91,0,0,1-.94.53l-3.49,2.35h0l-1.29.91-2.16,1.46-6.12,6.59-3.38.7c.11-2,.2-3.59.3-5.21l1-6.83,2.65-9.46c-2.24-3.15-4.37-6.38-6.83-9.34-.33-.39-2.62.31-3.52,1.06a47.21,47.21,0,0,0-4.47,4.88l-1.27-.28,1.8-7.54,2.33-4.71,3.65-7.13,2.52-3.53c1.31-2,2.35-3.9-1.39-4.24l-10.24,3.38q-10.23,7.62-20.44,15.25a3,3,0,0,1-2.67.42q2.34-3.72,4.71-7.44a74.74,74.74,0,0,0,5.5-7.72c.49-.91-.56-2.66-.9-4l1.14-2.33,1.28-1,.86-.66c4.13-1.61,4-5,3.48-8.48l-1.1-.3-16-1.29c-.11-.41-.21-.82-.32-1.23l8.1-4.49,3.64-2.51v0l3-1.9,1.67-2.07,3.43-2.19.09-.07,2.18-2.22.11-.15L135,246H124.49c0-.3,0-.59,0-.89l17.75-7.83-.48-1.45-3.57-.66-.24-1,19.64-4.43-7.26-4.6,3.22-2.32c7.44-4.58,7.48-5,1.17-13.51l1.23-.23h0l4.55.19c5.85-.82,11.69-2.16,17.56-2.37,17.74-.63,35.5-.82,53.25-1.19.05.31.23.42.52.33l-1,5-1.58,1.35c-.28,1.12-.57,2.23-.85,3.35a58.5,58.5,0,0,1,6.3,4.27c2.62,2.32,4.95,5,7.4,7.49l2.28,6.92C244.33,236.3,244.25,238.2,244.16,240.11Zm143.77,30.68-1.7.32-1.84,4.62a3,3,0,0,1,.29,1.09l7.08,5.57c.38,2.85.6,4.46.82,6.06l1.23,2.31,2.6,4.49q1,3.56,2,7.11l-5.73-3.26.07-.51-4.57-1.23h0c-2.07-1.76-4.13-3.54-6.19-5.31l-10-7,0,0-3.32,0c-.08.75-.17,1.49-.25,2.24.15.73.31,1.45.46,2.18l.75,2.44a.79.79,0,0,1,.22.88l2.58,5.82.76,1.38c.29.36.57.72.85,1.09a.88.88,0,0,1,.43.91c1.94,3.81,3.89,7.61,5.82,11.41l-4.8-1c-1.35-3.88-4.41-4.83-8.09-4.72-1.78,1.64-3.41,4.44-5.37,4.69-4.12.54-4.15,3.54-3.63,5.66,1,4.05,3,7.84,4.65,11.74.31,2.39.61,4.77.92,7.16l-5.05-5a.65.65,0,0,1-.52-.44l-1.5-1.45h0l-4.61-3.52a.8.8,0,0,1-.84-.43c-5.45-2-6.71.49-5.82,5.39a39.64,39.64,0,0,1,.32,4l1.94,3.82.18,6.66.75,2-1,.47c-4.21-3.38-6.89-2.11-8.47,2.74-.87,2.67-1.84,5.31-2.75,7.94-1.46-.34-3.14-1.26-3.75-.79-4.47,3.5-5.9.14-7.49-3q-1.93-4.85-3.88-9.7l-.83-.84-.24-.14-1.15-.95-1.24-.13q-.45,6.39-.91,12.78c0,.81,0,1.61,0,2.42l-1.81,3.54c-1.2-2.12-2.18-3.82-3.15-5.52l-.18-.23-2-2.4-2.63-3.39c-1.42-3.09-2.82-6.19-4.23-9.28L302,339l-2.52-5.83q-1.68-6.82-3.35-13.66L295,312.61c0-1.51-.05-3-.07-4.52l-1.17-.09-.25-.27-.37.07c-.05-3-.11-6.05-.18-9.08q-1.81-6.48-3.62-13a.5.5,0,0,0-.13-.76l-6.7-21.94-.43-1.36.06-1.65-4.05-7.5h0l-1.14-2.31c-.45-.75-.9-1.51-1.36-2.26l.05.05h0c-.53-1.39-1.06-2.77-1.6-4.16a3.06,3.06,0,0,0-.8.08h0c-3.15-4.68-2.06-9.42-.18-14.17l.27-1.15,1-2.2,0-.06,2-3.68.07-.08c2.17-1.87,4.37-3.69,6.5-5.6,2.29-2,5.88-4.06.68-6.88.36-1.51.72-3,1.09-4.53l16.17,0h.06l27.21.17.89.84c11-.78,21.68.48,31.9,4.84a22.88,22.88,0,0,0-3,4c-1.69,3.6.89,9,4.31,8.48,4.3-.66,5.4,1.93,6.75,4.77h0l-4,2.22c1.07,1.18,1.92,2.82,3.25,3.41,1.84.83,4,.86,6.08,1.23l1.81,4.6,17.53,4.58c-.07.38-.14.76-.22,1.14L388,247l3.73.77L388,247H388c-3.19.7-6.43,1.28-9.54,2.23-.54.16-.56,2-.81,3.06l7.09,4.77h0l4.61,2.56,1.09.36,1.35.76a.8.8,0,0,1,1,.4c.33.28.66.56,1,.85l3.56,2.63,2.22.69,1.16.27,4.61,2.4c.18,1,.35,2,.49,2.82ZM422.7,156c-6.92-.07-13.85-.28-20.78-.46l-2.25,0-4.65.89-20.61-.06h-.05l-3.48,2.27c4.14,5,9.73,3.17,14.92,3.2l10.34,2.47,18.47,9c2.42,1.44,4.9,2.82,7.2,4.44.29.2-.28,1.64-.46,2.51-4.06-.05-8.12-.08-12.18-.12l-11.92-3.19-10.78-.9c-.17.46-.35.91-.52,1.37,6.44,5.06,12,11.41,20.47,13.56l14.23,4.58c-6.29,6.71-13.44,10.46-22.22,11.14l-26.55.1-34.31-4.51h0l-18.39-.23-17.12-1.11L285.5,199.8l4.46-7,1.65-1.93.14-.12c1-5.82-2.65-2.87-4.88-2.63l-1.12.1-2.29,1.08-1.26-.24c-7.72.65-7.83.55-7.95-7.67l3.11-3.51,1.42-2.21,2.3-3.61.52-1.84a1.56,1.56,0,0,0,.79-.24q1.22-2.85,2.41-5.7l2-1.31,3.6-6.7c.42-.66.85-1.32,1.28-2l1.79-2.64.55-1.06,12.41-18.57a2.86,2.86,0,0,1,1-.33q2.46-5.41,4.9-10.82l8.23-9.41q6.63-7.58,13.28-15.14c4.65-5,10.09-9.54,13.79-15.2C354.89,70,365.82,64,376.85,58c.87-.48,2.41.25,3.64.42a37.83,37.83,0,0,0-2.85,4.2c-2.85,5.57-1.05,8.39,5.15,8.55a54.27,54.27,0,0,1,6.53.92l-.16.35,25.37,5.44L413.11,79,397.25,81.2H396l-1.29,2.6,10.58,3.44c-.73,5.53-6.1,3.76-9.06,5.79l7.46,4.17,3.67,1.91c.06,1.44.12,2.88.19,4.32,1.32,1.71,2.64,3.41,2.94,3.78-1.55,3-3.49,5.17-3.45,7.27,0,1.63,2.53,3.21,3.93,4.82l-.45,1.33H390.89c0,.36,0,.72,0,1.08l18.64,6,2,2.3-32.78,7.86,4.73,3.55,4.52.94,7.52,2.18,2.92.31,9.26,1.95,3.43,1.25L426,155A11.87,11.87,0,0,1,422.7,156Z"/></g></g></svg>