<svg xmlns="http://www.w3.org/2000/svg" viewBox="0 0 514.49 479.62"><defs><style>.cls-1{fill:#3d1f75;}</style></defs><g id="Camada_2" data-name="Camada 2"><g id="Camada_1-2" data-name="Camada 1"><path class="cls-1" d="M512,43.69,507.7,55.6l-21.34,56.16c-1.06,9.74-2,19.48-3.23,29.2-.26,2.11-1.36,4.12-2.07,6.17-.32,1.69-.65,3.37-1,5.05q-.68,5.69-1.36,11.39l-2.32,4.61c0,2.31,0,4.61,0,6.92l-2.13,6c-.08,2.22-.17,4.45-.25,6.67-1.59,7.4-5.07,13.38-12.33,16.55-9.26,10.41-21.53,12.37-34.53,12.27l-13.86.76c-.06.27-.11.54-.17.82l20.74,9.11c4.34,2.27,6.12,6,7.45,10.65,1.73,6.1,4.81,11.82,7.31,17.7.42.79.85,1.58,1.27,2.38q0,7.43.1,14.86L448.81,274q2.08,10.92,4.18,21.85l1.81,2.27q-1.29,5.17-2.62,10.34l-.19.47-1.77,1.88-.19.09-2.24-.11c-5.25.78-7.8,3.32-7,9.07.26,1.77-1.52,3.83-2.37,5.75l-2.23,1.22-1.92,1.35,1.71,7.35,2.13,5.28.07,0a3,3,0,0,0-.08,1.11c3.38,10.17,3.38,10.17-5.23,16.6C417.61,370,412.07,388.49,419.09,407c2.75,7.26,6.88,14,10.38,21h0c7.65,11.72,14.82,23.64,12.83,38.52-1,7.57-5.64,11.94-13.14,13-5.45.77-10.6-2.25-11.42-7.95-1.54-10.74-1.82-21.67-3.52-32.36a57.82,57.82,0,0,0-6-18.81c-2.39-4.3-7.41-7.14-11.26-10.62l-22.64.93-8.09.3c-10.38,6.5-29.63,6-39.05-1.21a6.57,6.57,0,0,1-2.62-4c-.34-5.7-4.37-7.82-8.54-10.36-3.9-2.37-7.27-5.62-10.87-8.49-1.13-4.05-2.6-8-3.3-12.15-1.13-6.7-1.74-13.48-2.57-20.23l-3.09-11.59c-.06-1.08-.13-2.17-.19-3.26l-1.11-1.27c-.6-2.35-1.19-4.7-1.79-7-.21-1.41-.41-2.82-.61-4.23a3.34,3.34,0,0,0-.81-.38c-.31-1.46-.61-2.92-.95-4.38q-2.44-10.37-4.9-20.73c-.69-1.29-1.37-2.57-2-3.86V298l-1.5-4.49a1,1,0,0,0-.2-1q-1.33-7-2.66-14c-.56-2.3-1.11-4.6-1.67-6.9-.07-.7-.15-1.39-.23-2.08s-.25-1.68-.37-2.51-.47-1.42-.7-2.12c0-1.06,0-2.12,0-3.18l.09-.6-4.32-7.44h-.42q-1.77,5.59-3.52,11.17c-.32,9-.49,18.09-1,27.12-.15,2.49-1.48,4.91-2.27,7.36,0,1.16.05,2.32.07,3.47-2.54,3.55-4.16,9-9.71,7.91s-6.51-6.58-7.47-11.14c-1.37-6.48-2-13.1-3-19.67h0q-.24-12.7-.49-25.4l-3.84,5.7-3.16,11.17h0l-5.7,18.44h0c-1.75,5.71-1.21,12.34-6.68,16.54l-2.79,18.32q-1.55,5.72-3.11,11.44-2.88,12.09-5.77,24.19c-.31,1.77-.61,3.54-.92,5.31q-1.19,8.31-2.38,16.61L204,392.4l-3.81,3.36a.53.53,0,0,0-.66.35l-10,10.45a8.62,8.62,0,0,0-.11.87c-.93.83-1.72,2.05-2.81,2.44-9.93,3.53-19.67,8-30.73,3.91-4.37-1.63-9.22-1.95-13.85-2.87l-7.19-1.54c-7.63-1.62-14.83-.87-21.31,3.87a48,48,0,0,0-15.32,27.33l-.39,4.7-3.69,21h0a.56.56,0,0,1-.29.86c-.43,1.75-.78,3.51-1.31,5.23-2.11,6.91-7.56,8.37-12.43,3.12-6.51-7-9.4-15.34-6.06-24.65a33.48,33.48,0,0,1,3.2-6.28c1.26-2,2.62-4,3.81-6.06q2.34-5.21,4.67-10.39,4-11.53,8-23.05l3.24-4.77-.42-16.84-4.89-11c-2.81-3.25-5.56-6.55-8.46-9.71-2.18-2.36-4.77-4.36-6.8-6.82-5.43-6.54-4.59-11.57,2.47-16.44.2-1.17.41-2.34.61-3.51.11-2.18.23-4.35.34-6.53-5.31-2.89-8.32-6.82-6.55-13.3.21-.76-1-2.24-1.92-2.93-3.61-2.75-7.86-4.86-10.84-8.13-1.59-1.74-2.34-6.09-1.26-8.08,4.86-9,5.53-18.17,3.53-28a13.15,13.15,0,0,1,.82-7.82c4.83-10,10.09-19.86,15.19-29.77l18.77-13.44c-4.67-.41-10.84-.32-16.7-1.65-8.18-1.84-16.13-4.74-24.18-7.18l-1.28-1L55,208q-5.86-7.78-11.72-15.59l-7.89-24.2L32.7,144.24Q31.62,135,30.53,125.7h0q-5.19-19-10.36-37.94-7-16.52-14-33C1.48,44.24-2.22,33.62,1.57,22l4.72-8.63,1.19-1.59L17.81,4C32.36-1.81,46.92-.79,61.49,3.9c17.56,2.3,33.37,9.66,49.2,17,3.47,1.61,6.92,3.27,10.39,4.91L128.2,30a.75.75,0,0,0,.88.36l5.76,3.84L136,35l8.13,5.81-.05-.06,1.26,1,.18.08,2,1.45-.1-.1,1.38,1,0,0,4.42,4.53L155.66,51l2.7,1.66c-.29.11-.59.24-.89.37l.89-.36.06-.05,15.29,12.65,1.24,1,1.18,1.13,7.59,8.45,2.68,2.75L200.56,97a.56.56,0,0,1,.12.72c6.23,2.64,7.9,8.59,10.21,14.08l2.37,2.91Q221.66,131,230,147.3h0c.08.27,4.14,12.51,6.21,18.77,1.51,3.81,3,7.6,4.5,11.4,1-4.51,2-9.06,3.15-13.53,1.07-4,2.45-7.9,3.7-11.85l-7.66-12.68c-10-18.93-20-37.92-30.16-56.78-2.69-5-6.15-9.51-9.25-14.25l-3.4-4.74q-2.19-5.2-4.36-10.41c-3.93-9.64-7.69-19.36-11.86-28.9-1.52-3.47-4.39-6.35-5.9-9.83-1.08-2.5-.93-5.54-1.34-8.34l2-.84c1.37,1.76,3.16,3.33,4,5.3,5.76,13,11.31,26.14,16.93,39.22L205,66c2.56,5.69,4.68,11.63,7.75,17,8.72,15.33,17.82,30.43,26.78,45.62,1.53,2.59,3,5.2,4.55,7.79l8.15,12.4,9.36,1,2.19,0c8.13-13.72,16.83-27.14,24.24-41.23,12.83-24.4,25-49.15,37.11-73.9,2.83-5.75,4.5-12.07,6.71-18.14,1.31-2.9,2.48-5.89,4-8.68.53-1,1.95-1.45,3-2.15.64,1.24,2.08,2.73,1.78,3.68-1.14,3.68-2.83,7.19-4.32,10.76-1.31,3.46-2.4,7-4,10.36-3,6.45-6.35,12.78-9.55,19.15-.93,1.85-1.9,3.67-2.86,5.51l-4.15,9.6-1.23,3.18Q290.91,110,267.27,152.12l1.23,4.48,3.36,18.52,1.21,3.82q3.36-7,6.73-14.06l2.49-8.16,11.15-24.27L295,130.2c0-1.3-.47-2.93.12-3.86,6.37-10,12.93-19.87,19.43-29.78a.63.63,0,0,1,.45-.64q4.77-5.31,9.56-10.61l0,0a0,0,0,0,1,0,0c1.24-2.19,2.51-4.38,3.76-6.57.35,0,.7-.12,1-.19l.55-1.36.32-.4q3.27-3.6,6.52-7.21a.52.52,0,0,0,.63-.46l13.95-13.26.12-.11,3.07-2.51.07,0,10.65-8.73.09,0,6.17-2.8L380,34.86l17.33-10.93,2.24-.53,25.13-10.27,3.06-1.41,19.88-6.64L456.91,4l3.67-1.24L466.37.63l.06-.05c8.41.65,16.84,1.18,25.23,2,1.94.2,3.78,1.5,5.66,2.28,7.31,3.06,12.6,8,14.91,15.8C516,28.39,514.44,36,512,43.69Z"/></g></g></svg>