<svg xmlns="http://www.w3.org/2000/svg" viewBox="0 0 2657.03 1200"><defs><style>.cls-1{fill:#ecd4ff;}.cls-2{fill:#411841;}.cls-3{fill:#3e2774;}</style></defs><g id="Camada_2" data-name="Camada 2"><g id="Camada_1-2" data-name="Camada 1"><rect class="cls-1" x="4.68" width="2652.35" height="1200"/><path class="cls-2" d="M4.75,406a18.56,18.56,0,0,1-4.75.64v-5Z"/><path class="cls-2" d="M2538.53,406.68a18.62,18.62,0,0,1-4.75-.64l4.75-4.33Z"/><path class="cls-3" d="M2399.91,944.53,2266.76,703,2072.64,905c-13.09-33.76-25.69-62.34-34.6-92-2.12-7.06,6.3-19.52,12.95-26.62,49.09-52.48,98.51-104.67,148.9-155.9,13.09-13.31,16-23.46,6-40.35-17.61-29.81-34.16-60.52-48-92.23-49.38-113.15,32.79-220.88,123.5-239.12,65.92-13.26,118,14.93,153.41,71.71,36.72,59,41.38,121.36,4.47,180.34-22.92,36.59-55.31,67.48-85.05,99.46-12,12.94-14.17,22.08-5.09,38.06,35.16,61.7,67.93,124.76,103.12,186.44,10.28,18,9.5,31-3.8,46.37C2432.48,899.63,2418.53,920,2399.91,944.53ZM2284.14,532.65l10,1.26c33.65-38.27,68.77-75.36,100.34-115.24,18.74-23.69,12-43.86-13.89-56.48-42.18-20.66-87.06-25.42-132.95-17.88-31.1,5.1-42.83,22.44-30.5,51C2237.26,442.05,2261.58,487,2284.14,532.65Z"/><path class="cls-3" d="M272.21,595.76c-20.24,0-36.52-.5-52.75.16-15.45.61-21.72-4.93-22.15-21.37-1.33-49.75-2-49.73,48.46-49.86,40.64-.1,40.64-.1,50-39.77q2.26-9.65,4.45-19.3c12.91-56.68,1.39-47.83,63.85-48.85,15.51-.25,21.07,5.31,17,20.92-5.38,20.75-9.45,41.81-14.55,62.69-4.28,17.49,2.59,25,20,24.15,1.64-.08,3.3,0,4.95.06,58.62,1.57,58.62,1.57,71.93-55.48,13.44-57.52,18.57-60.8,78.53-50.25.72.12,1.28,1,4.85,4-4.5,22.82-8.37,47.84-14.57,72.26-4.83,19-3.38,29.91,20.11,30.66,5.77.19,12.39,11,16.32,18.24,2.44,4.47.58,11.32.57,17.09,0,33.65,0,34.44-33.29,34.46-16.76,0-27.05,4.81-28.7,22.56-.31,3.25-1.54,6.41-2.25,9.64-9,41.42-9,41.43,34.21,41.81,30.07.31,30.07.31,30.08,35.32s0,34.67-30.59,35.4c-63.15,1.5-52.76-11.34-69.35,56.09-.59,2.4-1.1,4.83-1.65,7.24-10.15,44.66-22.82,53-68.6,42.62-5.1-1.17-11.94-12.8-11.09-18.58,3.06-21.16,8.68-42,14.12-62.74,4.36-16.57.47-23.94-18.36-24.8-65.27-3-65.27-3.56-80.14,60-.38,1.6-.89,3.18-1.26,4.79-9.67,42.1-25.93,52.39-69.1,41.54-4.62-1.16-10.5-11.81-9.76-17.25,2.83-21.22,7.89-42.14,12.54-63.09,3.49-15.76.62-26.52-18.43-25.63-17,.82-21.15-8.65-20.11-23.39a146.11,146.11,0,0,0-.06-24.75c-1.75-17.33,6-25.31,22.79-22.43,29.49,5,42.52-8.25,44.58-36.6C265.62,622.78,268.81,612.49,272.21,595.76Zm106.5,73.43c50.09-.58,41.25,4.19,52.8-44,5.05-21.05.86-31.76-23-29.52a158,158,0,0,1-34.51-.12c-22.32-2.82-29.87,7.87-33.44,28.45-7.91,45.3-8.86,45.13,38.12,45.11Z"/><path class="cls-3" d="M871.05,832.06c-57.31-.12-96.8-38.17-97-93.43-.21-56.83,38.94-94.11,98.44-93.74,58.62.37,96.89,37,97,92.61C969.5,794,929.75,832.19,871.05,832.06Zm32.69-94.24c-.12-23.31-10.76-35.46-31.19-35.64-20-.17-32.34,12.93-32.7,34.76-.39,23.69,11.53,36.95,32.93,36.6,20.52-.33,31.09-12.5,31-35.72Z"/><path class="cls-3" d="M1984.22,620c-58.66-.49-96.28-37-96.11-93.16.17-55.87,41.39-95.08,98.87-94,57.75,1,96.14,38.76,95.86,94.16C2082.57,584.53,2044.49,620.45,1984.22,620Zm33.58-91.52c.75-22.86-10.2-36.53-30-37.56-21-1.1-34.1,12.58-34,36.31.13,19.84,8.05,33.65,30.09,34.67C2005,562.8,2017.06,550.82,2017.8,528.43Z"/><path class="cls-3" d="M1276.18,644.87c59,.58,97,37,96.49,92.56-.51,57.35-39.51,95.06-97.84,94.58-57.69-.47-97-38.38-96.83-93.31C1178.2,681.32,1217,644.32,1276.18,644.87Zm0,128.74c20.24-.2,31.56-12.89,31.76-35.59.18-22.23-11.83-36.14-31.33-36.27-20.21-.15-33.76,15-33.34,37.34.37,22.1,12.4,34.75,32.86,34.52Z"/><path class="cls-3" d="M761.47,821.93c-56.58,21.25-84.54-5.35-100.7-54.35l-7.29,4.4c0,11.72-.46,23.46.1,35.15.93,19.19-11,21.77-25.74,20.39-15-1.42-36.51,7.14-37-19.78-.76-46.25-.14-92.53-.35-138.79-.07-15,7.41-20.29,21.63-20,23.94.46,47.93-.2,71.87.15,36.3.53,55.87,11.14,62.94,33.42,8.22,25.91.06,43.57-32.89,67.38ZM644,706.86c11.74,9.33,18.54,18.41,22.91,17.33,6.9-1.65,16.56-9.87,16.87-15.76s-8.69-15-15.36-17.08C664,690,656.45,698.52,644,706.86Z"/><path class="cls-3" d="M1827.56,538.49c17,26,32.09,49,47.41,72.41-52.43,17.51-84.18-.71-99.15-52.22l-6.2,4c-.7,11.42-2,22.83-2,34.25-.08,22.36-16.32,19.3-29.82,18.63-13.26-.66-32.64,6.71-32.78-17.91-.32-47.05,0-94.08-.21-141.13,0-13.46,6-19.5,19.51-19.3,22.28.31,44.57-.2,66.85.12,27.82.39,56.45,1.48,68.58,32.71C1871.78,500.92,1856.39,522.27,1827.56,538.49Zm-67.11-41.6c8.89,8.6,16,18.24,18.36,17.21,7.7-3.52,13.67-10.83,20.3-16.68-6.27-6-11.73-14.16-19.21-17.08-3.13-1.24-10.56,8.7-19.45,16.55Z"/><path class="cls-3" d="M1418.05,611.1c-51.88,16.82-84.54-.63-99.58-53.9l-6.12,5.79c-.63,8.48-2.55,17.11-1.67,25.49,2.92,27.63-14.22,27.27-34.12,27.71-20.54.45-30-4.88-29.18-27.53,1.51-42,1.14-84,.14-126-.47-19.49,6.92-26.51,26-25.54,23,1.13,46.13-.09,69.18.4,34.25.74,55.19,12.71,61.61,35.59,7.9,28.11-3.88,47.83-28,61.72-1.28.73-1.89,2.61-4.28,6.07Zm-96-141.68c-6.23,14.9-11.88,22.15-11.29,28.86.51,5.83,8.06,11.06,12.49,16.56,6.43-6,17.09-11.35,18-18.1C1342.1,490.71,1332.26,483.18,1322,469.42Z"/><path class="cls-3" d="M1076,690.29c13.15-52.26,49-42.28,89.75-39.3-13.85,21.25-23.21,39.52-36.23,54.63-17.33,20.2-15,36.72.54,56.54,14.61,18.52,26.13,39.48,42.59,64.89-24.78,0-46.64,5.73-62.44-1.62-15.48-7.19-24.77-27.69-36.72-42.21-11.15,14.49-19.54,35.18-34.27,41.88-16.09,7.3-38.06,1.66-65.19,1.66,16.78-25,28.31-45.58,43.24-63.38,18-21.5,17.12-39.72-.45-60.63-11.91-14.19-20.85-30.89-31.44-46.92C1026.05,639.66,1046.15,646.84,1076,690.29Z"/><path class="cls-3" d="M1447.21,524.67c0-22.28.14-44.58-.1-66.87-.13-12.7,4.08-20.61,18.36-20.51,28.07.2,56.25-1.25,84.14.95,6.6.52,15.51,12,17.57,19.93,3.06,11.53-.33,23.45-17,23.45-8.24,0-16.74-.53-24.65,1.26-4.59,1-8.25,6.12-12.33,9.43,3.69,3.59,6.81,8.65,11.22,10.4,5.1,2,11.37,1.49,17.13,1.47,16.43,0,20.51,9,20.19,23.95-.29,14.42-5.48,21.8-20.39,21a5.89,5.89,0,0,0-2.47.11c-8.81,3.64-17.59,7.36-26.38,11,9.47,3.78,18.79,10.14,28.46,10.72,16.15,1,26.94,3.55,27.12,23.2.17,20.4-11.49,22.11-27.24,21.71-24.75-.66-49.54-.52-74.3-.21-13.49.17-19.63-5.66-19.46-19.22C1447.45,572.56,1447.23,548.62,1447.21,524.67Z"/><path class="cls-3" d="M978.83,522.76c5.26-15.93,10.95-31.73,15.68-47.82,11.43-38.82,11.22-38.93,52-37.61,5.58.17,11.13,1.22,19.66,2.22-1.91,8.4-2.72,15.49-5.1,22-16.8,44.76-34.53,89.19-50.68,134.17-5.84,16.23-15.69,20.86-31.71,20.33-15.37-.5-28.17,0-35.09-18.87-17.09-46.39-36.29-92-55-137.8-6.81-16.66-1.23-21.92,16-22.37,41.29-1.08,41.22-1.66,52.75,37.58,4.75,16.1,9.73,32.13,14.6,48.2Z"/><path class="cls-3" d="M741.8,525.21c0-21.48.54-43-.18-64.44-.55-16.62,5.63-24.3,23-23.77,25.6.8,51.23.69,76.84.21,14.82-.29,20.71,6.23,20.88,20.72.16,14.69-3.89,24.37-20.66,23.63a6.57,6.57,0,0,0-2.46.14q-15.73,5.63-31.42,11.36c9.69,3.77,19.13,9.62,29.12,10.84,15,1.82,19.38,9,19.28,22.88s-4.49,22.44-19.6,22.36a6.37,6.37,0,0,0-2.46.13c-8.77,3.67-17.52,7.41-26.27,11.14,9.43,3.77,18.69,10.13,28.32,10.73,16.46,1,26.91,4.25,26,23.92-.65,14.54-6.12,21-20.85,20.74-26.44-.48-52.89-.55-79.32,0-15.15.29-20.39-6.92-20.2-21.14.41-23.13.11-46.27.11-69.4Z"/><path class="cls-3" d="M1155.63,437.29c11.55,0,23.11.47,34.68-.09,15.61-.77,24.84,3.28,24.68,21.74-.16,17.44-7.79,22.29-23.94,23.46-10.51.75-20.62,7.14-30.91,11.06,9.82,3.65,19.43,9.4,29.58,10.47,15.18,1.6,19.11,9.08,19.13,22.78s-4.3,20.92-19.23,23c-10.19,1.4-19.77,7.93-29.57,12.17,9.92,3.28,19.67,8.5,29.81,9.37,14.75,1.27,25,3.06,25.28,21.89.29,20-9.87,23.24-26.22,22.81-23.9-.66-47.86-.91-71.75,0-17.41.64-22.94-6.69-22.66-23.46q1.14-66.8,0-133.6c-.28-16.21,5.93-22.44,21.67-21.66C1129.21,437.75,1142.44,437.23,1155.63,437.29Z"/><path class="cls-3" d="M589.65,527c0-22.29.51-44.6-.13-66.89-.44-15.09,4.18-23.34,20.9-23,27.24.6,54.51.4,81.76,0,15.86-.27,19.19,9,19.65,22.2.48,13.43-3.06,22.79-18.5,23.37-9.08.34-18.52-.38-27,2-4.73,1.35-7.9,8.16-11.78,12.53,4,3.29,7.6,8.1,12.24,9.49,6.12,1.85,13.07,1.19,19.67,1.33,15.17.31,19.38,9.25,19.44,22.83s-4.54,23.69-19.59,22.06c-28.29-3-37,10.52-33.28,36.26,4.15,28.94-15.66,26-34.37,26.88-20.2.95-31.24-4-29.31-27.21C591,568.36,589.62,547.61,589.65,527Z"/><path class="cls-3" d="M1601.73,523.44c0-20.66,1-41.37-.24-62-1.47-25.5,14.7-24.8,32.32-24.6,16.41.19,31.52-1.27,30.9,23.21-1.12,44.59-1,89.24,0,133.84.58,25.59-16.62,21.36-31.89,21.9-16.52.6-32.18,1.18-31.2-23,1-23.09.2-46.26.2-69.35Z"/></g></g></svg>