<svg xmlns="http://www.w3.org/2000/svg" viewBox="0 0 2652.35 1200"><defs><style>.cls-1{fill:#ecd4ff;}.cls-14,.cls-2,.cls-4,.cls-6{fill:#3e2774;}.cls-2,.cls-3,.cls-7{opacity:0.1;}.cls-11,.cls-12,.cls-2,.cls-3,.cls-5,.cls-6,.cls-7{isolation:isolate;}.cls-11,.cls-5{fill:#fff;}.cls-5{opacity:0.2;}.cls-6{opacity:0.73;}.cls-12,.cls-7{fill:#000100;}.cls-8{fill:#fbfbfb;}.cls-9{fill:#f0f0f0;}.cls-10{fill:#e0e0e0;}.cls-11,.cls-13{opacity:0.5;}.cls-12{opacity:0.3;}.cls-13{fill:#3d2774;}.cls-14{font-size:214.77px;font-family:Lato-Bold, Lato;font-weight:700;}.cls-15{letter-spacing:-0.02em;}.cls-16{letter-spacing:-0.01em;}.cls-17{letter-spacing:0em;}.cls-18{letter-spacing:-0.01em;}.cls-19{letter-spacing:-0.01em;}</style></defs><g id="Camada_2" data-name="Camada 2"><g id="Camada_1-2" data-name="Camada 1"><rect class="cls-1" width="2652.35" height="1200"/><g id="freepik--Background--inject-10"><path id="freepik--background--inject-10-2" data-name="freepik--background--inject-10" class="cls-2" d="M1024.53,602.14c-2.41-55.53-27.06-109.44-66.11-148.8-40.86-41.21-58.07-101.08-94.09-146.62-30.11-38.16-70.07-63.1-116.49-76.65-71-20.76-155.41,1-213.88,44.45-47.85,35.59-81.36,79.57-100.09,135.36-23.44,69.72-28,183,3.48,252,30.52,66.82,69.15,117.19,147.9,153.28,111.21,50.94,240.29,40.45,320.27-6s119.68-126.35,119.2-199.47C1024.72,607.24,1024.66,604.68,1024.53,602.14ZM912.7,320.65a353.19,353.19,0,0,1,17.67,34.41c3.68,8.19,7.25,16.78,13.77,23,19.14,18.1,32.54-4.58,38.11-21.7,14.3-43.81,1.29-103.23-42.65-124.74-14.47-7.11-33.35-9.76-45.65.67-10.76,9.1-12.76,25.42-8.91,39s12.35,25.21,20,37.06q4,6,7.66,12.34Z"/></g><g id="freepik--Shadow--inject-10" class="cls-3"><path id="freepik--shadow--inject-10-2" data-name="freepik--shadow--inject-10" class="cls-4" d="M712.5,918.38c91.87,0,166.35,37.29,166.35,83.3S804.37,1085,712.5,1085s-166.35-37.29-166.35-83.29S620.63,918.38,712.5,918.38Z"/></g><g id="freepik--red-blood-cells--inject-10"><g id="freepik--red-blood-cell--inject-10"><path class="cls-4" d="M1066.57,900.42a27,27,0,0,0-13.61-11,32.37,32.37,0,0,0-13.42-2.15c-21.51.73-47,16.71-57.1,35.66a35.54,35.54,0,0,0-3.7,10.23,27.09,27.09,0,0,0,19.83,31.77,34.51,34.51,0,0,0,10.75,1.16c21.51-.73,47-16.71,57.1-35.66a32.43,32.43,0,0,0,4-12.9A26.85,26.85,0,0,0,1066.57,900.42Z"/><path id="freepik--shadow--inject-10-3" data-name="freepik--shadow--inject-10" class="cls-5" d="M1006.73,898.28c22.3-13.93,46.9-14.79,54.94-1.91s-3.52,34.6-25.82,48.53-46.9,14.79-54.94,1.92S984.43,912.21,1006.73,898.28Z"/><path class="cls-6" d="M1044,903.85a16.19,16.19,0,0,0-11.85-3.58c-13.07.46-28.65,10.2-34.79,21.75a16.12,16.12,0,0,0-2,12.21c1.57,5,6.71,8.13,14.54,7.88,13.1-.46,28.67-10.2,34.8-21.75C1048.38,913.44,1047.82,907.46,1044,903.85Z"/><path class="cls-7" d="M1044,903.85a16.19,16.19,0,0,0-11.85-3.58c-13.07.46-28.65,10.2-34.79,21.75a16.12,16.12,0,0,0-2,12.21c1.57,5,6.71,8.13,14.54,7.88,13.1-.46,28.67-10.2,34.8-21.75C1048.38,913.44,1047.82,907.46,1044,903.85Z"/><path class="cls-4" d="M1041.24,908.73a13.31,13.31,0,0,0-9.81-3,37.57,37.57,0,0,0-28.9,17.91,13.45,13.45,0,0,0-1.66,10.11c1.29,4.17,5.57,6.76,12,6.45a37.48,37.48,0,0,0,28.81-18C1044.83,916.66,1044.38,911.69,1041.24,908.73Z"/><path class="cls-5" d="M1041.24,908.73a13.31,13.31,0,0,0-9.81-3,37.57,37.57,0,0,0-28.9,17.91,13.45,13.45,0,0,0-1.66,10.11c1.29,4.17,5.57,6.76,12,6.45a37.48,37.48,0,0,0,28.81-18C1044.83,916.66,1044.38,911.69,1041.24,908.73Z"/><path class="cls-5" d="M1050.29,891.07a32.54,32.54,0,0,0-12.45-1.29A55.42,55.42,0,0,0,1016.1,896c-1.81.94-3.61,2-5.33,3.05a22.78,22.78,0,0,0-5.1,3.72c-.15.15.11.52.3.43a38.12,38.12,0,0,0,4.65-2.54c1.63-.9,3.29-1.76,5-2.55a81.91,81.91,0,0,1,10.17-3.94,50.34,50.34,0,0,1,21.74-2A18.87,18.87,0,0,1,1058,897c.19.17.3-.11.19-.26A13.5,13.5,0,0,0,1050.29,891.07Z"/><path class="cls-5" d="M993.2,950.43a33,33,0,0,0,12.45,1.31,56,56,0,0,0,21.74-6.28c1.81-.93,3.61-2,5.33-3.05a22.43,22.43,0,0,0,5.1-3.71c.15-.16-.11-.51-.3-.44a41.84,41.84,0,0,0-4.65,2.53c-1.63.9-3.29,1.78-5,2.56a84.15,84.15,0,0,1-10.17,3.94,50.5,50.5,0,0,1-21.74,2,19.18,19.18,0,0,1-10.43-4.8c-.2-.19-.3,0-.2.26A13.59,13.59,0,0,0,993.2,950.43Z"/></g><g id="freepik--red-blood-cell--inject-10-2" data-name="freepik--red-blood-cell--inject-10"><path class="cls-4" d="M1188.94,680a31,31,0,0,0,0-20.32,37.42,37.42,0,0,0-8-13.55c-16.41-18.71-49.46-29.94-73.91-25.08a40.7,40.7,0,0,0-11.9,4.3,31.38,31.38,0,0,0-14,41.12,41.21,41.21,0,0,0,6.88,10.56c16.43,18.71,49.46,29.94,73.91,25.08a38,38,0,0,0,14.61-5.89A31.18,31.18,0,0,0,1188.94,680Z"/><path id="freepik--shadow--inject-10-4" data-name="freepik--shadow--inject-10" class="cls-5" d="M1084.48,637.22c5.65-16.67,33.64-22.25,62.5-12.46s47.67,31.24,42,47.91-33.64,22.25-62.5,12.46S1078.82,653.88,1084.48,637.22Z"/><path class="cls-6" d="M1169.31,662.25c.28-4.06-1.49-8.6-5.49-13.25-10-11.4-30.11-18.24-45-15.29-6,1.2-10.17,3.79-12.43,7.19-3.36,5.07-2.37,12,3.61,18.81,10,11.42,30.11,18.26,45,15.29C1163.82,673.22,1168.9,668.34,1169.31,662.25Z"/><path class="cls-7" d="M1169.31,662.25c.28-4.06-1.49-8.6-5.49-13.25-10-11.4-30.11-18.24-45-15.29-6,1.2-10.17,3.79-12.43,7.19-3.36,5.07-2.37,12,3.61,18.81,10,11.42,30.11,18.26,45,15.29C1163.82,673.22,1168.9,668.34,1169.31,662.25Z"/><path class="cls-4" d="M1162.9,663.32a15.48,15.48,0,0,0-4.54-11c-8.28-9.44-25-15.06-37.29-12.65a15.49,15.49,0,0,0-10.3,5.94c-2.78,4.3-2,9.93,3,15.59,8.28,9.44,25,15,37.29,12.64C1158.43,672.42,1162.56,668.38,1162.9,663.32Z"/><path class="cls-5" d="M1162.9,663.32a15.48,15.48,0,0,0-4.54-11c-8.28-9.44-25-15.06-37.29-12.65a15.49,15.49,0,0,0-10.3,5.94c-2.78,4.3-2,9.93,3,15.59,8.28,9.44,25,15,37.29,12.64C1158.43,672.42,1162.56,668.38,1162.9,663.32Z"/><path class="cls-5" d="M1185.33,658.53a37.78,37.78,0,0,0-8-12.13,64.09,64.09,0,0,0-21.51-14.91c-2.15-.94-4.4-1.8-6.64-2.55a27.58,27.58,0,0,0-7.08-1.85c-.25,0-.38.47-.17.6a44.4,44.4,0,0,0,5.68,2.3c2,.82,4,1.66,5.95,2.6a96.31,96.31,0,0,1,11,6.24,58.28,58.28,0,0,1,17.74,18,21.93,21.93,0,0,1,3.35,12.91c0,.32.3.21.39,0A15.84,15.84,0,0,0,1185.33,658.53Z"/><path class="cls-5" d="M1090.23,650.85a37.78,37.78,0,0,0,8,12.13,64.12,64.12,0,0,0,21.5,14.9c2.15,1,4.41,1.81,6.65,2.56a27.41,27.41,0,0,0,7.07,1.85c.26,0,.39-.47.18-.6a43.55,43.55,0,0,0-5.68-2.3c-2-.82-4-1.66-6-2.6a98.6,98.6,0,0,1-11-6.24,58.28,58.28,0,0,1-17.74-18,21.86,21.86,0,0,1-3.36-12.91c0-.32-.3-.21-.39,0A15.84,15.84,0,0,0,1090.23,650.85Z"/></g><g id="freepik--red-blood-cell--inject-10-3" data-name="freepik--red-blood-cell--inject-10"><path class="cls-4" d="M484.09,129.79a26.8,26.8,0,0,0-12.91-11.92,32.28,32.28,0,0,0-13.2-2.82c-21.51-.64-48,13.66-59.29,31.92a35,35,0,0,0-4.3,10,27,27,0,0,0,17.74,33,35.4,35.4,0,0,0,10.75,1.87c21.51.62,48-13.66,59.29-31.94A32.32,32.32,0,0,0,487,147.18,26.88,26.88,0,0,0,484.09,129.79Z"/><path id="freepik--shadow--inject-10-5" data-name="freepik--shadow--inject-10" class="cls-5" d="M424.18,124.86c23.14-12.36,47.68-11.55,54.82,1.8s-5.84,34.21-29,46.57-47.69,11.55-54.82-1.81S401,137.21,424.18,124.86Z"/><path class="cls-6" d="M461.35,131.74a16.05,16.05,0,0,0-11.59-4.3c-13.09-.39-29.24,8.33-36.13,19.36a16.11,16.11,0,0,0-2.77,12.06c1.23,5.12,6.17,8.6,14,8.8,13.08.39,29.25-8.33,36.13-19.47C465.1,141.59,464.88,135.57,461.35,131.74Z"/><path class="cls-7" d="M461.35,131.74a16.05,16.05,0,0,0-11.59-4.3c-13.09-.39-29.24,8.33-36.13,19.36a16.11,16.11,0,0,0-2.77,12.06c1.23,5.12,6.17,8.6,14,8.8,13.08.39,29.25-8.33,36.13-19.47C465.1,141.59,464.88,135.57,461.35,131.74Z"/><path class="cls-4" d="M458.26,136.43a13.3,13.3,0,0,0-9.59-3.59A37.49,37.49,0,0,0,418.77,149a13.27,13.27,0,0,0-2.3,10c1,4.3,5.1,7.09,11.6,7.29A37.54,37.54,0,0,0,458,150.11C461.38,144.58,461.25,139.59,458.26,136.43Z"/><path class="cls-5" d="M458.26,136.43a13.3,13.3,0,0,0-9.59-3.59A37.49,37.49,0,0,0,418.77,149a13.27,13.27,0,0,0-2.3,10c1,4.3,5.1,7.09,11.6,7.29A37.54,37.54,0,0,0,458,150.11C461.38,144.58,461.25,139.59,458.26,136.43Z"/><path class="cls-5" d="M468.45,119.36a32.71,32.71,0,0,0-12.34-2.16A55.93,55.93,0,0,0,434,122.07c-1.87.81-3.72,1.74-5.53,2.7a23,23,0,0,0-5.33,3.38.28.28,0,0,0,.28.45,36.82,36.82,0,0,0,4.8-2.15c1.7-.77,3.39-1.55,5.16-2.15A83.86,83.86,0,0,1,443.81,121a50.43,50.43,0,0,1,21.8-.6,18.79,18.79,0,0,1,10,5.4c.19.19.32,0,.23-.26A13.53,13.53,0,0,0,468.45,119.36Z"/><path class="cls-5" d="M407.66,175A32.6,32.6,0,0,0,420,177.12a55.19,55.19,0,0,0,22.09-4.86c1.87-.8,3.72-1.72,5.52-2.69a23,23,0,0,0,5.32-3.38c.17-.15,0-.53-.28-.47a43.07,43.07,0,0,0-4.8,2.15,45.8,45.8,0,0,1-5.14,2.15,79,79,0,0,1-10.41,3.27,50.17,50.17,0,0,1-21.81.63,18.89,18.89,0,0,1-10.1-5.47c-.17-.19-.3,0-.22.24A13.65,13.65,0,0,0,407.66,175Z"/></g><g id="freepik--red-blood-cell--inject-10-4" data-name="freepik--red-blood-cell--inject-10"><path class="cls-4" d="M366.82,432.85a31.23,31.23,0,0,0,1.24-20.3,37.39,37.39,0,0,0-7.12-14c-15.05-19.74-47.46-33-72.15-29.78a41.12,41.12,0,0,0-12.13,3.42,31.39,31.39,0,0,0-16.56,40.13,40.69,40.69,0,0,0,6.2,11c15.18,19.72,47.48,33,72.15,29.76a37.25,37.25,0,0,0,14.92-4.94A31.33,31.33,0,0,0,366.82,432.85Z"/><path id="freepik--shadow--inject-10-6" data-name="freepik--shadow--inject-10" class="cls-5" d="M360.94,398.52c15.19,19.72,7.49,38.37-17.2,41.66s-57-10.07-72.15-29.79-7.49-38.36,17.2-41.65S345.78,378.78,360.94,398.52Z"/><path class="cls-6" d="M348.36,414c.54-4.07-.92-8.78-4.62-13.6-9.27-12-28.95-20.13-44-18.13-6,.8-10.39,3.1-12.9,6.46-3.7,4.86-3.14,11.82,2.38,19,9.25,12,28.93,20.15,44,18.13C342.3,424.48,347.55,419.92,348.36,414Z"/><path class="cls-7" d="M348.36,414c.54-4.07-.92-8.78-4.62-13.6-9.27-12-28.95-20.13-44-18.13-6,.8-10.39,3.1-12.9,6.46-3.7,4.86-3.14,11.82,2.38,19,9.25,12,28.93,20.15,44,18.13C342.3,424.48,347.55,419.92,348.36,414Z"/><path class="cls-4" d="M341.89,414.55A15.59,15.59,0,0,0,338,403.23c-7.66-10-24-16.67-36.41-15.05a15.34,15.34,0,0,0-10.75,5.27c-3.06,4-2.61,9.78,2,15.74,7.66,10,24,16.67,36.41,15.05C336.84,423.32,341.22,419.54,341.89,414.55Z"/><path class="cls-5" d="M341.89,414.55A15.59,15.59,0,0,0,338,403.23c-7.66-10-24-16.67-36.41-15.05a15.34,15.34,0,0,0-10.75,5.27c-3.06,4-2.61,9.78,2,15.74,7.66,10,24,16.67,36.41,15.05C336.84,423.32,341.22,419.54,341.89,414.55Z"/><path class="cls-5" d="M364.67,411.19a38.42,38.42,0,0,0-7.19-12.63,64.7,64.7,0,0,0-20.58-16.25c-2.15-1.08-4.3-2.15-6.45-3a27,27,0,0,0-6.95-2.3c-.26,0-.43.45-.21.58a51,51,0,0,0,5.52,2.67c2,.94,3.9,1.91,5.79,3a92.54,92.54,0,0,1,10.58,6.93,58.61,58.61,0,0,1,16.56,19.14,21.88,21.88,0,0,1,2.5,13.06c0,.32.3.23.4,0A15.8,15.8,0,0,0,364.67,411.19Z"/><path class="cls-5" d="M270.17,397.41a37.72,37.72,0,0,0,7.18,12.64,64.4,64.4,0,0,0,20.56,16.23c2.15,1.1,4.3,2.16,6.45,3a26.89,26.89,0,0,0,6.93,2.3c.26,0,.43-.46.21-.61a49,49,0,0,0-5.52-2.64c-2-.95-3.9-1.91-5.79-3a95.91,95.91,0,0,1-10.58-6.95,58.11,58.11,0,0,1-16.54-19.11,22,22,0,0,1-2.51-13.08c0-.3-.31-.21-.39,0C268.15,390.45,265.8,394.27,270.17,397.41Z"/></g></g><g id="freepik--white-blood-cells--inject-10"><g id="freepik--white-blood-cell--inject-10"><path class="cls-8" d="M1147.37,904.45c5.25,4.13,5.7,13.07,14,12.32,2.86-.26,5.7-1.63,8.49-1,3.68.86,6.46,5.08,10.14,4.56s5.11-5.05,8-7.36c3.37-2.66,6-.43,9.5-.68,9-.69,3.55-11.25,9.55-13.62.77-.32,1.6-.43,2.37-.75a7.38,7.38,0,0,0,4-6.45,36.64,36.64,0,0,0-.75-7.89c-.61-4.69,6-6.46,6-10.91,0-3.91-4.82-6.08-6-9.8-1.36-4.13,1.93-9.6-1.25-12.56-2.16-2-5.9-1.12-8.24-2.93-3.42-2.6-1.87-9-5.55-11.25-2.15-1.31-5-.3-7.44-.47a12.25,12.25,0,0,1-8.43-4.56c-2.49-2.64-6.07-5.5-9.33-4-2.5,1.18-3.51,4.56-6.12,5.5-3.22,1.16-6.31-2-9.65-2.71a7.21,7.21,0,0,0-8.28,5.47,33.22,33.22,0,0,1-.54,4c-1.7,5.49-10.75,4.71-13.63,9.64-1.61,2.68-.84,6.08-.8,9.22,0,6.2-6.67,7.57-7,13.66a12.52,12.52,0,0,0,3.7,8.22,10.65,10.65,0,0,1,2.93,5c.43,3.08-2.15,6-1.85,9.06a8.22,8.22,0,0,0,5.59,6.34c2.73,1.12,5.76,1.49,8.49,2.64A8.58,8.58,0,0,1,1147.37,904.45Z"/><path class="cls-9" d="M1201.55,910.64c-5.79.84-11.32-8.34-16-4.19a16.34,16.34,0,0,0-2.25,3.16,3.85,3.85,0,0,1-3.19,1.93c-2.15-.15-3-3-5-4-3.1-1.56-7,2.27-10.08.62-2.52-1.38-2.3-5.42-4.65-7-2-1.38-5-.45-6.84-2a5.15,5.15,0,0,1-1.31-4.19,19,19,0,0,0,0-4.52c-1.16-5-7-2.56-8.6-6.45-1.42-3.4,1.74-6.32-1.21-9.66a26.7,26.7,0,0,1-4.3-4.83,3.48,3.48,0,0,1,.19-3.64,6.14,6.14,0,0,1,1.83-1.33c3.74-2.15,5-4.3,3.94-8.6-.58-2.3-1.27-5,.13-6.89a9.46,9.46,0,0,1,4.58-2.51c1.63-.67,3.39-1.83,3.52-3.59a7.7,7.7,0,0,0-.68-2.91,19,19,0,0,1-.58-6.45c0-.6.13-1.42.21-2.26a6.77,6.77,0,0,0-2.77,4.16,37.86,37.86,0,0,1-.54,4c-1.7,5.49-10.76,4.71-13.64,9.64-1.61,2.68-.84,6.08-.79,9.22,0,6.2-6.67,7.57-7,13.66a12.43,12.43,0,0,0,3.7,8.22,10.55,10.55,0,0,1,2.92,5c.43,3.08-2.15,6-1.85,9.06a8.22,8.22,0,0,0,5.59,6.34c2.74,1.12,5.76,1.49,8.5,2.64a9,9,0,0,1,2.15,1.23c5.25,4.13,5.7,13.08,14,12.33,2.86-.27,5.7-1.64,8.49-1,3.68.86,6.46,5.07,10.13,4.55s5.12-5,8.05-7.35c3.37-2.66,6-.43,9.51-.69A5.89,5.89,0,0,0,1201.55,910.64Z"/><path class="cls-10" d="M1179.37,921.52a10.46,10.46,0,0,1-5.81-2.49,12.07,12.07,0,0,0-4-2.15,10.85,10.85,0,0,0-4.93.43,26.48,26.48,0,0,1-3.2.58c-5.94.51-8.46-3.57-10.62-7.19a19.39,19.39,0,0,0-4.15-5.37h0a7.53,7.53,0,0,0-1.86-1.08,28.68,28.68,0,0,0-4.19-1.31,31,31,0,0,1-4.3-1.33,9.28,9.28,0,0,1-6.26-7.25,11.77,11.77,0,0,1,1-4.82,8.83,8.83,0,0,0,.84-4.15,9.16,9.16,0,0,0-2.5-4.3l-.16-.21a13.46,13.46,0,0,1-4-9,11.55,11.55,0,0,1,3.84-7.31,8.83,8.83,0,0,0,3.18-6.26,14.08,14.08,0,0,0-.11-2.15,12.72,12.72,0,0,1,1.07-7.66,13.42,13.42,0,0,1,7.29-4.84c2.82-1.09,5.49-2.15,6.25-4.55a8.87,8.87,0,0,0,.27-2,14.27,14.27,0,0,1,.22-1.83,8.3,8.3,0,0,1,9.55-6.3,16.4,16.4,0,0,1,3.87,1.55c1.94,1,3.59,1.79,5.2,1.21a7,7,0,0,0,2.73-2.48,9.92,9.92,0,0,1,3.29-3c3-1.44,6.6,0,10.56,4.3a11.12,11.12,0,0,0,7.75,4.3,16.72,16.72,0,0,0,2.34-.1,7,7,0,0,1,8.69,4.76,7.22,7.22,0,0,1,.28,2.31,8.19,8.19,0,0,0,2.15,5,8.3,8.3,0,0,0,3.52,1.14,8.77,8.77,0,0,1,4.8,1.85c2.15,2.15,1.87,5,1.5,7.85a12.46,12.46,0,0,0,0,5.16,11.3,11.3,0,0,0,2.76,3.87,9.42,9.42,0,0,1,3.33,6.26,8.77,8.77,0,0,1-3.35,6c-1.57,1.55-2.9,2.88-2.65,4.82a12.46,12.46,0,0,0,.28,2,24.76,24.76,0,0,1,.47,6.13,8.59,8.59,0,0,1-4.66,7.29,12.91,12.91,0,0,1-1.34.41c-.34.11-.71.19-1.05.32-1.94.78-2.37,2.63-2.84,5.6-.54,3.39-1.2,7.65-7,8.1a12.65,12.65,0,0,1-3.63-.34,5.55,5.55,0,0,0-5.29.82,15.21,15.21,0,0,0-2.67,3c-1.55,2.15-3.14,4.3-5.89,4.58A4.74,4.74,0,0,1,1179.37,921.52Zm-11.08-6.92a9.11,9.11,0,0,1,1.81.19,14.27,14.27,0,0,1,4.71,2.47,7.43,7.43,0,0,0,5,2.16c1.86-.26,3.07-1.87,4.47-3.75a17.59,17.59,0,0,1,3-3.4,7.63,7.63,0,0,1,7-1.22,12.45,12.45,0,0,0,3.1.3c3.91-.3,4.45-2.58,5-6.3.45-2.8,1-6,4.2-7.25a13.15,13.15,0,0,1,1.26-.39l1.08-.34a6.41,6.41,0,0,0,3.33-5.48A22.46,22.46,0,0,0,1212,886l-.32-2c-.37-3,1.57-4.92,3.27-6.62a7,7,0,0,0,2.73-4.43,7.75,7.75,0,0,0-2.77-4.8,13,13,0,0,1-3.21-4.67,14,14,0,0,1-.11-6.1c.32-2.5.61-4.67-.83-6A7.27,7.27,0,0,0,1207,850a7.6,7.6,0,0,1-7.48-7.74h0c-.47-2.15-.92-4.08-2.43-5a7,7,0,0,0-4.3-.4,20.12,20.12,0,0,1-2.69,0,13.54,13.54,0,0,1-9.16-4.91c-3.24-3.46-6-4.71-8.07-3.72a8.19,8.19,0,0,0-2.53,2.41,8.9,8.9,0,0,1-3.68,3.14,8.61,8.61,0,0,1-6.88-1.31,14.76,14.76,0,0,0-3.38-1.36,5.85,5.85,0,0,0-4.41.93,5.94,5.94,0,0,0-2.58,3.68,13.53,13.53,0,0,0-.17,1.56,10.93,10.93,0,0,1-.39,2.55c-1,3.39-4.3,4.66-7.5,5.91a11.81,11.81,0,0,0-6.24,4,10.9,10.9,0,0,0-.75,6.45,15.76,15.76,0,0,0,.11,2.28,10.79,10.79,0,0,1-3.77,7.72,9.55,9.55,0,0,0-3.24,6,11.36,11.36,0,0,0,3.44,7.46l.19.21a11,11,0,0,1,3,5.32,10.55,10.55,0,0,1-1,5.22,10,10,0,0,0-.88,3.92,7.18,7.18,0,0,0,4.93,5.41,30.81,30.81,0,0,0,4,1.23,29.62,29.62,0,0,1,4.49,1.42,9.07,9.07,0,0,1,2.32,1.38h0a19.92,19.92,0,0,1,4.67,5.93c2.15,3.68,3.93,6.58,8.6,6.15a20.29,20.29,0,0,0,2.9-.54,19.63,19.63,0,0,1,4.15-.73Z"/></g><g id="freepik--white-blood-cell--inject-10-2" data-name="freepik--white-blood-cell--inject-10"><path class="cls-8" d="M1074,787.72c1.8-4.5,8-6.63,5.74-12.27-.75-1.93-2.28-3.61-2.41-5.69-.15-2.74,2.15-5.47,1.14-8s-4.56-2.54-6.75-4.11c-2.56-1.81-1.53-4.11-2.41-6.45-2.28-6.09-8.61-.2-11.4-3.89-.37-.48-.62-1-1-1.51a5.39,5.39,0,0,0-5.25-1.48,26.26,26.26,0,0,0-5.31,2.15c-3.16,1.37-5.66-2.84-8.82-2-2.73.78-3.25,4.58-5.59,6.17s-7.08.6-8.5,3.42c-1,1.91.41,4.3-.36,6.32-1.12,2.91-5.92,3.12-6.71,6.14-.47,1.78.79,3.54,1.18,5.26a9.06,9.06,0,0,1-1.48,6.8c-1.34,2.26-2.6,5.33-.86,7.29,1.33,1.5,3.87,1.52,5,3.14,1.49,2-.1,4.79,0,7.27a5.29,5.29,0,0,0,5.49,4.67,21.58,21.58,0,0,1,2.88-.46c4.15,0,5.44,6.45,9.46,7.55,2.15.58,4.41-.64,6.58-1.31,4.3-1.31,6.6,3.12,10.93,2.15a9.12,9.12,0,0,0,5-4.3,7.71,7.71,0,0,1,2.88-3.06c2-.92,4.54.24,6.67-.53a5.93,5.93,0,0,0,3.27-5.19c.24-2.15-.13-4.3.13-6.45A5.58,5.58,0,0,1,1074,787.72Z"/><path class="cls-9" d="M1067.39,748.75c1.76,3.84-3.51,9.57.3,12a12.67,12.67,0,0,0,2.67.95,2.77,2.77,0,0,1,2,1.81c.32,1.55-1.49,2.75-1.77,4.3-.47,2.47,3,4.45,2.46,6.9-.44,2-3.29,2.69-3.94,4.65s.69,3.59,0,5.16a3.76,3.76,0,0,1-2.64,1.78,11.93,11.93,0,0,0-3.16.91c-3.28,1.8-.37,5.33-2.74,7.27s-4.75,0-6.45,2.79a19.59,19.59,0,0,1-2.47,4,2.5,2.5,0,0,1-2.58.6,4.11,4.11,0,0,1-1.29-1,4.78,4.78,0,0,0-6.67-1.05l-.06,0a6.09,6.09,0,0,1-4.82,1.32,6.89,6.89,0,0,1-2.75-2.63,3.58,3.58,0,0,0-3.21-1.74,5.45,5.45,0,0,0-1.87,1.07,13.62,13.62,0,0,1-4.3,1.68c-.43.11-1,.19-1.64.32a5.12,5.12,0,0,0,3.47,1.1,23.31,23.31,0,0,1,2.88-.45c4.15,0,5.44,6.45,9.46,7.55,2.15.58,4.41-.65,6.58-1.31,4.3-1.32,6.6,3.11,10.93,2.14a9.06,9.06,0,0,0,5-4.29,7.67,7.67,0,0,1,2.89-3.06c2-.92,4.54.24,6.66-.54a5.91,5.91,0,0,0,3.27-5.18c.24-2.15-.13-4.3.13-6.45a6.25,6.25,0,0,1,.43-1.7c1.81-4.5,8-6.62,5.74-12.26-.75-1.93-2.28-3.61-2.4-5.7-.15-2.73,2.15-5.46,1.14-8s-4.56-2.53-6.76-4.11c-2.56-1.8-1.53-4.1-2.41-6.45A4.28,4.28,0,0,0,1067.39,748.75Z"/><path class="cls-10" d="M1054.42,810.08a10,10,0,0,1-4.56-1.4,6,6,0,0,0-4.77-.92l-1.48.49a9.36,9.36,0,0,1-5.7.82,10.24,10.24,0,0,1-5-4.19c-1.34-1.77-2.52-3.27-4.2-3.32a6.77,6.77,0,0,0-1.42.22c-.45,0-.88.17-1.33.21a6.26,6.26,0,0,1-6.65-5.63,12.92,12.92,0,0,1,.28-3.1,4.71,4.71,0,0,0-.15-3.61,4.93,4.93,0,0,0-2.15-1.31,7.73,7.73,0,0,1-2.84-1.77c-1.72-1.93-1.48-4.81.73-8.6a7.86,7.86,0,0,0,1.36-6,11.2,11.2,0,0,0-.54-1.57,6.67,6.67,0,0,1-.65-4.3,6.87,6.87,0,0,1,3.9-3.85,5.82,5.82,0,0,0,2.86-2.39,5.49,5.49,0,0,0,0-2.55,6.73,6.73,0,0,1,.34-3.87,6.43,6.43,0,0,1,5.38-2.8,8.92,8.92,0,0,0,3.46-1,7.77,7.77,0,0,0,2.15-2.61,7.07,7.07,0,0,1,3.85-3.71,6.64,6.64,0,0,1,5.06,1.15c1.52.85,2.51,1.34,3.63.87l1.29-.63a18.78,18.78,0,0,1,4.3-1.57,6.45,6.45,0,0,1,6.3,1.87,10.28,10.28,0,0,1,.58.88c.2.31.26.43.41.65.86,1.1,2.15,1,4.19.73,2.46-.32,5.81-.75,7.38,3.42a10.76,10.76,0,0,1,.52,2.69,3.75,3.75,0,0,0,1.5,3.29,11.6,11.6,0,0,0,2.56,1.23,5.62,5.62,0,0,1,5,6.19,5.73,5.73,0,0,1-.83,2.41,8.77,8.77,0,0,0-.67,3.07,7.74,7.74,0,0,0,1.27,3.23,18.71,18.71,0,0,1,1.07,2.15c1.66,4.3-.77,6.84-2.9,9.16a13.94,13.94,0,0,0-2.86,3.87h0a7.81,7.81,0,0,0-.37,1.42,23.8,23.8,0,0,0,0,3.16,22.58,22.58,0,0,1,0,3.29,7,7,0,0,1-4,6.07,8.92,8.92,0,0,1-3.67.28,6.19,6.19,0,0,0-2.93.23,6.31,6.31,0,0,0-2.3,2.48,10.24,10.24,0,0,1-5.74,4.86A6.4,6.4,0,0,1,1054.42,810.08Zm-8.06-4.69a9.76,9.76,0,0,1,4.45,1.36,6.67,6.67,0,0,0,4.62,1,8.23,8.23,0,0,0,4.3-3.79,8.72,8.72,0,0,1,3.34-3.42,8.08,8.08,0,0,1,4-.43,7.28,7.28,0,0,0,2.79-.15,5,5,0,0,0,2.58-4.3,24.86,24.86,0,0,0,0-3,22.2,22.2,0,0,1,0-3.46,7.15,7.15,0,0,1,.52-2h0a14.6,14.6,0,0,1,3.25-4.54c2.25-2.45,3.59-4.08,2.49-6.92-.26-.62-.6-1.22-1-1.87a9.85,9.85,0,0,1-1.53-4.15,10.06,10.06,0,0,1,.78-3.9,5.32,5.32,0,0,0,.43-3.72c-.5-1.11-1.81-1.61-3.33-2.14a13.27,13.27,0,0,1-3.06-1.47,5.78,5.78,0,0,1-2.38-4.86,9.28,9.28,0,0,0-.41-2.15c-.93-2.45-2.39-2.39-5.08-2.15-2,.26-4.51.58-6.17-1.55-.19-.26-.39-.56-.56-.84a5.74,5.74,0,0,0-.43-.66,4.29,4.29,0,0,0-4.3-1.1,16.57,16.57,0,0,0-3.74,1.42l-1.36.62a6,6,0,0,1-5.52-.94c-1.27-.69-2.35-1.29-3.43-1s-1.8,1.46-2.6,2.75a9.9,9.9,0,0,1-2.38,3.51,10.77,10.77,0,0,1-4.3,1.35c-2,.3-3.27.58-3.81,1.64a5.11,5.11,0,0,0-.13,2.66,7.32,7.32,0,0,1-.19,3.57,7.49,7.49,0,0,1-3.83,3.51c-1.38.75-2.54,1.4-2.84,2.52a4.8,4.8,0,0,0,.56,2.85,11.93,11.93,0,0,1,.62,1.89,10,10,0,0,1-1.59,7.58c-1.68,2.86-2,4.88-1,6a5.28,5.28,0,0,0,2.15,1.18,6.73,6.73,0,0,1,3.05,2.05,6.61,6.61,0,0,1,.55,5.27,11,11,0,0,0-.29,2.55A4.13,4.13,0,0,0,1023,799a4,4,0,0,0,2.89,1,6.67,6.67,0,0,0,1.07-.19,8.88,8.88,0,0,1,1.92-.26c2.71,0,4.3,2.15,5.87,4.15a8.36,8.36,0,0,0,3.85,3.42,7.57,7.57,0,0,0,4.41-.76l1.59-.53A6.71,6.71,0,0,1,1046.36,805.39Z"/></g><g id="freepik--white-blood-cell--inject-10-3" data-name="freepik--white-blood-cell--inject-10"><path class="cls-8" d="M1186,549.21c1.49-4.62,7.45-7.2,4.84-12.64-.9-1.87-2.56-3.44-2.82-5.51-.36-2.7,1.83-5.63.54-8s-4.73-2.15-7-3.59c-2.69-1.63-1.83-4-2.88-6.3-2.73-5.9-8.6.45-11.66-3-.4-.45-.71-1-1.09-1.42a5.34,5.34,0,0,0-5.36-1.09,25.3,25.3,0,0,0-5.16,2.49c-3,1.62-5.85-2.43-8.92-1.31-2.67,1-2.91,4.8-5.14,6.56s-7,1.12-8.22,4c-.82,2,.73,4.3.11,6.34-.9,3-5.68,3.55-6.26,6.61-.32,1.83,1.07,3.48,1.57,5.16a8.91,8.91,0,0,1-1,6.91c-1.16,2.34-2.15,5.48-.32,7.33,1.44,1.39,4,1.22,5.27,2.75,1.61,1.89.26,4.79.6,7.25a5.24,5.24,0,0,0,5.81,4.3,27.18,27.18,0,0,1,2.84-.65c4.15-.21,5.91,6.07,10,6.82,2.15.43,4.3-.95,6.45-1.78,4.17-1.62,6.82,2.62,11,1.33a9.07,9.07,0,0,0,4.65-4.6,7.62,7.62,0,0,1,2.64-3.25c2-1.08,4.56,0,6.6-1a5.92,5.92,0,0,0,2.91-5.4c0-2.15-.46-4.3-.37-6.45A7.59,7.59,0,0,1,1186,549.21Z"/><path class="cls-9" d="M1176.51,510.76c2.15,3.72-2.8,9.81,1.19,11.94a11.64,11.64,0,0,0,2.72.73,2.84,2.84,0,0,1,2.15,1.68c.44,1.52-1.28,2.84-1.46,4.4-.28,2.52,3.34,4.3,3,6.71-.3,2-3.1,2.93-3.59,4.93s1,3.53.32,5.16a3.73,3.73,0,0,1-2.5,2,13.15,13.15,0,0,0-3.07,1.12c-3.14,2.15,0,5.37-2.15,7.46s-4.73.41-6.24,3.27a18.93,18.93,0,0,1-2.15,4.17,2.45,2.45,0,0,1-2.51.77,4,4,0,0,1-1.36-.9,4.78,4.78,0,0,0-6.73-.58l-.06.07a6,6,0,0,1-4.71,1.65,6.63,6.63,0,0,1-2.93-2.41,3.57,3.57,0,0,0-3.33-1.5,5.58,5.58,0,0,0-1.79,1.2,13.6,13.6,0,0,1-4.19,2c-.41.15-1,.28-1.59.43a4.91,4.91,0,0,0,3.52.84,28,28,0,0,1,2.85-.65c4.14-.21,5.91,6.07,10,6.82,2.15.43,4.31-.95,6.46-1.78,4.17-1.62,6.81,2.62,11,1.33A9,9,0,0,0,1174,567a7.71,7.71,0,0,1,2.65-3.25c2-1.08,4.56,0,6.6-1a5.92,5.92,0,0,0,2.91-5.4c0-2.15-.46-4.3-.37-6.45a7.68,7.68,0,0,1,.32-1.72c1.49-4.63,7.44-7.21,4.84-12.65-.9-1.87-2.56-3.44-2.81-5.5-.37-2.71,1.82-5.64.53-8s-4.73-2.16-7-3.6c-2.69-1.63-1.83-4-2.88-6.3A4.31,4.31,0,0,0,1176.51,510.76Z"/><path class="cls-10" d="M1152.57,573.26a4.62,4.62,0,0,1-1-.11,10,10,0,0,1-5.29-3.81c-1.48-1.65-2.75-3.07-4.43-3a7.66,7.66,0,0,0-1.42.31,11.91,11.91,0,0,1-1.31.32,6.23,6.23,0,0,1-7-5.14,12.37,12.37,0,0,1,0-3.1c.15-1.48.3-2.75-.43-3.59a4.75,4.75,0,0,0-2.16-1.16,7,7,0,0,1-3-1.55c-1.85-1.78-1.81-4.69.11-8.6a7.8,7.8,0,0,0,.9-6.09,9.33,9.33,0,0,0-.64-1.53,5.37,5.37,0,0,1,1.14-7.51,5.14,5.14,0,0,1,1.41-.74c1.23-.78,2.37-1.53,2.69-2.61a5.42,5.42,0,0,0-.13-2.53,7,7,0,0,1,0-3.89,6.47,6.47,0,0,1,5.17-3.19,8.53,8.53,0,0,0,3.37-1.27,8,8,0,0,0,1.87-2.75,7.13,7.13,0,0,1,3.57-4,6.45,6.45,0,0,1,5.12.77c1.57.74,2.6,1.16,3.68.61l1.24-.71a20.57,20.57,0,0,1,4.13-1.9,6.47,6.47,0,0,1,6.46,1.43,8.9,8.9,0,0,1,.66.83,6.85,6.85,0,0,0,.45.61c.92,1,2.15.84,4.3.41,2.41-.5,5.73-1.17,7.6,2.87a11.09,11.09,0,0,1,.73,2.65,3.81,3.81,0,0,0,1.74,3.18,10,10,0,0,0,2.65,1,5.69,5.69,0,0,1,4.79,8.31,8.47,8.47,0,0,0-.45,3.12,8,8,0,0,0,1.48,3.09,18.5,18.5,0,0,1,1.25,2.15c2,4.11-.28,6.9-2.15,9.36a13.71,13.71,0,0,0-2.54,4.08h0a4.78,4.78,0,0,0-.28,1.44,23.51,23.51,0,0,0,.17,3.14,24.17,24.17,0,0,1,.2,3.3,7,7,0,0,1-3.53,6.34,8.66,8.66,0,0,1-3.63.54,4.3,4.3,0,0,0-5,3.11,10.17,10.17,0,0,1-5.35,5.25,8.59,8.59,0,0,1-6.15-.75,6,6,0,0,0-4.82-.58l-1.44.6A11.08,11.08,0,0,1,1152.57,573.26ZM1142,564.2a8.31,8.31,0,0,1,5.87,3.7,8.27,8.27,0,0,0,4.11,3.14,7.72,7.72,0,0,0,4.3-1.07l1.55-.65a8,8,0,0,1,6.45.6,6.62,6.62,0,0,0,4.69.69,7.94,7.94,0,0,0,4-4.11,8.58,8.58,0,0,1,3.07-3.65,8.15,8.15,0,0,1,3.92-.71,6.51,6.51,0,0,0,2.77-.37,4.88,4.88,0,0,0,2.27-4.43,21.43,21.43,0,0,0-.18-3,23.46,23.46,0,0,1-.17-3.46,7.78,7.78,0,0,1,.35-2h0a15.12,15.12,0,0,1,2.92-4.75c2.15-2.61,3.27-4.3,1.95-7.08a11.79,11.79,0,0,0-1.07-1.81,9.58,9.58,0,0,1-1.83-4,10.58,10.58,0,0,1,.49-3.91,5.25,5.25,0,0,0,.18-3.74c-.58-1.1-1.94-1.51-3.51-2a14.32,14.32,0,0,1-3.14-1.23,5.86,5.86,0,0,1-2.75-4.66,7.58,7.58,0,0,0-.56-2.15c-1.1-2.39-2.54-2.16-5.2-1.68-2,.4-4.48.92-6.26-1.1a6.53,6.53,0,0,1-.62-.77,7.47,7.47,0,0,0-.48-.63,4.31,4.31,0,0,0-4.3-.79,15.88,15.88,0,0,0-3.64,1.7l-1.28.71a6.05,6.05,0,0,1-5.6-.54,4.75,4.75,0,0,0-3.48-.71c-1.1.38-1.68,1.57-2.39,2.94a9.36,9.36,0,0,1-2.45,3.45,10.18,10.18,0,0,1-4.3,1.67c-2,.48-3.2.82-3.66,1.92a4.85,4.85,0,0,0,0,2.67,7.43,7.43,0,0,1,0,3.57,7.55,7.55,0,0,1-3.57,3.78c-1.31.86-2.45,1.59-2.64,2.71a4.7,4.7,0,0,0,.77,2.82,13.56,13.56,0,0,1,.76,1.85,10,10,0,0,1-1,7.67c-1,2-1.93,4.74-.53,6.09a5.64,5.64,0,0,0,2.15,1,6.65,6.65,0,0,1,3.18,1.81,6.45,6.45,0,0,1,.92,5.23,10.87,10.87,0,0,0,0,2.55,4,4,0,0,0,1.61,2.56,4.11,4.11,0,0,0,3,.78,9,9,0,0,0,1-.28,8.79,8.79,0,0,1,1.9-.39Z"/></g><g id="freepik--white-blood-cell--inject-10-4" data-name="freepik--white-blood-cell--inject-10"><path class="cls-8" d="M316.23,167.64c-5-4.46-4.86-13.42-13.2-13.21-2.86,0-5.76,1.29-8.6.45-3.53-1.11-5.9-5.42-9.75-5.2s-5.41,4.71-8.6,6.82c-3.55,2.47-6.06,0-9.55,0-8.94.13-4.3,11-10.38,12.9-.78.26-1.62.32-2.41.58a7.45,7.45,0,0,0-4.3,6.11,37.36,37.36,0,0,0,.25,7.91c.31,4.73-6.45,6-6.68,10.5-.28,3.91,4.43,6.45,5.37,10.17,1.08,4.3-2.53,9.46.45,12.6,2,2.15,5.81,1.53,8,3.46,3.24,2.82,1.26,9.14,4.81,11.59,2.16,1.45,5,.63,7.4.93a12.37,12.37,0,0,1,8.11,5.1c2.32,2.81,5.7,5.89,9.05,4.56,2.58-1,3.81-4.31,6.45-5.1,3.3-1,6.16,2.39,9.45,3.33a7.24,7.24,0,0,0,8.6-4.92c.19-1.33.45-2.64.77-3.94,2.15-5.37,10.95-4,14.24-8.75,1.78-2.58,1.22-6,1.4-9.16.3-6.17,7.14-7.1,7.87-13.16a12.41,12.41,0,0,0-3.18-8.43,10.81,10.81,0,0,1-2.59-5.16c-.23-3.1,2.43-5.81,2.41-8.93a8.13,8.13,0,0,0-5.16-6.67c-2.67-1.31-5.65-1.85-8.3-3.18A9.37,9.37,0,0,1,316.23,167.64Z"/><path class="cls-9" d="M262.55,158.07c5.83-.48,10.76,9.05,15.71,5.22a16.12,16.12,0,0,0,2.45-3.07,3.83,3.83,0,0,1,3.31-1.75c2.15.31,2.86,3.21,4.73,4.3,3,1.75,7.18-1.82,10.13,0,2.41,1.56,1.93,5.55,4.17,7.32,1.89,1.5,5,.79,6.69,2.49a5.17,5.17,0,0,1,1.05,4.3,17.6,17.6,0,0,0-.32,4.52c.84,5.1,6.77,3,8.17,7,1.21,3.46-2.15,6.19.58,9.7a27.35,27.35,0,0,1,4,5.16,3.51,3.51,0,0,1-.46,3.63,6,6,0,0,1-1.91,1.21c-3.87,1.83-5.29,4-4.47,8.25.45,2.33.94,5-.56,6.87a9.59,9.59,0,0,1-4.69,2.32c-1.7.56-3.51,1.61-3.76,3.35a7.44,7.44,0,0,0,.47,2.84,18.64,18.64,0,0,1,.17,6.45,14.8,14.8,0,0,1-.34,2.15,6.85,6.85,0,0,0,3-4c.19-1.33.45-2.64.77-3.94,2.15-5.37,11-4,14.24-8.75,1.78-2.58,1.23-6,1.4-9.16.3-6.18,7.14-7.1,7.87-13.16a12.41,12.41,0,0,0-3.18-8.43,10.7,10.7,0,0,1-2.58-5.17c-.24-3.09,2.43-5.8,2.4-8.92a8.08,8.08,0,0,0-5.16-6.67c-2.66-1.31-5.65-1.85-8.3-3.18a8.91,8.91,0,0,1-2-1.38c-5-4.45-4.86-13.42-13.2-13.2-2.86,0-5.77,1.29-8.61.45-3.5-1.07-5.87-5.38-9.72-5.16s-5.41,4.71-8.6,6.82c-3.55,2.47-6.06,0-9.55,0A6,6,0,0,0,262.55,158.07Z"/><path class="cls-10" d="M284.56,244.48c-2.56,0-5.32-1.77-8.2-5.27a11.2,11.2,0,0,0-7.44-4.71,15.49,15.49,0,0,0-2.36,0,8.91,8.91,0,0,1-5.51-1.16,9,9,0,0,1-3-6.46,8.25,8.25,0,0,0-1.91-5.09,8,8,0,0,0-3.44-1.36,8.68,8.68,0,0,1-4.67-2.15c-2.15-2.15-1.55-5.14-1-7.93a12.49,12.49,0,0,0,.3-5.16,11.49,11.49,0,0,0-2.49-4.11,9.31,9.31,0,0,1-2.93-6.45,8.56,8.56,0,0,1,3.74-5.72c1.64-1.47,3.08-2.72,3-4.65,0-.67-.11-1.33-.17-2a24.34,24.34,0,0,1,0-6.15,8.41,8.41,0,0,1,5.12-7,11,11,0,0,1,1.37-.34,9.64,9.64,0,0,0,1.06-.26c2-.64,2.53-2.47,3.18-5.4.75-3.35,1.7-7.55,7.53-7.63a15.28,15.28,0,0,1,3.61.58,5.64,5.64,0,0,0,5.31-.5,15.74,15.74,0,0,0,2.84-2.81c1.68-2,3.42-4,6.19-4.2a9.55,9.55,0,0,1,6.46,2.89,12.45,12.45,0,0,0,3.69,2.28,11,11,0,0,0,5,0,25,25,0,0,1,3.23-.39h.32c5.76,0,7.91,4.17,9.83,7.87a19.25,19.25,0,0,0,3.78,5.61,8.94,8.94,0,0,0,1.77,1.21,31.77,31.77,0,0,0,4.1,1.57,36.47,36.47,0,0,1,4.31,1.59c2.77,1.35,5.76,4.08,5.76,7.65a11.25,11.25,0,0,1-1.31,4.74,8.88,8.88,0,0,0-1.1,4.1,9.32,9.32,0,0,0,2.15,4.3l.17.22a13.63,13.63,0,0,1,3.38,9.2,11.52,11.52,0,0,1-4.3,7.06,8.58,8.58,0,0,0-3.57,6v2.15a12.72,12.72,0,0,1-1.55,7.57,13.65,13.65,0,0,1-7.59,4.3c-2.88.9-5.61,1.79-6.45,4.13a9.5,9.5,0,0,0-.43,2,18.17,18.17,0,0,1-.33,1.79,8.3,8.3,0,0,1-9.93,5.7,16.92,16.92,0,0,1-3.77-1.79c-1.87-1.09-3.46-2-5.09-1.55a7.3,7.3,0,0,0-2.91,2.28,9.62,9.62,0,0,1-3.61,2.93A5.49,5.49,0,0,1,284.56,244.48Zm-16.95-12.2a10.55,10.55,0,0,1,1.59,0,13.48,13.48,0,0,1,8.82,5.49c3,3.65,5.63,5.09,7.83,4.3a8,8,0,0,0,2.68-2.28,9,9,0,0,1,3.9-2.91,8.44,8.44,0,0,1,6.77,1.75,14.27,14.27,0,0,0,3.27,1.57,6.15,6.15,0,0,0,7.27-4.15,10.29,10.29,0,0,0,.28-1.55,10.77,10.77,0,0,1,.56-2.5c1.27-3.33,4.62-4.3,7.87-5.42A11.78,11.78,0,0,0,324.9,223a11,11,0,0,0,1.18-6.35v-2.26a10.78,10.78,0,0,1,4.3-7.48,9.5,9.5,0,0,0,3.64-5.77,11.41,11.41,0,0,0-3-7.67l-.15-.22a10.9,10.9,0,0,1-2.64-5.48,10.36,10.36,0,0,1,1.29-5.14,9.77,9.77,0,0,0,1.11-3.85,7.17,7.17,0,0,0-4.6-5.7,36.91,36.91,0,0,0-3.91-1.48,33,33,0,0,1-4.3-1.68,10.5,10.5,0,0,1-2.15-1.53h0a20.64,20.64,0,0,1-4.31-6.23c-1.93-3.75-3.46-6.72-7.91-6.72h-.26a26.53,26.53,0,0,0-2.94.37,12.87,12.87,0,0,1-5.92,0,13.92,13.92,0,0,1-4.54-2.75,7.5,7.5,0,0,0-4.9-2.41c-1.87.13-3.18,1.65-4.71,3.44a17.17,17.17,0,0,1-3.25,3.18,7.68,7.68,0,0,1-7.09.8,11,11,0,0,0-3.06-.52c-3.93,0-4.62,2.3-5.44,6-.62,2.77-1.31,5.91-4.62,7a8.63,8.63,0,0,1-1.31.32,4,4,0,0,0-1.1.26,6.43,6.43,0,0,0-3.68,5.27,22.89,22.89,0,0,0,0,5.61c0,.69.13,1.38.17,2.15.2,3-1.87,4.82-3.67,6.45a6.92,6.92,0,0,0-3,4.3,7.62,7.62,0,0,0,2.45,5,13.1,13.1,0,0,1,2.9,4.88,13.91,13.91,0,0,1-.28,6.09c-.49,2.47-.9,4.62.45,6a7.15,7.15,0,0,0,3.6,1.55,9.48,9.48,0,0,1,4.3,1.83,9.85,9.85,0,0,1,2.62,6.45,5.11,5.11,0,0,0,6.45,5.81Z"/></g><g id="freepik--white-blood-cell--inject-10-5" data-name="freepik--white-blood-cell--inject-10"><path class="cls-8" d="M381.91,288.84c-2.15,4.3-8.36,6.11-6.45,11.87.62,2,2.15,3.77,2,5.83,0,2.76-2.58,5.34-1.63,7.9s4.3,2.83,6.45,4.53c2.43,2,1.25,4.31,2,6.63,1.89,6.21,8.6.73,11.14,4.6.34.49.56,1.07.9,1.57a5.42,5.42,0,0,0,5.14,1.83,26.47,26.47,0,0,0,5.44-1.79c3.25-1.16,5.47,3.23,8.61,2.54,2.77-.6,3.54-4.3,6-5.81s7.1-.13,8.61-2.86c1.07-1.85-.13-4.3.77-6.28,1.29-2.84,6.09-2.73,7.08-5.7.6-1.74-.56-3.59-.84-5.33a8.92,8.92,0,0,1,1.91-6.69c1.49-2.15,3-5.14,1.34-7.2-1.25-1.59-3.77-1.79-4.87-3.46-1.33-2.15.44-4.78.41-7.27a5.22,5.22,0,0,0-5.16-5c-1,0-1.93.32-2.9.26-4.15-.37-5-6.82-9-8.16-2.15-.71-4.43.37-6.64.89-4.31,1-6.46-3.53-10.76-2.82a9.09,9.09,0,0,0-5.24,3.91,7.94,7.94,0,0,1-3.06,2.86c-2.15.8-4.54-.51-6.69,0a6,6,0,0,0-3.61,4.95c-.36,2.15-.15,4.3-.54,6.45A6.52,6.52,0,0,1,381.91,288.84Z"/><path class="cls-9" d="M386,328.16c-1.5-4,4.13-9.32.45-12a12.76,12.76,0,0,0-2.58-1.1,2.81,2.81,0,0,1-1.89-1.94c-.21-1.57,1.66-2.64,2.15-4.3.62-2.43-2.71-4.62-2-7,.56-2,3.46-2.47,4.3-4.3s-.47-3.63.37-5.16a3.74,3.74,0,0,1,2.75-1.59,13.44,13.44,0,0,0,3.2-.69c3.38-1.62.72-5.34,3.21-7.1s4.73.24,6.64-2.39a19.45,19.45,0,0,1,2.74-3.82,2.49,2.49,0,0,1,2.6-.43,4.55,4.55,0,0,1,1.22,1.09,4.74,4.74,0,0,0,6.52,1.53l.13-.09a6,6,0,0,1,4.9-1,6.63,6.63,0,0,1,2.56,2.79,3.61,3.61,0,0,0,3.1,1.94,6,6,0,0,0,1.93-.95,14.44,14.44,0,0,1,4.43-1.42l1.64-.19a4.87,4.87,0,0,0-3.38-1.32c-1,0-1.93.33-2.9.26-4.15-.36-5-6.81-9-8.15-2.15-.71-4.43.37-6.64.88-4.31,1-6.46-3.52-10.76-2.81a9.09,9.09,0,0,0-5.24,3.91,7.94,7.94,0,0,1-3.06,2.86c-2.15.8-4.54-.51-6.69,0a6,6,0,0,0-3.61,4.95c-.37,2.15-.15,4.3-.54,6.45a6.58,6.58,0,0,1-.54,1.66c-2.15,4.3-8.36,6.1-6.45,11.87.63,2,2.15,3.76,2,5.82,0,2.76-2.58,5.34-1.63,7.9s4.3,2.84,6.45,4.54c2.43,2,1.25,4.3,2,6.62A4.32,4.32,0,0,0,386,328.16Z"/><path class="cls-10" d="M414.84,335.49a7.62,7.62,0,0,1-4-1.57c-1.47-.95-2.44-1.49-3.57-1.1l-1.34.54a17.92,17.92,0,0,1-4.3,1.29,6.44,6.44,0,0,1-6.17-2.28,8.24,8.24,0,0,1-.54-.9l-.37-.67c-.79-1.14-2.14-1.12-4.14-1-2.46.13-5.83.37-7.12-3.91a10.64,10.64,0,0,1-.37-2.69,3.73,3.73,0,0,0-1.29-3.4,11,11,0,0,0-2.47-1.37,5.67,5.67,0,0,1-4.59-6.56,5.76,5.76,0,0,1,1-2.31,8.18,8.18,0,0,0,.86-3,7.69,7.69,0,0,0-1-3.29,19.74,19.74,0,0,1-.95-2.15c-1.37-4.3,1.21-6.79,3.49-9a13.38,13.38,0,0,0,3.14-3.76,5.59,5.59,0,0,0,.45-1.4,22,22,0,0,0,.26-3.14,28.48,28.48,0,0,1,.19-3.2,7.11,7.11,0,0,1,4.3-5.81,8.78,8.78,0,0,1,3.68,0,4.29,4.29,0,0,0,5.42-2.34,10.34,10.34,0,0,1,6-4.48,8.41,8.41,0,0,1,6,1.6,6.1,6.1,0,0,0,4.71,1.24l1.48-.4a9.51,9.51,0,0,1,5.77-.46,10.21,10.21,0,0,1,4.73,4.52c1.23,1.83,2.3,3.42,4,3.57a6.82,6.82,0,0,0,1.42-.13,10.28,10.28,0,0,1,1.35-.13,6.38,6.38,0,0,1,4.3,1.77,6.2,6.2,0,0,1,1.92,4.3,13.22,13.22,0,0,1-.5,3.05,4.85,4.85,0,0,0,0,3.63,5.17,5.17,0,0,0,2.15,1.45,7.24,7.24,0,0,1,2.74,1.93c1.59,2.05,1.16,4.91-1.29,8.5a7.77,7.77,0,0,0-1.73,5.91,8.68,8.68,0,0,0,.43,1.59,5.41,5.41,0,0,1-3.76,7.89,5.89,5.89,0,0,0-3,2.15,5.76,5.76,0,0,0-.24,2.54,5.22,5.22,0,0,1-6.13,6.3,8.56,8.56,0,0,0-3.52.78,7.72,7.72,0,0,0-2.15,2.47,7.17,7.17,0,0,1-4.09,3.46A4.46,4.46,0,0,1,414.84,335.49ZM408,330.54a7.56,7.56,0,0,1,4,1.57,4.73,4.73,0,0,0,3.35,1.18c1.14-.23,1.89-1.33,2.75-2.58a9.66,9.66,0,0,1,2.91-3.09,10.16,10.16,0,0,1,4.43-1.08c2-.19,3.29-.36,3.87-1.39a4.9,4.9,0,0,0,.32-2.65A7.28,7.28,0,0,1,430,319a7.67,7.67,0,0,1,4.06-3.27c1.4-.64,2.63-1.22,3-2.3a4.9,4.9,0,0,0-.38-2.9,14.15,14.15,0,0,1-.5-1.94,10,10,0,0,1,2.15-7.46c1.27-1.87,2.54-4.43,1.36-6a5.62,5.62,0,0,0-2-1.31,6.78,6.78,0,0,1-2.92-2.15,6.46,6.46,0,0,1-.2-5.29,11.54,11.54,0,0,0,.43-2.54,4,4,0,0,0-1.27-2.75,3.77,3.77,0,0,0-2.79-1.16,10.09,10.09,0,0,0-1.1,0,7.25,7.25,0,0,1-1.92.13c-2.73-.22-4.3-2.5-5.59-4.5-1.09-1.63-2.15-3.18-3.63-3.67a7.62,7.62,0,0,0-4.45.47l-1.62.43a8,8,0,0,1-6.27-1.46,6.48,6.48,0,0,0-4.54-1.34,8,8,0,0,0-4.56,3.51,8.67,8.67,0,0,1-3.53,3.18,8.09,8.09,0,0,1-4,.17,7.17,7.17,0,0,0-2.77,0,4.94,4.94,0,0,0-2.86,4.09,21.68,21.68,0,0,0-.24,3,24.83,24.83,0,0,1-.3,3.44,7.08,7.08,0,0,1-.62,1.94h0a15.18,15.18,0,0,1-3.55,4.3c-2.41,2.3-3.85,3.85-2.93,6.73a17.78,17.78,0,0,0,.84,2,9.28,9.28,0,0,1,1.25,4.3,9.79,9.79,0,0,1-1,3.82,5.34,5.34,0,0,0-.67,3.68c.43,1.16,1.7,1.74,3.18,2.41a12.42,12.42,0,0,1,2.95,1.66,5.78,5.78,0,0,1,2.15,5,7.5,7.5,0,0,0,.26,2.15c.77,2.54,2.15,2.56,4.94,2.38,2-.12,4.54-.3,6.07,1.94.17.28.34.58.49.88a4.5,4.5,0,0,0,.39.67,4.3,4.3,0,0,0,4.11,1.37,16.6,16.6,0,0,0,3.83-1.16l1.39-.56A5.49,5.49,0,0,1,408,330.54Z"/></g><g id="freepik--white-blood-cell--inject-10-6" data-name="freepik--white-blood-cell--inject-10"><path class="cls-8" d="M254.86,519.66c-1.77,4.52-7.88,6.69-5.64,12.31.78,1.93,2.33,3.61,2.47,5.67.18,2.73-2.15,5.51-1.05,8s4.56,2.49,6.77,4c2.56,1.78,1.58,4.1,2.48,6.45,2.34,6,8.6.11,11.44,3.78.37.48.62,1,1,1.49a5.36,5.36,0,0,0,5.25,1.44,26.26,26.26,0,0,0,5.31-2.15c3.14-1.42,5.68,2.79,8.84,1.87,2.71-.8,3.2-4.6,5.53-6.21s7.07-.67,8.47-3.49c.92-1.93-.45-4.3.3-6.32,1.1-2.93,5.89-3.19,6.67-6.2.45-1.8-.84-3.57-1.25-5.26a9,9,0,0,1,1.42-6.82c1.31-2.15,2.56-5.33.79-7.29-1.35-1.48-3.89-1.48-5.09-3.1-1.49-2,0-4.8-.13-7.27a5.21,5.21,0,0,0-5.51-4.6c-1,0-1.91.47-2.88.47-4.15,0-5.5-6.45-9.53-7.46-2.15-.56-4.3.69-6.58,1.35-4.3,1.36-6.62-3-10.92-2a9.06,9.06,0,0,0-4.93,4.3,7.66,7.66,0,0,1-2.86,3.06c-2.15.94-4.56-.17-6.66.62a5.87,5.87,0,0,0-3.23,5.18c-.21,2.16.17,4.31,0,6.46A6.56,6.56,0,0,1,254.86,519.66Z"/><path class="cls-9" d="M261.87,558.57c-1.81-3.85,3.42-9.59-.43-12a12.61,12.61,0,0,0-2.67-.93,2.78,2.78,0,0,1-2-1.78c-.32-1.55,1.48-2.75,1.74-4.3.43-2.47-3.05-4.3-2.51-6.88.42-2,3.26-2.71,3.89-4.69.53-1.66-.73-3.57,0-5.16a3.72,3.72,0,0,1,2.62-1.79,12.73,12.73,0,0,0,3.14-.92c3.27-1.85.32-5.36,2.69-7.31,2-1.71,4.73,0,6.45-2.87a20.68,20.68,0,0,1,2.45-4,2.52,2.52,0,0,1,2.58-.62,4.63,4.63,0,0,1,1.29,1,4.79,4.79,0,0,0,6.68,1l.08-.06a6,6,0,0,1,4.79-1.36,7,7,0,0,1,2.75,2.69,3.53,3.53,0,0,0,3.23,1.7,5.53,5.53,0,0,0,1.85-1.07,14.22,14.22,0,0,1,4.3-1.73c.43-.13,1-.21,1.64-.34a5,5,0,0,0-3.47-1.05c-1,0-1.91.47-2.88.47-4.15,0-5.5-6.45-9.53-7.46-2.15-.56-4.3.69-6.58,1.35-4.3,1.36-6.62-3-10.92-2a9,9,0,0,0-4.93,4.3,7.57,7.57,0,0,1-2.86,3.05c-2.15.95-4.56-.16-6.66.63a5.87,5.87,0,0,0-3.23,5.18c-.21,2.15.17,4.3,0,6.45a6.16,6.16,0,0,1-.43,1.7c-1.76,4.52-7.87,6.69-5.63,12.31.77,1.93,2.32,3.61,2.47,5.67.17,2.73-2.15,5.51-1,8s4.55,2.5,6.77,4c2.56,1.78,1.57,4.1,2.47,6.45A4.31,4.31,0,0,0,261.87,558.57Z"/><path class="cls-10" d="M276.17,564.08a5.86,5.86,0,0,1-4.67-2,8.42,8.42,0,0,1-.6-.87,6,6,0,0,0-.41-.62c-.86-1.1-2.15-1-4.3-.71-2.43.35-5.79.8-7.4-3.36a9.8,9.8,0,0,1-.36-2.75,3.8,3.8,0,0,0-1.55-3.29,10.24,10.24,0,0,0-2.56-1.18,5.67,5.67,0,0,1-5.1-6.2,5.56,5.56,0,0,1,.8-2.4,8.67,8.67,0,0,0,.64-3.1,7.92,7.92,0,0,0-1.29-3.2,15.6,15.6,0,0,1-1.09-2.16c-1.7-4.29.71-6.85,2.81-9.18a13.78,13.78,0,0,0,2.78-3.7h0a5.66,5.66,0,0,0,.34-1.42,18.53,18.53,0,0,0,0-3.16,25.8,25.8,0,0,1,0-3.29,7,7,0,0,1,3.94-6.08,8.68,8.68,0,0,1,3.65-.33,4.32,4.32,0,0,0,5.23-2.92,10.34,10.34,0,0,1,5.7-4.9,8.53,8.53,0,0,1,6.08,1.14,6,6,0,0,0,4.78.9l1.46-.52a9.76,9.76,0,0,1,5.7-.88,10.2,10.2,0,0,1,5.1,4.26c1.35,1.74,2.53,3.25,4.3,3.27a4.92,4.92,0,0,0,1.42-.24,12.74,12.74,0,0,0,1.35-.24,6.31,6.31,0,0,1,6.69,5.6,11.85,11.85,0,0,1-.26,3.09,4.88,4.88,0,0,0,.17,3.62,5.18,5.18,0,0,0,2.16,1.29,7.56,7.56,0,0,1,2.86,1.72c1.74,1.93,1.52,4.81-.67,8.6a7.91,7.91,0,0,0-1.29,6,12.07,12.07,0,0,0,.53,1.57,6.58,6.58,0,0,1,.69,4.2,6.76,6.76,0,0,1-3.85,3.87c-1.24.71-2.45,1.38-2.84,2.43a5.78,5.78,0,0,0,0,2.55,6.67,6.67,0,0,1-.3,3.88,6.42,6.42,0,0,1-5.37,2.77,8.55,8.55,0,0,0-3.46,1.05,7.81,7.81,0,0,0-2.15,2.63A7,7,0,0,1,292,563.6a6.43,6.43,0,0,1-5.06-1.12c-1.54-.81-2.53-1.31-3.63-.81l-1.25.71a18.72,18.72,0,0,1-4.3,1.61A8.65,8.65,0,0,1,276.17,564.08Zm-7.89-6.46a4.64,4.64,0,0,1,3.89,1.7,7.89,7.89,0,0,1,.56.82c.14.23.29.45.45.67a4.32,4.32,0,0,0,4.3,1.05,16.63,16.63,0,0,0,3.74-1.44l1.36-.65a5.89,5.89,0,0,1,5.52.91,4.87,4.87,0,0,0,3.44.92c1.12-.32,1.79-1.46,2.56-2.77a9.7,9.7,0,0,1,2.67-3.29,10,10,0,0,1,4.3-1.4c2-.35,3.25-.63,3.79-1.68a4.91,4.91,0,0,0,.1-2.66,5.81,5.81,0,0,1,4-7.12c1.36-.78,2.54-1.42,2.82-2.54a5.06,5.06,0,0,0-.58-2.86,11.72,11.72,0,0,1-.65-1.89,10.11,10.11,0,0,1,1.53-7.6c1.14-1.95,2.15-4.6.93-6a5.6,5.6,0,0,0-2.16-1.16,6.79,6.79,0,0,1-3.07-2,6.45,6.45,0,0,1-.58-5.27,11,11,0,0,0,.24-2.56,4.14,4.14,0,0,0-4.31-3.61,6.72,6.72,0,0,0-1.09.19,7.82,7.82,0,0,1-1.85.28h0c-2.71,0-4.41-2.15-5.89-4.11a8.39,8.39,0,0,0-4-3.5,7.89,7.89,0,0,0-4.3.79c-.51.2-1.05.41-1.57.56a8,8,0,0,1-6.45-1,6.66,6.66,0,0,0-4.64-1,8.23,8.23,0,0,0-4.3,3.83,8.51,8.51,0,0,1-3.29,3.44,8.1,8.1,0,0,1-4,.48,6.7,6.7,0,0,0-2.78.17,5,5,0,0,0-2.56,4.3,24.86,24.86,0,0,0,0,3,22.46,22.46,0,0,1,0,3.48,7.32,7.32,0,0,1-.49,2h0a14.71,14.71,0,0,1-3.23,4.58c-2.15,2.45-3.54,4.11-2.4,6.94a15.82,15.82,0,0,0,1,1.88,9.32,9.32,0,0,1,1.55,4.13,10,10,0,0,1-.73,3.89,5.33,5.33,0,0,0-.41,3.72c.52,1.12,1.83,1.61,3.36,2.15a12.85,12.85,0,0,1,3.07,1.44,5.8,5.8,0,0,1,2.5,4.88,7.47,7.47,0,0,0,.43,2.15c.94,2.46,2.38,2.39,5.09,2a19.85,19.85,0,0,1,2.18-.21Z"/></g></g><g id="freepik--Platelets--inject-10"><g id="freepik--platelets--inject-10-2" data-name="freepik--platelets--inject-10"><path class="cls-4" d="M1181.57,747.76a2.57,2.57,0,0,0-1.34,1.39,3.16,3.16,0,0,0-.34,1.27c0,1.25,1.18,2.15,2.15,2.93s1.76,2.15,1,3.35-2.58,1.36-3.74,1.4a2.19,2.19,0,0,0-1.07.22,1.39,1.39,0,0,0-.48.62,2.72,2.72,0,0,0,1,3.65c1,.44,2.15-.1,3.31,0a3.16,3.16,0,0,1,2.46,1.51,3.82,3.82,0,0,1-.63,3.36c-.36.58-.82,1.07-1.14,1.67-1.16,2,1.25,4.82,3.34,3.34a6.09,6.09,0,0,0,1.39-1.68,12.62,12.62,0,0,1,1-1.36,2.91,2.91,0,0,1,3.77-.51,4.71,4.71,0,0,1,1.22,2,4.35,4.35,0,0,0,2.5,2.21,2.15,2.15,0,0,0,2.71-1.39,2.31,2.31,0,0,0,.09-.87,7.09,7.09,0,0,0-.59-1.59,5.46,5.46,0,0,1-.73-2.43A1.86,1.86,0,0,1,1199,765c1.09-.15,1.85.93,2.77,1.32a2.49,2.49,0,0,0,3-.8c.52-.71.69-2.52,0-3.08a24.05,24.05,0,0,0-2.6-1.39,5.83,5.83,0,0,1-2.16-1.87,2.55,2.55,0,0,1,0-2.78,5.45,5.45,0,0,1,1.94-1.27,4.52,4.52,0,0,0,2.47-2.88,2.64,2.64,0,0,0-1.65-3.12,4.5,4.5,0,0,0-3.46,1.19c-2.16,1.5-4.82,1.44-4.65-1.81a7.86,7.86,0,0,0,0-2.65,2.83,2.83,0,0,0-1.87-1.93,2.34,2.34,0,0,0-2.52.84c-1,1.5,0,4-1.29,5.23a2.33,2.33,0,0,1-2.15.34,5.19,5.19,0,0,1-1.94-1.27c-.77-.73-1.67-1.62-2.7-1.38Z"/><path class="cls-11" d="M1181.57,747.76a2.57,2.57,0,0,0-1.34,1.39,3.16,3.16,0,0,0-.34,1.27c0,1.25,1.18,2.15,2.15,2.93s1.76,2.15,1,3.35-2.58,1.36-3.74,1.4a2.19,2.19,0,0,0-1.07.22,1.39,1.39,0,0,0-.48.62,2.72,2.72,0,0,0,1,3.65c1,.44,2.15-.1,3.31,0a3.16,3.16,0,0,1,2.46,1.51,3.82,3.82,0,0,1-.63,3.36c-.36.58-.82,1.07-1.14,1.67-1.16,2,1.25,4.82,3.34,3.34a6.09,6.09,0,0,0,1.39-1.68,12.62,12.62,0,0,1,1-1.36,2.91,2.91,0,0,1,3.77-.51,4.71,4.71,0,0,1,1.22,2,4.35,4.35,0,0,0,2.5,2.21,2.15,2.15,0,0,0,2.71-1.39,2.31,2.31,0,0,0,.09-.87,7.09,7.09,0,0,0-.59-1.59,5.46,5.46,0,0,1-.73-2.43A1.86,1.86,0,0,1,1199,765c1.09-.15,1.85.93,2.77,1.32a2.49,2.49,0,0,0,3-.8c.52-.71.69-2.52,0-3.08a24.05,24.05,0,0,0-2.6-1.39,5.83,5.83,0,0,1-2.16-1.87,2.55,2.55,0,0,1,0-2.78,5.45,5.45,0,0,1,1.94-1.27,4.52,4.52,0,0,0,2.47-2.88,2.64,2.64,0,0,0-1.65-3.12,4.5,4.5,0,0,0-3.46,1.19c-2.16,1.5-4.82,1.44-4.65-1.81a7.86,7.86,0,0,0,0-2.65,2.83,2.83,0,0,0-1.87-1.93,2.34,2.34,0,0,0-2.52.84c-1,1.5,0,4-1.29,5.23a2.33,2.33,0,0,1-2.15.34,5.19,5.19,0,0,1-1.94-1.27c-.77-.73-1.67-1.62-2.7-1.38Z"/></g><g id="freepik--platelets--inject-10-3" data-name="freepik--platelets--inject-10"><path class="cls-4" d="M1064.21,475.66a2.69,2.69,0,0,0-1.4,1.36,2.78,2.78,0,0,0-.39,1.25c0,1.24,1.08,2.15,2,3s1.63,2.28.86,3.42-2.62,1.22-3.81,1.2a2,2,0,0,0-1,.17,1.47,1.47,0,0,0-.52.61,2.73,2.73,0,0,0,.82,3.69c1,.48,2.15,0,3.33.13a3.07,3.07,0,0,1,2.37,1.62,3.78,3.78,0,0,1-.8,3.31c-.36.56-.86,1.05-1.22,1.61-1.25,2,1,4.88,3.2,3.5a6.45,6.45,0,0,0,1.47-1.61,11.43,11.43,0,0,1,1.11-1.29,2.89,2.89,0,0,1,3.79-.34,5,5,0,0,1,1.14,2.15,4.19,4.19,0,0,0,2.34,2.37,2.16,2.16,0,0,0,2.77-1.26,2.27,2.27,0,0,0,.14-.9,7.15,7.15,0,0,0-.5-1.63,5.22,5.22,0,0,1-.63-2.45,1.87,1.87,0,0,1,1.53-1.78c1.1,0,1.81,1,2.71,1.44a2.46,2.46,0,0,0,3-.65c.54-.69.8-2.47,0-3.08a22,22,0,0,0-2.51-1.52,5.54,5.54,0,0,1-2.15-2,2.55,2.55,0,0,1,0-2.78,5.5,5.5,0,0,1,2-1.16,4.62,4.62,0,0,0,2.62-2.75,2.64,2.64,0,0,0-1.53-3.2,4.26,4.26,0,0,0-3.48,1c-2.26,1.39-4.9,1.2-4.58-2a8.41,8.41,0,0,0,0-2.65,2.85,2.85,0,0,0-1.79-2,2.32,2.32,0,0,0-2.53.71c-1.12,1.46-.13,4-1.57,5.16a2.32,2.32,0,0,1-2.15.24,5.33,5.33,0,0,1-1.87-1.38c-.74-.75-1.62-1.68-2.65-1.51Z"/><path class="cls-11" d="M1064.21,475.66a2.69,2.69,0,0,0-1.4,1.36,2.78,2.78,0,0,0-.39,1.25c0,1.24,1.08,2.15,2,3s1.63,2.28.86,3.42-2.62,1.22-3.81,1.2a2,2,0,0,0-1,.17,1.47,1.47,0,0,0-.52.61,2.73,2.73,0,0,0,.82,3.69c1,.48,2.15,0,3.33.13a3.07,3.07,0,0,1,2.37,1.62,3.78,3.78,0,0,1-.8,3.31c-.36.56-.86,1.05-1.22,1.61-1.25,2,1,4.88,3.2,3.5a6.45,6.45,0,0,0,1.47-1.61,11.43,11.43,0,0,1,1.11-1.29,2.89,2.89,0,0,1,3.79-.34,5,5,0,0,1,1.14,2.15,4.19,4.19,0,0,0,2.34,2.37,2.16,2.16,0,0,0,2.77-1.26,2.27,2.27,0,0,0,.14-.9,7.15,7.15,0,0,0-.5-1.63,5.22,5.22,0,0,1-.63-2.45,1.87,1.87,0,0,1,1.53-1.78c1.1,0,1.81,1,2.71,1.44a2.46,2.46,0,0,0,3-.65c.54-.69.8-2.47,0-3.08a22,22,0,0,0-2.51-1.52,5.54,5.54,0,0,1-2.15-2,2.55,2.55,0,0,1,0-2.78,5.5,5.5,0,0,1,2-1.16,4.62,4.62,0,0,0,2.62-2.75,2.64,2.64,0,0,0-1.53-3.2,4.26,4.26,0,0,0-3.48,1c-2.26,1.39-4.9,1.2-4.58-2a8.41,8.41,0,0,0,0-2.65,2.85,2.85,0,0,0-1.79-2,2.32,2.32,0,0,0-2.53.71c-1.12,1.46-.13,4-1.57,5.16a2.32,2.32,0,0,1-2.15.24,5.33,5.33,0,0,1-1.87-1.38c-.74-.75-1.62-1.68-2.65-1.51Z"/></g><g id="freepik--platelets--inject-10-4" data-name="freepik--platelets--inject-10"><path class="cls-4" d="M892.23,875.13a2.73,2.73,0,0,0-1.4,1.36,2.89,2.89,0,0,0-.41,1.25c0,1.25,1.07,2.15,2,3s1.63,2.28.86,3.42-2.63,1.22-3.81,1.2a2,2,0,0,0-1.05.17,1.43,1.43,0,0,0-.52.6,2.74,2.74,0,0,0,.82,3.7c1,.48,2.15,0,3.33.13a3.07,3.07,0,0,1,2.37,1.62,3.78,3.78,0,0,1-.8,3.31c-.39.56-.86,1.05-1.23,1.61-1.24,2,1,4.88,3.19,3.51A5.94,5.94,0,0,0,897,898.4a13.84,13.84,0,0,1,1.14-1.29,2.9,2.9,0,0,1,3.79-.34,5.18,5.18,0,0,1,1.13,2.15,4.15,4.15,0,0,0,2.35,2.37A2.16,2.16,0,0,0,908.2,900a2.1,2.1,0,0,0,.13-.9,6.71,6.71,0,0,0-.51-1.63,5.37,5.37,0,0,1-.6-2.45,1.86,1.86,0,0,1,1.52-1.78c1.1,0,1.81,1,2.71,1.44a2.45,2.45,0,0,0,3-.65c.54-.69.8-2.47,0-3a19.14,19.14,0,0,0-2.52-1.55,5.51,5.51,0,0,1-2.14-2,2.47,2.47,0,0,1,0-2.78,5.29,5.29,0,0,1,2-1.16,4.63,4.63,0,0,0,2.77-2.88,2.64,2.64,0,0,0-1.51-3.2,4.41,4.41,0,0,0-3.5,1c-2.15,1.4-4.88,1.2-4.56-2a8.41,8.41,0,0,0,0-2.65,2.87,2.87,0,0,0-1.79-2,2.31,2.31,0,0,0-2.53.71c-1.14,1.46-.13,4-1.58,5.16a2.3,2.3,0,0,1-2.14.24,5.63,5.63,0,0,1-1.9-1.38c-.73-.75-1.59-1.68-2.62-1.51Z"/><path class="cls-11" d="M892.23,875.13a2.73,2.73,0,0,0-1.4,1.36,2.89,2.89,0,0,0-.41,1.25c0,1.25,1.07,2.15,2,3s1.63,2.28.86,3.42-2.63,1.22-3.81,1.2a2,2,0,0,0-1.05.17,1.43,1.43,0,0,0-.52.6,2.74,2.74,0,0,0,.82,3.7c1,.48,2.15,0,3.33.13a3.07,3.07,0,0,1,2.37,1.62,3.78,3.78,0,0,1-.8,3.31c-.39.56-.86,1.05-1.23,1.61-1.24,2,1,4.88,3.19,3.51A5.94,5.94,0,0,0,897,898.4a13.84,13.84,0,0,1,1.14-1.29,2.9,2.9,0,0,1,3.79-.34,5.18,5.18,0,0,1,1.13,2.15,4.15,4.15,0,0,0,2.35,2.37A2.16,2.16,0,0,0,908.2,900a2.1,2.1,0,0,0,.13-.9,6.71,6.71,0,0,0-.51-1.63,5.37,5.37,0,0,1-.6-2.45,1.86,1.86,0,0,1,1.52-1.78c1.1,0,1.81,1,2.71,1.44a2.45,2.45,0,0,0,3-.65c.54-.69.8-2.47,0-3a19.14,19.14,0,0,0-2.52-1.55,5.51,5.51,0,0,1-2.14-2,2.47,2.47,0,0,1,0-2.78,5.29,5.29,0,0,1,2-1.16,4.63,4.63,0,0,0,2.77-2.88,2.64,2.64,0,0,0-1.51-3.2,4.41,4.41,0,0,0-3.5,1c-2.15,1.4-4.88,1.2-4.56-2a8.41,8.41,0,0,0,0-2.65,2.87,2.87,0,0,0-1.79-2,2.31,2.31,0,0,0-2.53.71c-1.14,1.46-.13,4-1.58,5.16a2.3,2.3,0,0,1-2.14.24,5.63,5.63,0,0,1-1.9-1.38c-.73-.75-1.59-1.68-2.62-1.51Z"/></g><g id="freepik--platelets--inject-10-5" data-name="freepik--platelets--inject-10"><path class="cls-4" d="M272,321.83a2.68,2.68,0,0,0,1.42-1.33,2.93,2.93,0,0,0,.41-1.25c0-1.25-1-2.15-1.92-3s-1.61-2.3-.81-3.44,2.64-1.16,3.82-1.14a2,2,0,0,0,1.08-.15,1.41,1.41,0,0,0,.51-.6,2.7,2.7,0,0,0-.77-3.7c-1-.5-2.15,0-3.31-.18a3.14,3.14,0,0,1-2.35-1.65,3.92,3.92,0,0,1,.84-3.31c.39-.54.89-1,1.25-1.6,1.29-2-.94-4.9-3.12-3.54a6,6,0,0,0-1.5,1.59,11.47,11.47,0,0,1-1.14,1.27,2.87,2.87,0,0,1-3.72.23,5.07,5.07,0,0,1-1.1-2.15,4.27,4.27,0,0,0-2.32-2.4,2.15,2.15,0,0,0-2.79,1.22,2.24,2.24,0,0,0-.14.92,5.84,5.84,0,0,0,.48,1.64,5.28,5.28,0,0,1,.55,2.47,1.87,1.87,0,0,1-1.54,1.77c-1.1,0-1.79-1-2.67-1.49a2.48,2.48,0,0,0-3,.6c-.56.67-.84,2.46-.13,3.06a23.88,23.88,0,0,0,2.49,1.59,5.45,5.45,0,0,1,2.15,2,2.51,2.51,0,0,1-.12,2.77,5.25,5.25,0,0,1-2,1.14,4.59,4.59,0,0,0-2.71,2.74,2.64,2.64,0,0,0,1.45,3.22,4.49,4.49,0,0,0,3.52-1c2.28-1.35,4.91-1.11,4.54,2.15a8,8,0,0,0,0,2.67,2.81,2.81,0,0,0,1.76,2.15,2.29,2.29,0,0,0,2.54-.67c1.16-1.43.2-4,1.66-5.14a2.37,2.37,0,0,1,2.15-.21,5.25,5.25,0,0,1,1.85,1.42c.73.77,1.57,1.7,2.62,1.55Z"/><path class="cls-11" d="M272,321.83a2.68,2.68,0,0,0,1.42-1.33,2.93,2.93,0,0,0,.41-1.25c0-1.25-1-2.15-1.92-3s-1.61-2.3-.81-3.44,2.64-1.16,3.82-1.14a2,2,0,0,0,1.08-.15,1.41,1.41,0,0,0,.51-.6,2.7,2.7,0,0,0-.77-3.7c-1-.5-2.15,0-3.31-.18a3.14,3.14,0,0,1-2.35-1.65,3.92,3.92,0,0,1,.84-3.31c.39-.54.89-1,1.25-1.6,1.29-2-.94-4.9-3.12-3.54a6,6,0,0,0-1.5,1.59,11.47,11.47,0,0,1-1.14,1.27,2.87,2.87,0,0,1-3.72.23,5.07,5.07,0,0,1-1.1-2.15,4.27,4.27,0,0,0-2.32-2.4,2.15,2.15,0,0,0-2.79,1.22,2.24,2.24,0,0,0-.14.92,5.84,5.84,0,0,0,.48,1.64,5.28,5.28,0,0,1,.55,2.47,1.87,1.87,0,0,1-1.54,1.77c-1.1,0-1.79-1-2.67-1.49a2.48,2.48,0,0,0-3,.6c-.56.67-.84,2.46-.13,3.06a23.88,23.88,0,0,0,2.49,1.59,5.45,5.45,0,0,1,2.15,2,2.51,2.51,0,0,1-.12,2.77,5.25,5.25,0,0,1-2,1.14,4.59,4.59,0,0,0-2.71,2.74,2.64,2.64,0,0,0,1.45,3.22,4.49,4.49,0,0,0,3.52-1c2.28-1.35,4.91-1.11,4.54,2.15a8,8,0,0,0,0,2.67,2.81,2.81,0,0,0,1.76,2.15,2.29,2.29,0,0,0,2.54-.67c1.16-1.43.2-4,1.66-5.14a2.37,2.37,0,0,1,2.15-.21,5.25,5.25,0,0,1,1.85,1.42c.73.77,1.57,1.7,2.62,1.55Z"/></g><g id="freepik--platelets--inject-10-6" data-name="freepik--platelets--inject-10"><path class="cls-4" d="M371.68,600.87a2.68,2.68,0,0,0,1.48-1.25,2.8,2.8,0,0,0,.47-1.22c.13-1.25-.94-2.15-1.76-3.14s-1.51-2.37-.65-3.47,2.69-1,3.88-1a1.78,1.78,0,0,0,1.07,0,1.32,1.32,0,0,0,.54-.58,2.71,2.71,0,0,0-.58-3.73c-1-.53-2.15-.14-3.31-.34a3.07,3.07,0,0,1-2.15-1.76,3.82,3.82,0,0,1,1-3.27c.4-.52.92-1,1.31-1.53,1.39-1.91-.71-4.94-2.95-3.7a6.26,6.26,0,0,0-1.57,1.51,8.72,8.72,0,0,1-1.2,1.23,2.88,2.88,0,0,1-3.79,0,4.79,4.79,0,0,1-1-2.16,4.18,4.18,0,0,0-2.15-2.51,2.15,2.15,0,0,0-2.84,1.08,2.1,2.1,0,0,0-.19.85,6.31,6.31,0,0,0,.41,1.66,5.28,5.28,0,0,1,.43,2.48,1.85,1.85,0,0,1-1.62,1.69c-1.11,0-1.74-1.12-2.62-1.61a2.47,2.47,0,0,0-3.05.45c-.58.65-.95,2.43-.26,3.06a21.26,21.26,0,0,0,2.41,1.69,5.75,5.75,0,0,1,2,2.16,2.57,2.57,0,0,1-.28,2.75,5.54,5.54,0,0,1-2.15,1,4.54,4.54,0,0,0-2.78,2.56,2.67,2.67,0,0,0,1.32,3.31,4.42,4.42,0,0,0,3.55-.79c2.34-1.25,5-.88,4.43,2.3a7.61,7.61,0,0,0-.22,2.65,2.81,2.81,0,0,0,1.63,2.14,2.34,2.34,0,0,0,2.59-.53c1.22-1.4.38-4,1.89-5.06a2.33,2.33,0,0,1,2.15,0,5.44,5.44,0,0,1,1.78,1.49c.69.81,1.49,1.78,2.54,1.67Z"/><path class="cls-11" d="M371.68,600.87a2.68,2.68,0,0,0,1.48-1.25,2.8,2.8,0,0,0,.47-1.22c.13-1.25-.94-2.15-1.76-3.14s-1.51-2.37-.65-3.47,2.69-1,3.88-1a1.78,1.78,0,0,0,1.07,0,1.32,1.32,0,0,0,.54-.58,2.71,2.71,0,0,0-.58-3.73c-1-.53-2.15-.14-3.31-.34a3.07,3.07,0,0,1-2.15-1.76,3.82,3.82,0,0,1,1-3.27c.4-.52.92-1,1.31-1.53,1.39-1.91-.71-4.94-2.95-3.7a6.26,6.26,0,0,0-1.57,1.51,8.72,8.72,0,0,1-1.2,1.23,2.88,2.88,0,0,1-3.79,0,4.79,4.79,0,0,1-1-2.16,4.18,4.18,0,0,0-2.15-2.51,2.15,2.15,0,0,0-2.84,1.08,2.1,2.1,0,0,0-.19.85,6.31,6.31,0,0,0,.41,1.66,5.28,5.28,0,0,1,.43,2.48,1.85,1.85,0,0,1-1.62,1.69c-1.11,0-1.74-1.12-2.62-1.61a2.47,2.47,0,0,0-3.05.45c-.58.65-.95,2.43-.26,3.06a21.26,21.26,0,0,0,2.41,1.69,5.75,5.75,0,0,1,2,2.16,2.57,2.57,0,0,1-.28,2.75,5.54,5.54,0,0,1-2.15,1,4.54,4.54,0,0,0-2.78,2.56,2.67,2.67,0,0,0,1.32,3.31,4.42,4.42,0,0,0,3.55-.79c2.34-1.25,5-.88,4.43,2.3a7.61,7.61,0,0,0-.22,2.65,2.81,2.81,0,0,0,1.63,2.14,2.34,2.34,0,0,0,2.59-.53c1.22-1.4.38-4,1.89-5.06a2.33,2.33,0,0,1,2.15,0,5.44,5.44,0,0,1,1.78,1.49c.69.81,1.49,1.78,2.54,1.67Z"/></g><g id="freepik--platelets--inject-10-7" data-name="freepik--platelets--inject-10"><path class="cls-4" d="M574.56,220.26A2.57,2.57,0,0,0,576,219a2.85,2.85,0,0,0,.5-1.22c.13-1.25-.95-2.15-1.76-3.14a2.78,2.78,0,0,1-.67-3.46c.79-1,2.71-1.06,3.89-1a1.74,1.74,0,0,0,1.06,0,1.34,1.34,0,0,0,.55-.58,2.69,2.69,0,0,0-.58-3.72c-1-.56-2.15-.16-3.31-.35a3.11,3.11,0,0,1-2.15-1.76,3.84,3.84,0,0,1,1-3.27c.43-.52,1-1,1.33-1.53,1.38-1.91-.7-4.94-2.94-3.7a6.26,6.26,0,0,0-1.57,1.51,10,10,0,0,1-1.21,1.23,2.89,2.89,0,0,1-3.8,0,5,5,0,0,1-1-2.16,4.15,4.15,0,0,0-2.15-2.51,2.16,2.16,0,0,0-2.85,1.08,2.28,2.28,0,0,0-.19.85,7.86,7.86,0,0,0,.39,1.66,4.89,4.89,0,0,1,.45,2.47,1.84,1.84,0,0,1-1.63,1.7c-1.1,0-1.72-1.12-2.6-1.61a2.49,2.49,0,0,0-3.06.45c-.58.65-.94,2.41-.25,3.05a20,20,0,0,0,2.4,1.7,5.31,5.31,0,0,1,2,2.15,2.47,2.47,0,0,1-.28,2.76,4.94,4.94,0,0,1-2.15,1,4.67,4.67,0,0,0-2.77,2.58,2.65,2.65,0,0,0,1.29,3.29,4.31,4.31,0,0,0,3.57-.77c2.34-1.27,5-.89,4.43,2.3a8.37,8.37,0,0,0-.24,2.64,2.87,2.87,0,0,0,1.66,2.15,2.32,2.32,0,0,0,2.58-.54c1.23-1.39.39-4,1.89-5a2.28,2.28,0,0,1,2.15,0,5.12,5.12,0,0,1,1.81,1.49c.67.81,1.48,1.78,2.54,1.67Z"/><path class="cls-11" d="M574.56,220.26A2.57,2.57,0,0,0,576,219a2.85,2.85,0,0,0,.5-1.22c.13-1.25-.95-2.15-1.76-3.14a2.78,2.78,0,0,1-.67-3.46c.79-1,2.71-1.06,3.89-1a1.74,1.74,0,0,0,1.06,0,1.34,1.34,0,0,0,.55-.58,2.69,2.69,0,0,0-.58-3.72c-1-.56-2.15-.16-3.31-.35a3.11,3.11,0,0,1-2.15-1.76,3.84,3.84,0,0,1,1-3.27c.43-.52,1-1,1.33-1.53,1.38-1.91-.7-4.94-2.94-3.7a6.26,6.26,0,0,0-1.57,1.51,10,10,0,0,1-1.21,1.23,2.89,2.89,0,0,1-3.8,0,5,5,0,0,1-1-2.16,4.15,4.15,0,0,0-2.15-2.51,2.16,2.16,0,0,0-2.85,1.08,2.28,2.28,0,0,0-.19.85,7.86,7.86,0,0,0,.39,1.66,4.89,4.89,0,0,1,.45,2.47,1.84,1.84,0,0,1-1.63,1.7c-1.1,0-1.72-1.12-2.6-1.61a2.49,2.49,0,0,0-3.06.45c-.58.65-.94,2.41-.25,3.05a20,20,0,0,0,2.4,1.7,5.31,5.31,0,0,1,2,2.15,2.47,2.47,0,0,1-.28,2.76,4.94,4.94,0,0,1-2.15,1,4.67,4.67,0,0,0-2.77,2.58,2.65,2.65,0,0,0,1.29,3.29,4.31,4.31,0,0,0,3.57-.77c2.34-1.27,5-.89,4.43,2.3a8.37,8.37,0,0,0-.24,2.64,2.87,2.87,0,0,0,1.66,2.15,2.32,2.32,0,0,0,2.58-.54c1.23-1.39.39-4,1.89-5a2.28,2.28,0,0,1,2.15,0,5.12,5.12,0,0,1,1.81,1.49c.67.81,1.48,1.78,2.54,1.67Z"/></g></g><g id="freepik--Body--inject-10"><path class="cls-8" d="M864.89,576.1a434.1,434.1,0,0,1-10.75-52.56c-2.5-17.89-5-28-9.55-36.2s-8.75-16.21-10.41-24.13-5.23-40.86-8.43-53.53c-2.84-11.2-9.48-35.78-9.89-46.6s-5.27-27.33-17.87-42.56c-10.76-12.9-20.91-15.36-30.48-17.2a132.91,132.91,0,0,1-15.31-3.06c-8.6-2.69-7.87-7.87-7.87-12.51,4.56-.71,13.81-.63,17.2-8a105.2,105.2,0,0,0,8.13-36c1.38-19.63-5.44-13.67-3.25-27.22s2-20.16-5.95-32.76-23.29-23-45.44-23a57.83,57.83,0,0,0-9,.73c-19.36,3-39,14.81-45.38,38.94-3.18,12-4.73,49.27,26,70.74.54,12.9.64,11.65-1,17.33S669.3,302.35,652.87,309s-25,5-41.34,23.48C597.68,348.24,598.43,360.26,591,382c-3.11,9.12-12.06,23.66-18.75,39.47-9.18,21.65-19,47.09-22.35,57.23-5.82,17.54-3.16,16.81,1.08,44.45,4.8,31.14,12.47,57.12,15,74s4.48,20.71,3.29,33.31c-1,11-2.68,14.41-.58,32.41s2.15,24,4.16,33.38c.83,4.06,5.78,1.5,6.62-5,.82,10.58,1.7,16.26,3.2,17.07s5.42,0,5.89-1.61c.78,6.9,1.23,8.61,3.75,8.41a7.87,7.87,0,0,0,6.45-7.44c2.86-.56,7-1.29,7.33-12.09.39-12.77.28-22.9.28-30.71,0-9.42,0-11.68,1.77-13.31s2.15,3.53,3.2,8.9c1.53,8,2.56,12.59,6.8,15.42s6.28-1,5.8-2.83-1.33-18.44-2.41-25.81a46.15,46.15,0,0,0-7.29-19.53,50.74,50.74,0,0,1-8.19-19.36c-1.12-5.13-1.05-38.71-2.34-66.49-1-20.43-1.85-41-1.85-41,7.82-20.11,22.17-39.08,32.69-66.3,0,0,2.36,30.62,3.85,48.92.9,11-5.79,35.89-8.16,57s-3.7,47-1.54,95.46c1.8,40,6.73,96.52,7.31,114.35s-3.4,29.85-6.45,46.19a235.82,235.82,0,0,0,0,86.15c6.23,35.34,10.75,63.25,10.75,79.9s-2.15,28.24-2.15,36.56,4.15,11.59,5.33,20.79,5.06,20.8,9.81,23.77,5.93,5.63,9.2,8,7.44-1.18,7.44-1.18a5.34,5.34,0,0,0,3.72,2.66,4.29,4.29,0,0,0,4.58-2.38s1.51,4.3,3.88,5c5.52,1.68,5.33-3,5.33-3a10.76,10.76,0,0,0,5,3,4.71,4.71,0,0,0,5.36-3.57,11.08,11.08,0,0,0,9.8,2.15c6.46-1.18,5.34-10.39,3.57-15.44s-6.45-8.32-8.92-14.26-15.06-27.33-22.28-45.16c-7.66-19.06-.58-38.84.15-61.51s7-61,10.65-91.72c2.66-22.92,3.63-29.2,9.29-44.22s11.78-50.23,14-66.36c3-21.7,6-57.08,6-57.08S734.41,732,728,753.33a212,212,0,0,0-9.87,67.93c.7,24.5,4.4,34.71,7.89,63.7,3.07,25.81,5.12,44.2,4.77,51.77s-4.77,14.84-7.12,23.65,4.07,17.21,12.2,19.47,22.71,4.6,27.78,9.54,9.49,13.53,18,18.13,14.93,4.3,19.36,7.62,9.16,6.23,14.58,4.94,6.08-4.92,4.41-7.59a3.78,3.78,0,0,0,3.93-.4,4.83,4.83,0,0,0,1.79-5.79,6.24,6.24,0,0,0,1-7.25c0-3.55-.26-5.38-2.63-7.85-.9-2.45-1.66-3.57-7.85-7.48s-11.74-6.15-20.56-12.65-18.24-17.72-21.5-24.73-4-9.83-3.64-20.13,9.27-89.44,11-112.34,4.49-49,9-56.67c8.3-14.24,8.21-35.81,10-50.65s7.4-59.5,7.4-94.62-7.77-57.53-8.48-75c-.3-7.83-5.55-21-7.14-33.35a63.88,63.88,0,0,0,1.19-23c2,7.09,2.53,15.54,7.63,29.2,6,16,9.29,20.93,15.59,32.93,7.19,13.7,10.26,20,13.7,27.18,4.13,9.22,7.08,13.63,6.88,18.26s-3.65,11.76-2.73,19.63,3.87,15.06,4.63,19.36a71.43,71.43,0,0,1,0,15c-.37,5.61-2.28,6.86-3.55,12s1.65,6.9,1.65,6.9c.84,4.8,4,4.93,4,4.93a7.77,7.77,0,0,0,1.57,6.45c1.44,1.81,4.13,1,6.09-.73a57.1,57.1,0,0,0,5.42-6.6,5.23,5.23,0,0,0,3.4,5.7c2.77,1,11.54-12.52,14-19.19a98,98,0,0,0,6.1-29.61C877.64,612.08,868.31,587.28,864.89,576.1Z"/><path class="cls-10" d="M869.43,585.77c-1.4-4.19-2.6-7.8-3.46-10.62a430.66,430.66,0,0,1-10.76-52.39c-2.58-18.49-5.2-28.41-9.7-36.56-4.66-8.6-8.6-16.17-10.28-23.83-.34-1.59-.83-4.3-1.46-7.59-2.45-13.25-3.89-35.59-6.75-45.46-3.14-10.92-9.68-36-10.09-46.93v-1.83c-.38-10.75-5.91-26.68-18.06-41.35-10.58-12.91-20.35-15.51-31.08-17.51-1.85-.36-3.57-.64-5.22-.9a72.07,72.07,0,0,1-10-2.15c-7.23-2.15-7.18-6.09-7.14-10.5h0l1.18-.12c5.08-.59,12.75-1.47,16-8.37,2-4.3,6.84-16.32,8.24-36.39.73-10.62-.9-14.08-2.15-16.86-1.12-2.34-2-4.3-1-10.26,2.3-14.17,1.74-21-6.11-33.52-9.33-14.91-26.24-23.45-46.37-23.45a58.89,58.89,0,0,0-9.18.74c-23.31,3.67-40.6,18.51-46.24,39.72-3.1,11.65-4.92,49.66,26,71.59v2.32c.41,9.14.41,9.14-.77,13.31l-.24.84c-1.29,4.61-13.93,12.37-32.26,19.81-4.09,1.68-7.61,2.8-11,3.87-10.22,3.25-18.3,5.81-30.71,19.89-10,11.34-12.52,20.89-15.76,33-1.32,4.91-2.8,10.48-5,16.78a153.79,153.79,0,0,1-8.24,17.59c-3.37,6.6-7.23,14.07-10.49,21.81-9.19,21.63-19,47.12-22.37,57.31-4.56,13.68-4,16.73-1.61,29.57.73,4,1.63,8.88,2.64,15.38,2.78,18.06,6.45,34.06,9.68,48.17,2.3,10.07,4.3,18.73,5.4,25.81.67,4.3,1.29,7.87,1.83,10.86a68.14,68.14,0,0,1,1.44,22.19c-.22,2.45-.48,4.52-.73,6.45a91.27,91.27,0,0,0,.15,26.2c.66,5.83,1.14,10.39,1.52,14.23a170.26,170.26,0,0,0,2.65,19.21,3,3,0,0,0,3,2.82,5.44,5.44,0,0,0,4-2.88c.95,9.78,1.91,12.17,3.33,12.9a7,7,0,0,0,5.25-.17l.35-.15c.6,4.83,1.33,7.37,4.64,7.22A8.87,8.87,0,0,0,600,708c2.92-.65,7.1-2.28,7.4-12.9s.3-19.36.28-26.43v-4.31c0-8.6,0-10.88,1.18-12.23a33,33,0,0,1,1.12,5.11c.15.93.32,1.92.51,2.93,1.57,8.24,2.69,13,7.28,16.11a4.68,4.68,0,0,0,5.67.47,4.47,4.47,0,0,0,1.77-4.47c-.18-.71-.5-4.93-.82-9-.43-5.62-1-12.61-1.55-16.76a47.39,47.39,0,0,0-7.44-19.93,49.32,49.32,0,0,1-8.07-18.93c-.6-2.73-.86-14.58-1.16-28.32-.28-11.94-.58-25.49-1.16-38-.9-19.21-1.74-38.47-1.85-40.86a240.62,240.62,0,0,1,13.79-27.59,329.29,329.29,0,0,0,17.2-34.2c.71,9.23,2.37,30.35,3.49,44.31.51,6.25-1.57,17.57-3.77,29.57-1.68,9-3.4,18.38-4.3,27.26-2.15,19.12-3.85,44-1.53,95.62,1,22.23,3,50.11,4.61,72.47,1.31,18.22,2.43,34,2.68,41.88.46,13.22-1.72,23.48-4,34.41-.8,3.69-1.6,7.52-2.35,11.63a237.06,237.06,0,0,0,0,86.54c6.58,37.36,10.75,63.72,10.75,79.7,0,9.7-.71,17.81-1.29,24.3-.43,4.71-.77,8.76-.77,12.26a27.7,27.7,0,0,0,2.3,11.1,37.1,37.1,0,0,1,2.8,9.81c1.27,9.78,5.2,21.37,10.3,24.53a27,27,0,0,1,5.57,4.71,24.34,24.34,0,0,0,3.54,3.27,6.9,6.9,0,0,0,7.83-.56,5.86,5.86,0,0,0,3.9,2.15,5.64,5.64,0,0,0,4.43-1.31,7.3,7.3,0,0,0,3.8,4,9.74,9.74,0,0,0,2.46.41,4.3,4.3,0,0,0,2.68-.84,4,4,0,0,0,1.16-1.55,9.49,9.49,0,0,0,4.3,2,5.66,5.66,0,0,0,6-3,13.26,13.26,0,0,0,9.53,1.44,6.43,6.43,0,0,0,4.58-3.16c2.15-3.68,1.22-9.67-.19-13.7a25.68,25.68,0,0,0-4.31-7,30.42,30.42,0,0,1-4.6-7.29c-.88-2.15-3.16-6.45-6.06-11.91a365.2,365.2,0,0,1-16.22-33.14c-5.14-12.91-3.46-26.2-1.7-40.37.84-6.65,1.7-13.53,1.94-20.71.45-15.05,3.53-37.74,6.45-59.59,1.44-10.76,3-21.92,4.15-32,2.6-22.32,3.53-28.79,9.23-44,5.85-15.53,12-51.62,14-66.67s4.3-37.55,5.31-49.25c3.42,19.35,11.51,69.55,6.45,86.39-7.39,24.8-10.55,46.49-9.93,68.28a244.15,244.15,0,0,0,4,37c1.2,7.39,2.58,15.76,3.92,26.82,2.79,23.65,5.09,43.83,4.75,51.61a44.4,44.4,0,0,1-3.72,13.61q-1.93,4.86-3.38,9.89c-2.63,9.81,4.69,18.44,12.9,20.78,2,.56,4.3,1.14,6.8,1.72,7.53,1.81,16.88,4,20.51,7.57a58.08,58.08,0,0,1,4.91,5.72,44.75,44.75,0,0,0,13.29,12.6,52.72,52.72,0,0,0,11.63,4.46,22.14,22.14,0,0,1,7.58,3.05c4.29,3.25,9.5,6.58,15.46,5.14a7.34,7.34,0,0,0,5.67-4.11,5,5,0,0,0,.24-3.09,5.75,5.75,0,0,0,2.75-.93,5.9,5.9,0,0,0,2.45-6.45,7.32,7.32,0,0,0,.84-7.76,10.2,10.2,0,0,0-2.77-8.16c-1-2.58-2-3.84-8.19-7.8-2.26-1.44-4.3-2.63-6.65-3.87a116.72,116.72,0,0,1-13.87-8.74c-8.32-6.15-17.79-17-21.05-24.3-3-6.67-3.94-9.26-3.55-19.65.17-5.16,2.53-28,5-52s5.07-49,5.91-60.32c2.15-30.7,5.32-50.14,8.86-56.2,6.69-11.46,8-27.14,9.16-41,.31-3.59.61-7,1-10.08l.3-2.61c2.15-17.61,7.1-58.84,7.1-92.07a285.16,285.16,0,0,0-5.4-52.45,180.76,180.76,0,0,1-3-22.47,77.69,77.69,0,0,0-3.18-15.38,147.64,147.64,0,0,1-4-17.87,87.37,87.37,0,0,0,1.61-11.27,123.38,123.38,0,0,0,5.12,17.79,178,178,0,0,0,12.2,26.56c1.05,2,2.15,4.08,3.46,6.45,7,13.27,10.06,19.55,13.68,27.12q1.57,3.51,2.9,6.21c2.49,5.23,4,8.39,3.87,11.57a31,31,0,0,1-1.12,5.74,38.62,38.62,0,0,0-1.59,14,85.1,85.1,0,0,0,3,13.46,55.24,55.24,0,0,1,1.57,6,69.64,69.64,0,0,1,0,14.86,17.73,17.73,0,0,1-1.76,6.77,30.81,30.81,0,0,0-1.76,5c-1.16,4.64.81,7,1.74,7.76a6.44,6.44,0,0,0,3.72,5.09,9,9,0,0,0,2,6.35,3.68,3.68,0,0,0,2.64,1.42,6.92,6.92,0,0,0,5-2,37.58,37.58,0,0,0,3.91-4.54,6.07,6.07,0,0,0,3.83,3.85C861.71,673,871,657.13,873,651.73a99.47,99.47,0,0,0,5.79-30.34C878.76,613.77,873.49,598.25,869.43,585.77ZM871,650.92c-2.71,7.31-10.75,18.56-12.64,18.53h0a4.09,4.09,0,0,1-2.71-4.51,1.05,1.05,0,0,0-.35-1,20.9,20.9,0,0,0,2.69-4,23.63,23.63,0,0,0,1.85-4.54H860a5.12,5.12,0,0,0,3.76.41,4.53,4.53,0,0,0,2.56-2.77,16.22,16.22,0,0,0,.8-3.21c.36-2.15.49-4.3.73-6.23s.56-4.09.88-6.13a123.64,123.64,0,0,1,2.5-12.22,94.79,94.79,0,0,0-3.53,12q-.68,3.06-1.18,6.15c-.35,2.07-.58,4.13-1,6.13a14.39,14.39,0,0,1-.86,2.8,2.85,2.85,0,0,1-1.49,1.72,3.47,3.47,0,0,1-2.28-.33,4.21,4.21,0,0,1-1.67-1.85,15.71,15.71,0,0,1-1.32-5.65c-.17-2-.19-4.07-.17-6.13a26.33,26.33,0,0,0-.47-6.45,31.93,31.93,0,0,0-2.15-6.09,51.77,51.77,0,0,1-4.3-11.42,14.55,14.55,0,0,0-.18-1.46v-1.48a17.26,17.26,0,0,1,.39-3c.32-2.16.62-4.13.82-6.22a21.85,21.85,0,0,0-1.72-12.3,22.6,22.6,0,0,1,.69,12.17c-.3,2-.69,4.08-1.12,6.11-.24,1-.41,2.15-.56,3.16v1.63a8.33,8.33,0,0,0,.11,1.64,45.56,45.56,0,0,0,4.15,12,33.22,33.22,0,0,1,1.85,5.75,24.44,24.44,0,0,1,.32,6,61.12,61.12,0,0,0,.28,6.34,17.84,17.84,0,0,0,1.63,6.45,6.06,6.06,0,0,0,2.15,2.37,44,44,0,0,0-2.53,4.3c-.74,1.42-1.4,2.84-2.05,4.3h0a1.06,1.06,0,0,0-1.27.39,57.88,57.88,0,0,1-5.24,6.45,5,5,0,0,1-3.38,1.48,1.56,1.56,0,0,1-1.14-.62,6.47,6.47,0,0,1-1.38-5.53,1.12,1.12,0,0,0-.19-.9,1.06,1.06,0,0,0-.32-.28c1.44-2.47,2.9-5,4.3-7.44a43.43,43.43,0,0,0,3.95-8.93,44.74,44.74,0,0,0,.61-9.74,63.28,63.28,0,0,0-1-9.61c.19,3.2.23,6.45.17,9.63a51,51,0,0,1-.82,9.47,45.85,45.85,0,0,1-3.63,8.79c-1.25,2.58-2.54,5.14-3.68,7.79a.69.69,0,0,0-.36-.11s-2.31-.24-3-4a1.27,1.27,0,0,0-.5-.74,2.42,2.42,0,0,1-.49-.47,10.26,10.26,0,0,1,.71-2.66A33,33,0,0,1,840.2,653a53.49,53.49,0,0,0,3.62-7.7,24.21,24.21,0,0,0,1.11-8.5,53.07,53.07,0,0,0-1.11-8.41c.21,2.82.27,5.64.3,8.44a24.87,24.87,0,0,1-1.34,8.15,63.6,63.6,0,0,1-3.33,7.68,18.88,18.88,0,0,0-1.94,6.58,5.93,5.93,0,0,1-.51-5,27.16,27.16,0,0,1,1.65-4.69,20.19,20.19,0,0,0,1.94-7.62,69.15,69.15,0,0,0,0-15.22,57.93,57.93,0,0,0-1.61-6.22,80.67,80.67,0,0,1-3-13.12,36.13,36.13,0,0,1,1.55-13.27,34.83,34.83,0,0,0,1.18-6.17c.15-3.72-1.53-7.25-4.09-12.58-.86-1.81-1.82-3.83-2.9-6.19-3.61-7.62-6.73-13.92-13.72-27.21-1.25-2.43-2.41-4.54-3.46-6.45a175.82,175.82,0,0,1-12.07-26.28,128.66,128.66,0,0,1-5.81-21.2c-.49-2.5-.94-4.69-1.5-6.82-.88-6.15-1.89-9.62-2.75-13.91a94.89,94.89,0,0,0,2.49-15.88,120.51,120.51,0,0,0,.24-15.67,44.5,44.5,0,0,0,8.77-21.51,63.52,63.52,0,0,0,.48-11.94c-.26-4-.67-7.74-1.06-11.65a158.71,158.71,0,0,0-3.87-23.12c-.93-3.79-2-7.55-3.16-11.27s-2.41-7.4-3.76-11.05c1.87,7.54,3.61,15.05,5,22.73a216.28,216.28,0,0,1,2.79,22.71l.82,11.57a60.28,60.28,0,0,1-.56,11.31,42.85,42.85,0,0,1-8.13,20.65l-.38.47v.56A140.39,140.39,0,0,1,792.5,451a122.18,122.18,0,0,1-1.44,15.87v.28a70.87,70.87,0,0,1,1.59,12.9v.26a2.29,2.29,0,0,1,0,.37v.1h0a63.28,63.28,0,0,1-1.22,22.2,1,1,0,0,0,0,.34,142,142,0,0,0,4,18.35,80.69,80.69,0,0,1,3.1,14.9,184.06,184.06,0,0,0,3.09,22.91A282,282,0,0,1,807,611.6c0,33.1-5,74.24-7.07,91.81l-.33,2.6c-.36,3.14-.64,6.56-.94,10.18-1.17,13.59-2.46,29-8.88,40-3.77,6.45-6.85,25.68-9.17,57.12-.84,11.36-3.42,36.24-5.91,60.21s-4.84,46.89-5,52.11c-.39,10.29.43,13.27,3.74,20.63s13.16,18.82,21.74,25.16a125.3,125.3,0,0,0,14.09,8.86c2.15,1.25,4.3,2.41,6.45,3.81,6,3.82,6.62,4.77,7.42,6.94a.8.8,0,0,0,.24.39c2.15,2.15,2.32,3.7,2.32,7.12a1.16,1.16,0,0,0,.17.6,5.11,5.11,0,0,1-.84,5.87,1.06,1.06,0,0,0-.19,1.29,3.73,3.73,0,0,1-1.4,4.3,2.76,2.76,0,0,1-2.84.39,1.08,1.08,0,0,0-1.44,1.51,3.46,3.46,0,0,1,.43,3.16,5.67,5.67,0,0,1-4.19,2.81c-5.06,1.21-9.55-1.69-13.68-4.77a24,24,0,0,0-8.28-3.42,49.31,49.31,0,0,1-11.19-4.3,43.31,43.31,0,0,1-12.64-12,58.15,58.15,0,0,0-5-5.79c-4.06-4-13.33-6.17-21.5-8.13-2.47-.58-4.8-1.14-6.73-1.7-7.29-2.15-13.74-9.61-11.47-18.15a91.9,91.9,0,0,1,3.32-9.67,46.65,46.65,0,0,0,3.84-14.29c.35-8-2-28.23-4.77-52-1.33-11.1-2.71-19.49-3.91-26.91a242.9,242.9,0,0,1-4-36.69c-.63-21.5,2.51-43,9.83-67.59,6.45-21.5-7.25-92.17-7.83-95.19a1,1,0,0,0-1.12-.86,1.07,1.07,0,0,0-1,1c0,.37-3.08,35.59-6,57-2,14.95-8.15,50.77-13.94,66.13s-6.71,21.93-9.35,44.45c-1.19,10.13-2.69,21.25-4.15,32-3,21.91-6,44.56-6.46,59.83-.23,7.07-1.07,13.89-1.91,20.49-1.8,14.46-3.52,28.13,1.85,41.45a367,367,0,0,0,16.3,33.35c2.86,5.36,5.12,9.6,6,11.72a32.06,32.06,0,0,0,4.9,7.79,24.5,24.5,0,0,1,4,6.45c1.36,3.89,2,9.08.35,11.91a4.33,4.33,0,0,1-3.1,2.16A10.14,10.14,0,0,1,699,1051a1.09,1.09,0,0,0-1.55,0,1,1,0,0,0-.25.47,3.59,3.59,0,0,1-4.18,2.75,9.51,9.51,0,0,1-4.3-2.65,1.09,1.09,0,0,0-1.2-.23,1.06,1.06,0,0,0-.65,1,2.54,2.54,0,0,1-.75,1.83,4,4,0,0,1-3.21,0c-1.31-.39-2.62-2.89-3.13-4.3a1.16,1.16,0,0,0-1-.72h0a1.06,1.06,0,0,0-1,.69,3.24,3.24,0,0,1-3.49,1.7,4.3,4.3,0,0,1-2.88-2.15,1.08,1.08,0,0,0-1.45-.46,1.28,1.28,0,0,0-.21.14s-3.52,3-6.1,1.14a23.92,23.92,0,0,1-3.27-3,29.55,29.55,0,0,0-6-5.06c-4.3-2.68-8.13-13.78-9.31-23a39.52,39.52,0,0,0-2.93-10.32,25.42,25.42,0,0,1-2.41-10.32c0-3.4.35-7.42.76-12.06.58-6.46,1.31-14.72,1.31-24.5,0-16.15-4.09-42.6-10.76-80.07a234.25,234.25,0,0,1,0-85.78c.74-4.07,1.53-7.9,2.33-11.6,2.32-11,4.51-21.33,4-34.84-.26-7.93-1.4-23.65-2.71-41.93-1.59-22.37-3.59-50.2-4.58-72.41-2.3-51.62-.64-76.24,1.5-95.29,1-8.8,2.71-18.11,4.31-27.12,2.32-12.67,4.3-23.66,3.8-30.11-1.2-14.73-3-37.47-3.59-45.75,0-5.54,4.63-11.07,7.27-15.24a145.58,145.58,0,0,0,7.38-12.9,94.64,94.64,0,0,0,5.72-13.86,34.57,34.57,0,0,0,1.87-14.86,56.19,56.19,0,0,1-4.3,14c-1.92,4.48-4,8.91-6.24,13.27s-4.43,8.61-6.58,13c-1.42,2.78-5.38,8.35-7.18,12.67a.82.82,0,0,0-.24.37,301.77,301.77,0,0,1-18.71,38.23,239.14,239.14,0,0,0-14,28.07.79.79,0,0,0,0,.43s.88,20.56,1.85,41c.58,12.49.88,26,1.16,37.94.3,14.43.56,25.8,1.21,28.73a51.34,51.34,0,0,0,8.34,19.59,45.35,45.35,0,0,1,7.14,19.14c.58,4.06,1.12,11,1.53,16.6a83.63,83.63,0,0,0,.9,9.38,2.4,2.4,0,0,1-1,2.15c-1,.71-2.3.13-3.22-.49-3.89-2.61-4.86-6.85-6.35-14.74-.19-1-.36-2-.53-2.9-.8-4.6-1.21-6.64-2.63-7.12a1.84,1.84,0,0,0-1.85.54c-2.15,2-2.15,4.82-2.15,14.09v4.3c0,7,0,15.83-.28,26.36-.28,9.85-3.65,10.52-6.45,11.06a1.12,1.12,0,0,0-.58.32,8.13,8.13,0,0,1-.49-1.27,17.3,17.3,0,0,1-.45-2.47c-.24-1.68-.39-3.36-.5-5-.22-3.37-.41-6.75-.5-10.12l-.4-10.18c-.16-3.37-.28-6.77-.54-10.17-.32,3.4-.45,6.8-.54,10.19s0,6.8,0,10.2a77.78,77.78,0,0,0,.84,10.19c.24,1.68.49,3.38.88,5.06a21.13,21.13,0,0,0,.78,2.45,5.75,5.75,0,0,0,.73,1.33,1.11,1.11,0,0,0-.2.52,6.82,6.82,0,0,1-5.48,6.45c-1.36,0-1.79-.24-2.62-7.44a1.09,1.09,0,0,0-1-1h-.13c-.11-6.45-.45-12.75-.93-19.12-.19-3.35-.53-6.68-.83-10s-.76-6.69-1.34-10c0,3.37,0,6.73.15,10.11s.35,6.73.71,10.06c.54,6.45,1.23,12.69,2.15,19a1.06,1.06,0,0,0-.88.77c0,.13-.3.43-1,.72a5,5,0,0,1-3.37.25c-1-.64-1.87-6.11-2.65-16.23a1.07,1.07,0,0,0-1-1c.37-4.71.37-9.42.28-14.13a150.57,150.57,0,0,0-1.05-15.16,148.19,148.19,0,0,0-.35,15.2c.13,4.71.37,9.42,1,14.11a1.11,1.11,0,0,0-1,.92c-.54,4.09-2.71,5.94-3.68,6-.38,0-.68-.34-.83-1.1a166.71,166.71,0,0,1-2.61-19c-.4-3.83-.86-8.41-1.55-14.26a87.64,87.64,0,0,1-.12-25.67c.23-2,.49-4.05.73-6.46A70.74,70.74,0,0,0,569,607.15c-.51-3-1.14-6.45-1.8-10.75-1.12-7.14-3.12-15.85-5.42-25.94-3.25-14.08-6.91-30.11-9.66-48-1-6.45-1.91-11.46-2.67-15.44-2.34-12.71-2.81-15.36,1.53-28.5,3.4-10.17,13.18-35.57,22.33-57.16,3.24-7.68,7-15,10.43-21.66a156.41,156.41,0,0,0,8.36-17.89c2.15-6.45,3.68-12,5-16.92,3.29-12.28,5.68-21.17,15.29-32.11,12-13.64,19.85-16.13,29.74-19.36a109.64,109.64,0,0,0,11.21-3.91c9.33-3.81,31.27-13.48,33.44-21.23l.24-.84c1.27-4.51,1.27-4.68.86-14v-2.86a1.11,1.11,0,0,0-.47-.83c-30.35-21.19-28.59-58.26-25.55-69.58,7.78-29.33,33.7-36.56,44.49-38.15a58.22,58.22,0,0,1,8.84-.71c19.36,0,35.61,8.18,44.54,22.46,7.55,12,8.06,18.23,5.81,32-1.1,6.73,0,8.94,1.2,11.52s2.73,5.72,2,15.79c-1.37,19.7-6.08,31.46-8,35.61-2.73,5.83-9.42,6.58-14.3,7.14a12.78,12.78,0,0,0-2.15.28,1.09,1.09,0,0,0-.91,1.06v1c0,4.31,0,9.83,8.61,12.57a69,69,0,0,0,10.28,2.14c1.63.28,3.35.56,5.16.91,10.34,1.93,19.72,4.54,29.82,16.75,11.68,14.13,17.21,29.62,17.58,40.09v1.83c.4,11.07,6.17,36,9.59,47.07,3.27,10.58,4.84,32.48,7.29,45.62.62,3.35,1.12,6,1.46,7.63,1.68,8,5.74,15.79,10.52,24.43,4.3,7.89,6.9,17.62,9.44,35.83a428.13,428.13,0,0,0,10.75,52.71c.84,2.84,2.15,6.45,3.46,10.76,3.9,11.67,9.23,27.67,9.31,34.92A96.43,96.43,0,0,1,871,650.92Z"/><path class="cls-12" d="M869.43,585.77c-1.4-4.19-2.6-7.8-3.46-10.62a430.66,430.66,0,0,1-10.76-52.39c-2.58-18.49-5.2-28.41-9.7-36.56-4.66-8.6-8.6-16.17-10.28-23.83-.34-1.59-.83-4.3-1.46-7.59-2.45-13.25-3.89-35.59-6.75-45.46-3.14-10.92-9.68-36-10.09-46.93v-1.83c-.38-10.75-5.91-26.68-18.06-41.35-10.58-12.91-20.35-15.51-31.08-17.51-1.85-.36-3.57-.64-5.22-.9a72.07,72.07,0,0,1-10-2.15c-7.23-2.15-7.18-6.09-7.14-10.5h0l1.18-.12c5.08-.59,12.75-1.47,16-8.37,2-4.3,6.84-16.32,8.24-36.39.73-10.62-.9-14.08-2.15-16.86-1.12-2.34-2-4.3-1-10.26,2.3-14.17,1.74-21-6.11-33.52-9.33-14.91-26.24-23.45-46.37-23.45a58.89,58.89,0,0,0-9.18.74c-23.31,3.67-40.6,18.51-46.24,39.72-3.1,11.65-4.92,49.66,26,71.59v2.32c.41,9.14.41,9.14-.77,13.31l-.24.84c-1.29,4.61-13.93,12.37-32.26,19.81-4.09,1.68-7.61,2.8-11,3.87-10.22,3.25-18.3,5.81-30.71,19.89-10,11.34-12.52,20.89-15.76,33-1.32,4.91-2.8,10.48-5,16.78a153.79,153.79,0,0,1-8.24,17.59c-3.37,6.6-7.23,14.07-10.49,21.81-9.19,21.63-19,47.12-22.37,57.31-4.56,13.68-4,16.73-1.61,29.57.73,4,1.63,8.88,2.64,15.38,2.78,18.06,6.45,34.06,9.68,48.17,2.3,10.07,4.3,18.73,5.4,25.81.67,4.3,1.29,7.87,1.83,10.86a68.14,68.14,0,0,1,1.44,22.19c-.22,2.45-.48,4.52-.73,6.45a91.27,91.27,0,0,0,.15,26.2c.66,5.83,1.14,10.39,1.52,14.23a170.26,170.26,0,0,0,2.65,19.21,3,3,0,0,0,3,2.82,5.44,5.44,0,0,0,4-2.88c.95,9.78,1.91,12.17,3.33,12.9a7,7,0,0,0,5.25-.17l.35-.15c.6,4.83,1.33,7.37,4.64,7.22A8.87,8.87,0,0,0,600,708c2.92-.65,7.1-2.28,7.4-12.9s.3-19.36.28-26.43v-4.31c0-8.6,0-10.88,1.18-12.23a33,33,0,0,1,1.12,5.11c.15.93.32,1.92.51,2.93,1.57,8.24,2.69,13,7.28,16.11a4.68,4.68,0,0,0,5.67.47,4.47,4.47,0,0,0,1.77-4.47c-.18-.71-.5-4.93-.82-9-.43-5.62-1-12.61-1.55-16.76a47.39,47.39,0,0,0-7.44-19.93,49.32,49.32,0,0,1-8.07-18.93c-.6-2.73-.86-14.58-1.16-28.32-.28-11.94-.58-25.49-1.16-38-.9-19.21-1.74-38.47-1.85-40.86a240.62,240.62,0,0,1,13.79-27.59,329.29,329.29,0,0,0,17.2-34.2c.71,9.23,2.37,30.35,3.49,44.31.51,6.25-1.57,17.57-3.77,29.57-1.68,9-3.4,18.38-4.3,27.26-2.15,19.12-3.85,44-1.53,95.62,1,22.23,3,50.11,4.61,72.47,1.31,18.22,2.43,34,2.68,41.88.46,13.22-1.72,23.48-4,34.41-.8,3.69-1.6,7.52-2.35,11.63a237.06,237.06,0,0,0,0,86.54c6.58,37.36,10.75,63.72,10.75,79.7,0,9.7-.71,17.81-1.29,24.3-.43,4.71-.77,8.76-.77,12.26a27.7,27.7,0,0,0,2.3,11.1,37.1,37.1,0,0,1,2.8,9.81c1.27,9.78,5.2,21.37,10.3,24.53a27,27,0,0,1,5.57,4.71,24.34,24.34,0,0,0,3.54,3.27,6.9,6.9,0,0,0,7.83-.56,5.86,5.86,0,0,0,3.9,2.15,5.64,5.64,0,0,0,4.43-1.31,7.3,7.3,0,0,0,3.8,4,9.74,9.74,0,0,0,2.46.41,4.3,4.3,0,0,0,2.68-.84,4,4,0,0,0,1.16-1.55,9.49,9.49,0,0,0,4.3,2,5.66,5.66,0,0,0,6-3,13.26,13.26,0,0,0,9.53,1.44,6.43,6.43,0,0,0,4.58-3.16c2.15-3.68,1.22-9.67-.19-13.7a25.68,25.68,0,0,0-4.31-7,30.42,30.42,0,0,1-4.6-7.29c-.88-2.15-3.16-6.45-6.06-11.91a365.2,365.2,0,0,1-16.22-33.14c-5.14-12.91-3.46-26.2-1.7-40.37.84-6.65,1.7-13.53,1.94-20.71.45-15.05,3.53-37.74,6.45-59.59,1.44-10.76,3-21.92,4.15-32,2.6-22.32,3.53-28.79,9.23-44,5.85-15.53,12-51.62,14-66.67s4.3-37.55,5.31-49.25c3.42,19.35,11.51,69.55,6.45,86.39-7.39,24.8-10.55,46.49-9.93,68.28a244.15,244.15,0,0,0,4,37c1.2,7.39,2.58,15.76,3.92,26.82,2.79,23.65,5.09,43.83,4.75,51.61a44.4,44.4,0,0,1-3.72,13.61q-1.93,4.86-3.38,9.89c-2.63,9.81,4.69,18.44,12.9,20.78,2,.56,4.3,1.14,6.8,1.72,7.53,1.81,16.88,4,20.51,7.57a58.08,58.08,0,0,1,4.91,5.72,44.75,44.75,0,0,0,13.29,12.6,52.72,52.72,0,0,0,11.63,4.46,22.14,22.14,0,0,1,7.58,3.05c4.29,3.25,9.5,6.58,15.46,5.14a7.34,7.34,0,0,0,5.67-4.11,5,5,0,0,0,.24-3.09,5.75,5.75,0,0,0,2.75-.93,5.9,5.9,0,0,0,2.45-6.45,7.32,7.32,0,0,0,.84-7.76,10.2,10.2,0,0,0-2.77-8.16c-1-2.58-2-3.84-8.19-7.8-2.26-1.44-4.3-2.63-6.65-3.87a116.72,116.72,0,0,1-13.87-8.74c-8.32-6.15-17.79-17-21.05-24.3-3-6.67-3.94-9.26-3.55-19.65.17-5.16,2.53-28,5-52s5.07-49,5.91-60.32c2.15-30.7,5.32-50.14,8.86-56.2,6.69-11.46,8-27.14,9.16-41,.31-3.59.61-7,1-10.08l.3-2.61c2.15-17.61,7.1-58.84,7.1-92.07a285.16,285.16,0,0,0-5.4-52.45,180.76,180.76,0,0,1-3-22.47,77.69,77.69,0,0,0-3.18-15.38,147.64,147.64,0,0,1-4-17.87,87.37,87.37,0,0,0,1.61-11.27,123.38,123.38,0,0,0,5.12,17.79,178,178,0,0,0,12.2,26.56c1.05,2,2.15,4.08,3.46,6.45,7,13.27,10.06,19.55,13.68,27.12q1.57,3.51,2.9,6.21c2.49,5.23,4,8.39,3.87,11.57a31,31,0,0,1-1.12,5.74,38.62,38.62,0,0,0-1.59,14,85.1,85.1,0,0,0,3,13.46,55.24,55.24,0,0,1,1.57,6,69.64,69.64,0,0,1,0,14.86,17.73,17.73,0,0,1-1.76,6.77,30.81,30.81,0,0,0-1.76,5c-1.16,4.64.81,7,1.74,7.76a6.44,6.44,0,0,0,3.72,5.09,9,9,0,0,0,2,6.35,3.68,3.68,0,0,0,2.64,1.42,6.92,6.92,0,0,0,5-2,37.58,37.58,0,0,0,3.91-4.54,6.07,6.07,0,0,0,3.83,3.85C861.71,673,871,657.13,873,651.73a99.47,99.47,0,0,0,5.79-30.34C878.76,613.77,873.49,598.25,869.43,585.77ZM871,650.92c-2.71,7.31-10.75,18.56-12.64,18.53h0a4.09,4.09,0,0,1-2.71-4.51,1.05,1.05,0,0,0-.35-1,20.9,20.9,0,0,0,2.69-4,23.63,23.63,0,0,0,1.85-4.54H860a5.12,5.12,0,0,0,3.76.41,4.53,4.53,0,0,0,2.56-2.77,16.22,16.22,0,0,0,.8-3.21c.36-2.15.49-4.3.73-6.23s.56-4.09.88-6.13a123.64,123.64,0,0,1,2.5-12.22,94.79,94.79,0,0,0-3.53,12q-.68,3.06-1.18,6.15c-.35,2.07-.58,4.13-1,6.13a14.39,14.39,0,0,1-.86,2.8,2.85,2.85,0,0,1-1.49,1.72,3.47,3.47,0,0,1-2.28-.33,4.21,4.21,0,0,1-1.67-1.85,15.71,15.71,0,0,1-1.32-5.65c-.17-2-.19-4.07-.17-6.13a26.33,26.33,0,0,0-.47-6.45,31.93,31.93,0,0,0-2.15-6.09,51.77,51.77,0,0,1-4.3-11.42,14.55,14.55,0,0,0-.18-1.46v-1.48a17.26,17.26,0,0,1,.39-3c.32-2.16.62-4.13.82-6.22a21.85,21.85,0,0,0-1.72-12.3,22.6,22.6,0,0,1,.69,12.17c-.3,2-.69,4.08-1.12,6.11-.24,1-.41,2.15-.56,3.16v1.63a8.33,8.33,0,0,0,.11,1.64,45.56,45.56,0,0,0,4.15,12,33.22,33.22,0,0,1,1.85,5.75,24.44,24.44,0,0,1,.32,6,61.12,61.12,0,0,0,.28,6.34,17.84,17.84,0,0,0,1.63,6.45,6.06,6.06,0,0,0,2.15,2.37,44,44,0,0,0-2.53,4.3c-.74,1.42-1.4,2.84-2.05,4.3h0a1.06,1.06,0,0,0-1.27.39,57.88,57.88,0,0,1-5.24,6.45,5,5,0,0,1-3.38,1.48,1.56,1.56,0,0,1-1.14-.62,6.47,6.47,0,0,1-1.38-5.53,1.12,1.12,0,0,0-.19-.9,1.06,1.06,0,0,0-.32-.28c1.44-2.47,2.9-5,4.3-7.44a43.43,43.43,0,0,0,3.95-8.93,44.74,44.74,0,0,0,.61-9.74,63.28,63.28,0,0,0-1-9.61c.19,3.2.23,6.45.17,9.63a51,51,0,0,1-.82,9.47,45.85,45.85,0,0,1-3.63,8.79c-1.25,2.58-2.54,5.14-3.68,7.79a.69.69,0,0,0-.36-.11s-2.31-.24-3-4a1.27,1.27,0,0,0-.5-.74,2.42,2.42,0,0,1-.49-.47,10.26,10.26,0,0,1,.71-2.66A33,33,0,0,1,840.2,653a53.49,53.49,0,0,0,3.62-7.7,24.21,24.21,0,0,0,1.11-8.5,53.07,53.07,0,0,0-1.11-8.41c.21,2.82.27,5.64.3,8.44a24.87,24.87,0,0,1-1.34,8.15,63.6,63.6,0,0,1-3.33,7.68,18.88,18.88,0,0,0-1.94,6.58,5.93,5.93,0,0,1-.51-5,27.16,27.16,0,0,1,1.65-4.69,20.19,20.19,0,0,0,1.94-7.62,69.15,69.15,0,0,0,0-15.22,57.93,57.93,0,0,0-1.61-6.22,80.67,80.67,0,0,1-3-13.12,36.13,36.13,0,0,1,1.55-13.27,34.83,34.83,0,0,0,1.18-6.17c.15-3.72-1.53-7.25-4.09-12.58-.86-1.81-1.82-3.83-2.9-6.19-3.61-7.62-6.73-13.92-13.72-27.21-1.25-2.43-2.41-4.54-3.46-6.45a175.82,175.82,0,0,1-12.07-26.28,128.66,128.66,0,0,1-5.81-21.2c-.49-2.5-.94-4.69-1.5-6.82-.88-6.15-1.89-9.62-2.75-13.91a94.89,94.89,0,0,0,2.49-15.88,120.51,120.51,0,0,0,.24-15.67,44.5,44.5,0,0,0,8.77-21.51,63.52,63.52,0,0,0,.48-11.94c-.26-4-.67-7.74-1.06-11.65a158.71,158.71,0,0,0-3.87-23.12c-.93-3.79-2-7.55-3.16-11.27s-2.41-7.4-3.76-11.05c1.87,7.54,3.61,15.05,5,22.73a216.28,216.28,0,0,1,2.79,22.71l.82,11.57a60.28,60.28,0,0,1-.56,11.31,42.85,42.85,0,0,1-8.13,20.65l-.38.47v.56A140.39,140.39,0,0,1,792.5,451a122.18,122.18,0,0,1-1.44,15.87v.28a70.87,70.87,0,0,1,1.59,12.9v.26a2.29,2.29,0,0,1,0,.37v.1h0a63.28,63.28,0,0,1-1.22,22.2,1,1,0,0,0,0,.34,142,142,0,0,0,4,18.35,80.69,80.69,0,0,1,3.1,14.9,184.06,184.06,0,0,0,3.09,22.91A282,282,0,0,1,807,611.6c0,33.1-5,74.24-7.07,91.81l-.33,2.6c-.36,3.14-.64,6.56-.94,10.18-1.17,13.59-2.46,29-8.88,40-3.77,6.45-6.85,25.68-9.17,57.12-.84,11.36-3.42,36.24-5.91,60.21s-4.84,46.89-5,52.11c-.39,10.29.43,13.27,3.74,20.63s13.16,18.82,21.74,25.16a125.3,125.3,0,0,0,14.09,8.86c2.15,1.25,4.3,2.41,6.45,3.81,6,3.82,6.62,4.77,7.42,6.94a.8.8,0,0,0,.24.39c2.15,2.15,2.32,3.7,2.32,7.12a1.16,1.16,0,0,0,.17.6,5.11,5.11,0,0,1-.84,5.87,1.06,1.06,0,0,0-.19,1.29,3.73,3.73,0,0,1-1.4,4.3,2.76,2.76,0,0,1-2.84.39,1.08,1.08,0,0,0-1.44,1.51,3.46,3.46,0,0,1,.43,3.16,5.67,5.67,0,0,1-4.19,2.81c-5.06,1.21-9.55-1.69-13.68-4.77a24,24,0,0,0-8.28-3.42,49.31,49.31,0,0,1-11.19-4.3,43.31,43.31,0,0,1-12.64-12,58.15,58.15,0,0,0-5-5.79c-4.06-4-13.33-6.17-21.5-8.13-2.47-.58-4.8-1.14-6.73-1.7-7.29-2.15-13.74-9.61-11.47-18.15a91.9,91.9,0,0,1,3.32-9.67,46.65,46.65,0,0,0,3.84-14.29c.35-8-2-28.23-4.77-52-1.33-11.1-2.71-19.49-3.91-26.91a242.9,242.9,0,0,1-4-36.69c-.63-21.5,2.51-43,9.83-67.59,6.45-21.5-7.25-92.17-7.83-95.19a1,1,0,0,0-1.12-.86,1.07,1.07,0,0,0-1,1c0,.37-3.08,35.59-6,57-2,14.95-8.15,50.77-13.94,66.13s-6.71,21.93-9.35,44.45c-1.19,10.13-2.69,21.25-4.15,32-3,21.91-6,44.56-6.46,59.83-.23,7.07-1.07,13.89-1.91,20.49-1.8,14.46-3.52,28.13,1.85,41.45a367,367,0,0,0,16.3,33.35c2.86,5.36,5.12,9.6,6,11.72a32.06,32.06,0,0,0,4.9,7.79,24.5,24.5,0,0,1,4,6.45c1.36,3.89,2,9.08.35,11.91a4.33,4.33,0,0,1-3.1,2.16A10.14,10.14,0,0,1,699,1051a1.09,1.09,0,0,0-1.55,0,1,1,0,0,0-.25.47,3.59,3.59,0,0,1-4.18,2.75,9.51,9.51,0,0,1-4.3-2.65,1.09,1.09,0,0,0-1.2-.23,1.06,1.06,0,0,0-.65,1,2.54,2.54,0,0,1-.75,1.83,4,4,0,0,1-3.21,0c-1.31-.39-2.62-2.89-3.13-4.3a1.16,1.16,0,0,0-1-.72h0a1.06,1.06,0,0,0-1,.69,3.24,3.24,0,0,1-3.49,1.7,4.3,4.3,0,0,1-2.88-2.15,1.08,1.08,0,0,0-1.45-.46,1.28,1.28,0,0,0-.21.14s-3.52,3-6.1,1.14a23.92,23.92,0,0,1-3.27-3,29.55,29.55,0,0,0-6-5.06c-4.3-2.68-8.13-13.78-9.31-23a39.52,39.52,0,0,0-2.93-10.32,25.42,25.42,0,0,1-2.41-10.32c0-3.4.35-7.42.76-12.06.58-6.46,1.31-14.72,1.31-24.5,0-16.15-4.09-42.6-10.76-80.07a234.25,234.25,0,0,1,0-85.78c.74-4.07,1.53-7.9,2.33-11.6,2.32-11,4.51-21.33,4-34.84-.26-7.93-1.4-23.65-2.71-41.93-1.59-22.37-3.59-50.2-4.58-72.41-2.3-51.62-.64-76.24,1.5-95.29,1-8.8,2.71-18.11,4.31-27.12,2.32-12.67,4.3-23.66,3.8-30.11-1.2-14.73-3-37.47-3.59-45.75,0-5.54,4.63-11.07,7.27-15.24a145.58,145.58,0,0,0,7.38-12.9,94.64,94.64,0,0,0,5.72-13.86,34.57,34.57,0,0,0,1.87-14.86,56.19,56.19,0,0,1-4.3,14c-1.92,4.48-4,8.91-6.24,13.27s-4.43,8.61-6.58,13c-1.42,2.78-5.38,8.35-7.18,12.67a.82.82,0,0,0-.24.37,301.77,301.77,0,0,1-18.71,38.23,239.14,239.14,0,0,0-14,28.07.79.79,0,0,0,0,.43s.88,20.56,1.85,41c.58,12.49.88,26,1.16,37.94.3,14.43.56,25.8,1.21,28.73a51.34,51.34,0,0,0,8.34,19.59,45.35,45.35,0,0,1,7.14,19.14c.58,4.06,1.12,11,1.53,16.6a83.63,83.63,0,0,0,.9,9.38,2.4,2.4,0,0,1-1,2.15c-1,.71-2.3.13-3.22-.49-3.89-2.61-4.86-6.85-6.35-14.74-.19-1-.36-2-.53-2.9-.8-4.6-1.21-6.64-2.63-7.12a1.84,1.84,0,0,0-1.85.54c-2.15,2-2.15,4.82-2.15,14.09v4.3c0,7,0,15.83-.28,26.36-.28,9.85-3.65,10.52-6.45,11.06a1.12,1.12,0,0,0-.58.32,8.13,8.13,0,0,1-.49-1.27,17.3,17.3,0,0,1-.45-2.47c-.24-1.68-.39-3.36-.5-5-.22-3.37-.41-6.75-.5-10.12l-.4-10.18c-.16-3.37-.28-6.77-.54-10.17-.32,3.4-.45,6.8-.54,10.19s0,6.8,0,10.2a77.78,77.78,0,0,0,.84,10.19c.24,1.68.49,3.38.88,5.06a21.13,21.13,0,0,0,.78,2.45,5.75,5.75,0,0,0,.73,1.33,1.11,1.11,0,0,0-.2.52,6.82,6.82,0,0,1-5.48,6.45c-1.36,0-1.79-.24-2.62-7.44a1.09,1.09,0,0,0-1-1h-.13c-.11-6.45-.45-12.75-.93-19.12-.19-3.35-.53-6.68-.83-10s-.76-6.69-1.34-10c0,3.37,0,6.73.15,10.11s.35,6.73.71,10.06c.54,6.45,1.23,12.69,2.15,19a1.06,1.06,0,0,0-.88.77c0,.13-.3.43-1,.72a5,5,0,0,1-3.37.25c-1-.64-1.87-6.11-2.65-16.23a1.07,1.07,0,0,0-1-1c.37-4.71.37-9.42.28-14.13a150.57,150.57,0,0,0-1.05-15.16,148.19,148.19,0,0,0-.35,15.2c.13,4.71.37,9.42,1,14.11a1.11,1.11,0,0,0-1,.92c-.54,4.09-2.71,5.94-3.68,6-.38,0-.68-.34-.83-1.1a166.71,166.71,0,0,1-2.61-19c-.4-3.83-.86-8.41-1.55-14.26a87.64,87.64,0,0,1-.12-25.67c.23-2,.49-4.05.73-6.46A70.74,70.74,0,0,0,569,607.15c-.51-3-1.14-6.45-1.8-10.75-1.12-7.14-3.12-15.85-5.42-25.94-3.25-14.08-6.91-30.11-9.66-48-1-6.45-1.91-11.46-2.67-15.44-2.34-12.71-2.81-15.36,1.53-28.5,3.4-10.17,13.18-35.57,22.33-57.16,3.24-7.68,7-15,10.43-21.66a156.41,156.41,0,0,0,8.36-17.89c2.15-6.45,3.68-12,5-16.92,3.29-12.28,5.68-21.17,15.29-32.11,12-13.64,19.85-16.13,29.74-19.36a109.64,109.64,0,0,0,11.21-3.91c9.33-3.81,31.27-13.48,33.44-21.23l.24-.84c1.27-4.51,1.27-4.68.86-14v-2.86a1.11,1.11,0,0,0-.47-.83c-30.35-21.19-28.59-58.26-25.55-69.58,7.78-29.33,33.7-36.56,44.49-38.15a58.22,58.22,0,0,1,8.84-.71c19.36,0,35.61,8.18,44.54,22.46,7.55,12,8.06,18.23,5.81,32-1.1,6.73,0,8.94,1.2,11.52s2.73,5.72,2,15.79c-1.37,19.7-6.08,31.46-8,35.61-2.73,5.83-9.42,6.58-14.3,7.14a12.78,12.78,0,0,0-2.15.28,1.09,1.09,0,0,0-.91,1.06v1c0,4.31,0,9.83,8.61,12.57a69,69,0,0,0,10.28,2.14c1.63.28,3.35.56,5.16.91,10.34,1.93,19.72,4.54,29.82,16.75,11.68,14.13,17.21,29.62,17.58,40.09v1.83c.4,11.07,6.17,36,9.59,47.07,3.27,10.58,4.84,32.48,7.29,45.62.62,3.35,1.12,6,1.46,7.63,1.68,8,5.74,15.79,10.52,24.43,4.3,7.89,6.9,17.62,9.44,35.83a428.13,428.13,0,0,0,10.75,52.71c.84,2.84,2.15,6.45,3.46,10.76,3.9,11.67,9.23,27.67,9.31,34.92A96.43,96.43,0,0,1,871,650.92Z"/></g><path class="cls-13" d="M702,310.27c0,11.52-10.37,20.86-23.15,20.86s-23.17-9.34-23.17-20.86S666,289.41,678.8,289.41,702,298.75,702,310.27Z"/><path class="cls-13" d="M712.28,765.15c0,11.52-10.37,20.86-23.16,20.86S666,776.67,666,765.15s10.37-20.86,23.16-20.86S712.28,753.63,712.28,765.15Z"/><path class="cls-13" d="M808.11,757.58c0,11.51-10.37,20.85-23.16,20.85s-23.16-9.34-23.16-20.85,10.37-20.86,23.16-20.86S808.11,746.06,808.11,757.58Z"/><path class="cls-13" d="M767.59,934c0,8.21-7.39,14.87-16.51,14.87s-16.5-6.66-16.5-14.87,7.39-14.87,16.5-14.87S767.59,925.81,767.59,934Z"/><path class="cls-13" d="M701.42,956.78c0,11.52-10.38,20.86-23.16,20.86s-23.17-9.34-23.17-20.86,10.38-20.86,23.17-20.86S701.42,945.26,701.42,956.78Z"/><path class="cls-13" d="M616.33,484.47c0,11.52-10.37,20.86-23.16,20.86S570,496,570,484.47s10.37-20.85,23.16-20.85S616.33,473,616.33,484.47Z"/><path class="cls-13" d="M811.34,590.67c0,11.52-10.37,20.85-23.16,20.85S765,602.19,765,590.67s10.37-20.86,23.16-20.86S811.34,579.15,811.34,590.67Z"/><path class="cls-13" d="M684.33,591.72c0,11.52-10.37,20.86-23.15,20.86S638,603.24,638,591.72s10.37-20.86,23.17-20.86S684.33,580.2,684.33,591.72Z"/><path class="cls-13" d="M875.44,578.37c0,11.52-10.37,20.86-23.16,20.86s-23.16-9.34-23.16-20.86,10.37-20.86,23.16-20.86S875.44,566.85,875.44,578.37Z"/><path class="cls-13" d="M611.5,589.92c0,11.52-10.37,20.86-23.16,20.86s-23.16-9.34-23.16-20.86,10.37-20.86,23.16-20.86S611.5,578.4,611.5,589.92Z"/><path class="cls-13" d="M786.52,532.14c0,11.51-10.37,20.85-23.16,20.85s-23.16-9.34-23.16-20.85,10.37-20.87,23.16-20.87S786.52,520.62,786.52,532.14Z"/><path class="cls-13" d="M836.06,325.69c0,11.52-10.37,20.86-23.16,20.86s-23.16-9.34-23.16-20.86,10.37-20.86,23.16-20.86S836.06,314.17,836.06,325.69Z"/><path class="cls-13" d="M644,335.56c0,11.52-10.37,20.86-23.16,20.86s-23.16-9.34-23.16-20.86S608,314.7,620.82,314.7,644,324,644,335.56Z"/><path class="cls-13" d="M792.72,300.74c0,11.51-10.38,20.85-23.16,20.85s-23.16-9.34-23.16-20.85,10.37-20.86,23.16-20.86S792.72,289.21,792.72,300.74Z"/><path class="cls-13" d="M852.22,485.38c0,11.52-10.37,20.86-23.15,20.86s-23.17-9.34-23.17-20.86,10.38-20.86,23.17-20.86S852.22,473.86,852.22,485.38Z"/><path class="cls-13" d="M794.32,354.29c0,11.51-10.37,20.85-23.16,20.85S748,365.8,748,354.29s10.37-20.86,23.16-20.86S794.32,342.76,794.32,354.29Z"/><path class="cls-13" d="M709.61,362.23c0,11.52-10.37,20.85-23.15,20.85s-23.17-9.33-23.17-20.85,10.37-20.86,23.17-20.86S709.61,350.71,709.61,362.23Z"/><text class="cls-14" transform="translate(1402.29 567.29)"><tspan class="cls-15">P</tspan><tspan x="127.89" y="0">o</tspan><tspan class="cls-16" x="251.28" y="0">n</tspan><tspan class="cls-17" x="370.91" y="0">t</tspan><tspan x="449.94" y="0">os de </tspan><tspan class="cls-18" x="192.54" y="225">D</tspan><tspan x="354.48" y="225">o</tspan><tspan class="cls-19" x="477.86" y="225">r</tspan><tspan x="554.85" y="225">es</tspan></text></g></g></svg>