<?xml version="1.0" encoding="utf-8"?>
<!-- Generator: Adobe Illustrator 25.2.3, SVG Export Plug-In . SVG Version: 6.00 Build 0)  -->
<svg version="1.1" id="Camada_1" xmlns="http://www.w3.org/2000/svg" xmlns:xlink="http://www.w3.org/1999/xlink" x="0px" y="0px"
	 viewBox="0 0 375 375" style="enable-background:new 0 0 375 375;" xml:space="preserve">
<style type="text/css">
	.st0{fill-rule:evenodd;clip-rule:evenodd;fill:#3F007F;stroke:#3F3F3F;}
	.st1{fill:#3F007F;stroke:#3F007F;stroke-miterlimit:10;}
	.st2{fill:none;stroke:#3F3F3F;}
	.st3{fill:#3F007F;}
	.st4{fill-rule:evenodd;clip-rule:evenodd;fill:#3F007F;stroke:#3F007F;}
</style>
<path class="st0" d="M315.8,132.6c-4.8,0.4-7.7-1.9-12.5-2.5c-4-0.5-8.4,0-12.5,0c-8.8,0-17.5-0.7-24.9,2.5c16,0,30.7,3.3,42.3,15
	c-4.1,0-8.3,0.3-12.5,0c-5.6-0.4-9.8-3-14.9-2.5c5.5,6.9,16.7,11.4,24.9,12.5c-11.5,14.6-32.3,10-47.3,7.5
	c-15.9-2.7-32-2.5-48.6-2.5c-3.7,0-21.2-2.4-23.7,0c-2.4,2.3,19.5,2.5,22.4,2.5h27.4c7.8,0,21,0.3,27.4,5c-5.2,1.2-4.2,5.4-2.5,7.5
	c1.4,1.6,5-2.1,5,1.2c0,0.8,3.6,2.8,5,3.7h-10c2.9,3.2,13.1,4.4,17.4,5c-3.9-0.3-4.5,0.4-7.5,2.5c6.6-1,17.7,4.1,22.4,7.5
	c-6.8-3.1-13.1-3.1-19.9,0c3.6,5.8,9.2,4.3,13.7,8.7c4.5,4.5,10.6,6.3,16.2,8.7c-6.5-0.9-11.7-2.5-18.7-2.5c-13.1,0-0.5,8.7,6.2,10
	c-2.4-0.3-5,0.1-7.5,0c4.8,7.2,8.1,13.1,14.9,19.9c-5.3-2-10.4-6.7-14.9-10c-4.2-3-10.5-5.5-13.7-8.7c-4.8-4.8-0.1,6.8,1.2,8.7
	c2.8,4.3,4.6,8.2,7.5,12.5c-3.4-1.5-7.9-4.4-12.4-7.5c1.9,7.4-5,2.3-5,8.7c0,5.9,6,9.7,5,16.2c-5-5-9.6-8.9-14.9-12.5
	c-1,6.2,2.5,13.2,2.5,19.9c-8.3-8.9-6.1,4.1-10,7.5c-2.2-6.1-3,2-6.2-1.2c-3.2-3.2-0.9-8-6.2-11.2c0,5.3,0.8,10.4-2.5,15
	c-0.7-7.4-8.3-8-7.5-15v2.5c-6.9-13.8-6.6-26.4-10.2-40.9c-4.4-17.8-8-29.3-19.7-43.8c1.9,7.4,3.5,13.5,8.7,18.7
	c2.8,2.8,3.5,15.2,4.6,19.7c4.2,16.9,9.6,33.4,13.8,50.3c1.7,6.8,0.9,14.6,2.7,21c2.2,7.7,8.7,6.2,13.7,11.2
	c2.1,2.1-0.1,5.6,2.5,6.9c2.9,1.5,6.7,4.3,10,4.3c7.9,0,15-2.5,22.3-2.5c7.3,0,13.4-5.4,21.2,0c6.8,4.7,10,16.1,10,23.9
	c0,3.4,0.9,18.5,2.5,21c4,6,13,2.4,14.9-2.5c5.2-13.1-8.9-30.2-14.3-41.1c-3.2-6.4-4.1-14.2-3.1-21.2c0.2-1.8,1.5-8.5,2.5-10
	c2-3,7.5-2,7.5-6.2c0-0.8,4.7-3.5,6.2-5c3.2-3.2-0.5-5.3-1.2-8.7c-0.7-3.1-2.5-4.5-2.5-8.7c0-3.9,5-2.8,5-5c0-2.7-0.7-5.5,1.2-7.5
	c1.7-1.7,6.2-0.3,6.2-2.5c0-2,2.5-1.1,2.5-5c0-3.4-2.5-4.8-2.5-7.5c0-4.4-2.5-5.5-2.5-9.9c0-3.1,2.7-4.7,2.5-8.8
	c-0.3-6.7-7.5-12.2-7.5-18.7c0-10.5-18.1-11.3-24.9-16.2c17.5,0,30.5,1.9,43.6-11.3c7-7,4.1-14.4,8-22.3c1.7-3.5,3.1-18.4,3.1-22.4
	c0-14.4,4.7-27.7,10-41.2c4.7-12,16.9-30.9,10.6-43.6c-14.1-28.3-74.8-0.9-92.8,11.2c-29.6,19.9-54.4,47.5-67.6,80.7
	c-3.4,8.6-6.2,22.5-12.1,29c11-16.5,22.5-36.3,34.9-52.3c3.8-4.9,6.7-9.2,11.2-13.7c3.4-3.4,8.5-8.3,10.6-12.4
	c2.4-4.9,20.4-17.2,25.6-16.2c-1.8,1.2-8.5,10-3.7,10h11.2c-2.6,0.6-2.6,1.2-5,2.5c9.5,0,15,0,22.4,5c-7.4,0-13.8-0.3-19.9,2.5
	c6.6,0,11.6,3,17.4,2.5c-2.9,2.3-7.7,2.8-12.4,5c4.4,0.4,5.6,4.6,10,5c-3.9-0.3-4.5,0.4-7.5,2.5c3.6-0.4,5.9,0.9,7.5,2.5
	c4.1,4.1,1.4-0.1-2.5,2.5c-4.4,2.9-5.7-1.9-2.5,2.5c1,1.4,4.8,3.2,7.5,5h-17.4c3,1.4,7,1.1,10,2.5c3.1,1.4,6.4,4.6,10,5
	c-7.8-0.9-21,2.2-27.4,5c5.4,4,13.7,2.6,19.9,5C302.7,125.2,309.3,129.3,315.8,132.6"/>
<path class="st1" d="M315.8,132.6c-4.8,0.4-7.7-1.9-12.5-2.5c-4-0.5-8.4,0-12.5,0c-8.8,0-17.5-0.7-24.9,2.5c16,0,30.7,3.3,42.3,15
	c-4.1,0-8.3,0.3-12.5,0c-5.6-0.4-9.8-3-14.9-2.5c5.5,6.9,16.7,11.4,24.9,12.5c-11.5,14.6-32.3,10-47.3,7.5
	c-15.9-2.7-32-2.5-48.6-2.5c-3.7,0-21.2-2.4-23.7,0c-2.4,2.3,19.5,2.5,22.4,2.5h27.4c7.8,0,21,0.3,27.4,5c-5.2,1.2-4.2,5.4-2.5,7.5
	c1.4,1.6,5-2.1,5,1.2c0,0.8,3.6,2.8,5,3.7h-10c2.9,3.2,13.1,4.4,17.4,5c-3.9-0.3-4.5,0.4-7.5,2.5c6.6-1,17.7,4.1,22.4,7.5
	c-6.8-3.1-13.1-3.1-19.9,0c3.6,5.8,9.2,4.3,13.7,8.7c4.5,4.5,10.6,6.3,16.2,8.7c-6.5-0.9-11.7-2.5-18.7-2.5c-13.1,0-0.5,8.7,6.2,10
	c-2.4-0.3-5,0.1-7.5,0c4.8,7.2,8.1,13.1,14.9,19.9c-5.3-2-10.4-6.7-14.9-10c-4.2-3-10.5-5.5-13.7-8.7c-4.8-4.8-0.1,6.8,1.2,8.7
	c2.8,4.3,4.6,8.2,7.5,12.5c-3.4-1.5-7.9-4.4-12.4-7.5c1.9,7.4-5,2.3-5,8.7c0,5.9,6,9.7,5,16.2c-5-5-9.6-8.9-14.9-12.5
	c-1,6.2,2.5,13.2,2.5,19.9c-8.3-8.9-6.1,4.1-10,7.5c-2.2-6.1-3,2-6.2-1.2c-3.2-3.2-0.9-8-6.2-11.2c0,5.3,0.8,10.4-2.5,15
	c-0.7-7.4-8.3-8-7.5-15v2.5c-6.9-13.8-6.6-26.4-10.2-40.9c-4.4-17.8-8-29.3-19.7-43.8c1.9,7.4,3.5,13.5,8.7,18.7
	c2.8,2.8,3.5,15.2,4.6,19.7c4.2,16.9,9.6,33.4,13.8,50.3c1.7,6.8,0.9,14.6,2.7,21c2.2,7.7,8.7,6.2,13.7,11.2
	c2.1,2.1-0.1,5.6,2.5,6.9c2.9,1.5,6.7,4.3,10,4.3c7.9,0,15-2.5,22.3-2.5c7.3,0,13.4-5.4,21.2,0c6.8,4.7,10,16.1,10,23.9
	c0,3.4,0.9,18.5,2.5,21c4,6,13,2.4,14.9-2.5c5.2-13.1-8.9-30.2-14.3-41.1c-3.2-6.4-4.1-14.2-3.1-21.2c0.2-1.8,1.5-8.5,2.5-10
	c2-3,7.5-2,7.5-6.2c0-0.8,4.7-3.5,6.2-5c3.2-3.2-0.5-5.3-1.2-8.7c-0.7-3.1-2.5-4.5-2.5-8.7c0-3.9,5-2.8,5-5c0-2.7-0.7-5.5,1.2-7.5
	c1.7-1.7,6.2-0.3,6.2-2.5c0-2,2.5-1.1,2.5-5c0-3.4-2.5-4.8-2.5-7.5c0-4.4-2.5-5.5-2.5-9.9c0-3.1,2.7-4.7,2.5-8.8
	c-0.3-6.7-7.5-12.2-7.5-18.7c0-10.5-18.1-11.3-24.9-16.2c17.5,0,30.5,1.9,43.6-11.3c7-7,4.1-14.4,8-22.3c1.7-3.5,3.1-18.4,3.1-22.4
	c0-14.4,4.7-27.7,10-41.2c4.7-12,16.9-30.9,10.6-43.6c-14.1-28.3-74.8-0.9-92.8,11.2c-29.6,19.9-54.4,47.5-67.6,80.7
	c-3.4,8.6-6.2,22.5-12.1,29c11-16.5,22.5-36.3,34.9-52.3c3.8-4.9,6.7-9.2,11.2-13.7c3.4-3.4,8.5-8.3,10.6-12.4
	c2.4-4.9,20.4-17.2,25.6-16.2c-1.8,1.2-8.5,10-3.7,10h11.2c-2.6,0.6-2.6,1.2-5,2.5c9.5,0,15,0,22.4,5c-7.4,0-13.8-0.3-19.9,2.5
	c6.6,0,11.6,3,17.4,2.5c-2.9,2.3-7.7,2.8-12.4,5c4.4,0.4,5.6,4.6,10,5c-3.9-0.3-4.5,0.4-7.5,2.5c3.6-0.4,5.9,0.9,7.5,2.5
	c4.1,4.1,1.4-0.1-2.5,2.5c-4.4,2.9-5.7-1.9-2.5,2.5c1,1.4,4.8,3.2,7.5,5h-17.4c3,1.4,7,1.1,10,2.5c3.1,1.4,6.4,4.6,10,5
	c-7.8-0.9-21,2.2-27.4,5c5.4,4,13.7,2.6,19.9,5C302.7,125.2,309.3,129.3,315.8,132.6"/>
<path class="st0" d="M59.3,130.1c9.3,0,16.6-1.5,24.9-2.5c6.1-0.8,21,0.7,24.9,5c-17.2,0-29.8,2.4-42.3,15c4.1,0,8.4,0.5,12.5,0
	c5.3-0.7,9.2-3.5,14.9-2.5c-3.2,2.6-8.6,5.6-12.5,7.5c-3.6,1.7-9.8,1.9-12.5,5c3.5,5.7,16,9.1,22.4,10c7.9,1.1,16.8-1.4,24.9-2.5
	c15.8-2.2,32-2.5,48.6-2.5c3.7,0,21.2-2.4,23.7,0c2.4,2.3-19.5,2.5-22.4,2.5H139c-10.3,0-17.6,2.5-27.4,2.5
	c13.5,8.6-1.8,9.9-7.5,12.5c4.6,0,9.2-1.1,12.5,2.5c-4-0.4-14.7,2-17.4,5c1.7-0.1,3.3,0.1,5,0c-5.4,4.9-16,5.7-22.4,10
	c3.1-3.4,8-2.8,12.5-2.5c6.6,0.5,7.4-1.2,5,2.5c-3.7,5.6-19.2,14.5-27.4,17.4c3.9-4.5,12.9-2.5,18.7-2.5c13.1,0,0.5,8.7-6.2,10
	c3.2-3.5,5.4-2.2,7.5,0c-4.8,7.2-8.1,13.1-14.9,19.9c10.4-3.9,20.7-21.7,32.4-19.9c-5.4,6.6-4.6,17.4-12.5,22.4
	c0.9-3.1,10-3.2,10-6.2c0-4.7,3.7,1.4,2.5,1.2c1.5,0.2,0.5,4.8,5,0c1.1,8.6-6.3,14.3-5,22.4c1.8-4.4,10.1-9.2,14.9-12.5
	c1,6.2-2.5,13.2-2.5,19.9c7.9-8.6,10.1,10,12.5,2.5c2.1,6.8,8.5-5.9,10-10c0,8.6,0.7,19.3,7.5,10c3.4-4.7,10-19.4,10-26
	c0-10.9,2.6-21.8,5.2-32.4c3-11.8,10.9-20.9,17.2-31.4c1.8,7.8-5.1,11.1-7.5,17.4c-2.4,6.4-3.3,12.4-5.4,18.6
	c-5.4,16.3-9.5,33.4-13.7,50.2c-1.6,6.2-3.4,15.9-3.4,22.2c0,4.9-7.8,9-10,11.2c-2.2,2.2-5.9,10-11.2,10c-3.8,0-6.4,2.5-10,2.5
	c-4.6,0-7.7-2.5-12.4-2.5c-6.6,0-12.5-4.6-19.9-2.1c-8.1,2.7-14.1,11-16.3,19.6c-1.7,6.6-2.7,43.4-14.9,24.9
	c-8.9-13.5,6.1-25.8,10.4-38.6c5.4-16.3,7.5-28.1-5.4-38.7c-2-1.6-11.1-8.8-6.2-13.7c2.2-2.2,4-5.5,3.7-8.7c-0.3-3.9-4.7-4-5-5
	c-0.6-2,1.1-5.8,0-7.5c-2.1-3.4-2.3-0.1-5-2.5c-6.4-5.7-7.5-5-3.1-13.7c3.7-7.4,0.6-10.5,0.6-17.5c0-6.7,4.7-12.7,7.5-18.7
	c5.7-12.4,13.1-12.1,24.9-17.4c-13.8,0-34.4,1.9-43.1-11.1c-5.3-8-4.7-14.7-8.5-22.5c-1.4-2.9-0.6-6.8-0.6-9.9
	c0-4.7-2.5-8.4-2.5-12.5c0-14.7-4.6-27.7-10-41.2c-4.7-12-16.9-31-10.6-43.6c14.6-29.1,74.6-1,92.8,11.2
	c28.6,19.2,54.6,45.6,67.6,78.2c3.9,9.9,7.7,25.3,12.1,31.5c-2.7-6.1-8.2-13.3-12.5-19.9c-3.2-5.1-6.7-10.8-9.3-16.2
	c-1.6-3.2-6.5-12.9-9.4-14.4c-5.1-2.6-8.1-8.8-12.4-13c-3.2-3.2-10.2-9.3-11.9-12.6c-4.8-9.5-17.2-17.8-26.8-21.1
	c0.9,2.6,7.7,9.4,5,12.5c-1,1.2-10.6,0-12.5,0h5c-6.9-0.7-18.5,1.4-22.4,7.5c5.9,0,15.8-2,19.9,2.5c-5.5,0-13.6-1.7-17.4,2.5
	c4.8,2.2,9.5,2.7,12.5,5c-4,1-6.5,2.7-10,5c2.5-0.3,5,0.3,7.5,0c-4.1,2.6-7.3,2.9-10,5c2.3,1.8,5.1,3.3,10,2.5c-3.4,2.3-6,4-10,5
	c5.5,0,13.6-1.7,17.4,2.5c-6.8-0.6-14.6,3.9-19.9,7.5c9.3,0,19.6,1.6,27.4,5C87.3,115.7,69.8,124.8,59.3,130.1"/>
<path class="st1" d="M59.3,130.1c9.3,0,16.6-1.5,24.9-2.5c6.1-0.8,21,0.7,24.9,5c-17.2,0-29.8,2.4-42.3,15c4.1,0,8.4,0.5,12.5,0
	c5.3-0.7,9.2-3.5,14.9-2.5c-3.2,2.6-8.6,5.6-12.5,7.5c-3.6,1.7-9.8,1.9-12.5,5c3.5,5.7,16,9.1,22.4,10c7.9,1.1,16.8-1.4,24.9-2.5
	c15.8-2.2,32-2.5,48.6-2.5c3.7,0,21.2-2.4,23.7,0c2.4,2.3-19.5,2.5-22.4,2.5H139c-10.3,0-17.6,2.5-27.4,2.5
	c13.5,8.6-1.8,9.9-7.5,12.5c4.6,0,9.2-1.1,12.5,2.5c-4-0.4-14.7,2-17.4,5c1.7-0.1,3.3,0.1,5,0c-5.4,4.9-16,5.7-22.4,10
	c3.1-3.4,8-2.8,12.5-2.5c6.6,0.5,7.4-1.2,5,2.5c-3.7,5.6-19.2,14.5-27.4,17.4c3.9-4.5,12.9-2.5,18.7-2.5c13.1,0,0.5,8.7-6.2,10
	c3.2-3.5,5.4-2.2,7.5,0c-4.8,7.2-8.1,13.1-14.9,19.9c10.4-3.9,20.7-21.7,32.4-19.9c-5.4,6.6-4.6,17.4-12.5,22.4
	c0.9-3.1,10-3.2,10-6.2c0-4.7,3.7,1.4,2.5,1.2c1.5,0.2,0.5,4.8,5,0c1.1,8.6-6.3,14.3-5,22.4c1.8-4.4,10.1-9.2,14.9-12.5
	c1,6.2-2.5,13.2-2.5,19.9c7.9-8.6,10.1,10,12.5,2.5c2.1,6.8,8.5-5.9,10-10c0,8.6,0.7,19.3,7.5,10c3.4-4.7,10-19.4,10-26
	c0-10.9,2.6-21.8,5.2-32.4c3-11.8,10.9-20.9,17.2-31.4c1.8,7.8-5.1,11.1-7.5,17.4c-2.4,6.4-3.3,12.4-5.4,18.6
	c-5.4,16.3-9.5,33.4-13.7,50.2c-1.6,6.2-3.4,15.9-3.4,22.2c0,4.9-7.8,9-10,11.2c-2.2,2.2-5.9,10-11.2,10c-3.8,0-6.4,2.5-10,2.5
	c-4.6,0-7.7-2.5-12.4-2.5c-6.6,0-12.5-4.6-19.9-2.1c-8.1,2.7-14.1,11-16.3,19.6c-1.7,6.6-2.7,43.4-14.9,24.9
	c-8.9-13.5,6.1-25.8,10.4-38.6c5.4-16.3,7.5-28.1-5.4-38.7c-2-1.6-11.1-8.8-6.2-13.7c2.2-2.2,4-5.5,3.7-8.7c-0.3-3.9-4.7-4-5-5
	c-0.6-2,1.1-5.8,0-7.5c-2.1-3.4-2.3-0.1-5-2.5c-6.4-5.7-7.5-5-3.1-13.7c3.7-7.4,0.6-10.5,0.6-17.5c0-6.7,4.7-12.7,7.5-18.7
	c5.7-12.4,13.1-12.1,24.9-17.4c-13.8,0-34.4,1.9-43.1-11.1c-5.3-8-4.7-14.7-8.5-22.5c-1.4-2.9-0.6-6.8-0.6-9.9
	c0-4.7-2.5-8.4-2.5-12.5c0-14.7-4.6-27.7-10-41.2c-4.7-12-16.9-31-10.6-43.6c14.6-29.1,74.6-1,92.8,11.2
	c28.6,19.2,54.6,45.6,67.6,78.2c3.9,9.9,7.7,25.3,12.1,31.5c-2.7-6.1-8.2-13.2-12.5-19.9c-3.2-5.1-6.7-10.8-9.3-16.2
	c-1.6-3.2-6.5-12.9-9.4-14.4c-5.1-2.6-8.1-8.8-12.4-13c-3.2-3.2-10.2-9.3-11.9-12.6c-4.8-9.5-17.2-17.8-26.8-21.1
	c0.9,2.6,7.7,9.4,5,12.5c-1,1.2-10.6,0-12.5,0h5c-6.9-0.7-18.5,1.4-22.4,7.5c5.9,0,15.8-2,19.9,2.5c-5.5,0-13.6-1.7-17.4,2.5
	c4.8,2.2,9.5,2.7,12.5,5c-4,1-6.5,2.7-10,5c2.5-0.3,5,0.3,7.5,0c-4.1,2.6-7.3,2.9-10,5c2.3,1.8,5.1,3.3,10,2.5c-3.4,2.3-6,4-10,5
	c5.5,0,13.6-1.7,17.4,2.5c-6.8-0.6-14.6,3.9-19.9,7.5c9.3,0,19.6,1.6,27.4,5C87.3,115.7,69.8,124.8,59.3,130.1"/>
<path class="st2" d="M188.8,167.5v2.5V167.5"/>
<path class="st3" d="M191.3,162.5c-1.9,7.6-9,13.5-7.5,22.4v-2.5"/>
<path class="st4" d="M186.3,130.1c-9.6-19.1-26-35.8-32.8-56c-3.6-10.8-10.6-19.3-14.2-30.1c-1-3.1-8.7-22.7-10.3-21.1
	c-1.9,1.9,1.9,8.5,2.5,10c0.8,2,2.5-1.6,2.5,3.7c0,2.3,1.5,4.2,2.5,6.3c4.2,8.9,9.4,24.4,16.1,31.1c3.4,3.4,5.1,10.7,8,15.1
	c2.7,4.1,5.9,9.5,8.2,13.6C172.5,109,178.7,128.4,186.3,130.1"/>
<path class="st0" d="M186.3,239.7c11.5-1.4,6.8-27.4,9.1-36.4c2.1-8.3,0-16.2,3.4-23.4c3.1-6.7,8.2-9.9,14.9-5
	c-9.2-6.2-10.2-7.1-5.6-16.2c3.7-7.3,7.6-6.8,13.1-11.3c-6,1.5-22.4,13.9-22.4,1.3c0-4.1-2.5-7.9-2.5-12.6c0-5.7-1.1-10.4-7.5-11.2
	c-13.1-1.6-8.7,14.6-12.5,22.4c-2.4,4.9,0,5.7-7.5,5c-4.9-0.5-9.9-4.3-14.9-5c9.9,2.5,26.9,22.2,7.5,24.9c10.3-1.3,6.7-0.8,13.7,6.2
	c5.8,5.8,3.7,14.3,3.7,22.2C178.8,208.8,179.3,238.1,186.3,239.7"/>
<path class="st1" d="M186.3,239.7c11.5-1.4,6.8-27.4,9.1-36.4c2.1-8.3,0-16.2,3.4-23.4c3.1-6.7,8.2-9.9,14.9-5
	c-9.2-6.2-10.2-7.1-5.6-16.2c3.7-7.3,7.6-6.8,13.1-11.3c-6,1.5-22.4,13.9-22.4,1.3c0-4.1-2.5-7.9-2.5-12.6c0-5.7-1.1-10.4-7.5-11.2
	c-13.1-1.6-8.7,14.6-12.5,22.4c-2.4,4.9,0,5.7-7.5,5c-4.9-0.5-9.9-4.3-14.9-5c9.9,2.5,26.9,22.2,7.5,24.9c10.3-1.3,6.7-0.8,13.7,6.2
	c5.8,5.8,3.7,14.3,3.7,22.2C178.8,208.8,179.3,238.1,186.3,239.7"/>
<path class="st4" d="M188.8,130.1c14.1-13.8,24.3-38.7,33-56.1c4.7-9.4,10.1-18.9,14.3-28.6c1.2-2.8,7.7-24.7,10-22.4
	c1.9,1.9-1.9,8.5-2.5,10c-0.7,2-2.5-1.5-2.5,3.7c0,2.6-1.3,5.1-2.1,7.6c-1.4,4.2-5.9,9-7.9,13.6c-2.3,5.5-4.2,11.3-7.5,16.2
	c-12.4,18.6-22.5,38.8-32.4,58.6C190.4,131.7,189.6,130.9,188.8,130.1"/>
</svg>
