<?xml version="1.0" encoding="utf-8"?>
<!-- Generator: Adobe Illustrator 25.2.3, SVG Export Plug-In . SVG Version: 6.00 Build 0)  -->
<svg version="1.1" id="Camada_1" xmlns="http://www.w3.org/2000/svg" xmlns:xlink="http://www.w3.org/1999/xlink" x="0px" y="0px"
	 viewBox="0 0 168.7 212.5" style="enable-background:new 0 0 168.7 212.5;" xml:space="preserve">
<style type="text/css">
	.st0{fill:#FFFFFF;}
	.st1{opacity:0.1;fill:#232323;enable-background:new    ;}
	.st2{fill:#47317C;}
	.st3{fill:#3D1F75;}
	.st4{fill:#351D6D;}
</style>
<g id="paperplane" transform="translate(-284.987 -2480.569)">
	<path id="Caminho_269" class="st0" d="M397.5,2693.1L397.5,2693.1c-2.5-0.1-5-0.3-7.5-0.6c-0.8-0.1-1.3-0.8-1.2-1.5
		c0.1-0.8,0.8-1.3,1.5-1.2c2.4,0.3,4.8,0.5,7.2,0.6c0.8,0,1.3,0.7,1.3,1.4S398.2,2693.1,397.5,2693.1L397.5,2693.1z M404.8,2693.1
		c-0.8,0-1.4-0.6-1.4-1.4c0-0.7,0.6-1.3,1.3-1.4c2.4-0.1,4.8-0.3,7.2-0.7c0.8-0.1,1.5,0.4,1.6,1.1c0.1,0.8-0.4,1.5-1.1,1.6
		c0,0,0,0-0.1,0C409.9,2692.7,407.4,2693,404.8,2693.1L404.8,2693.1z M383,2691.2c-0.1,0-0.2,0-0.3,0c-2.4-0.6-4.8-1.2-7.2-2
		c-0.7-0.2-1.1-1-0.9-1.7c0.2-0.7,1-1.1,1.7-0.9c0,0,0,0,0.1,0c2.3,0.8,4.6,1.4,6.9,1.9c0.7,0.2,1.2,0.9,1,1.7
		C384.2,2690.7,383.6,2691.2,383,2691.2L383,2691.2z M419.4,2691.2c-0.8,0-1.4-0.6-1.4-1.4c0-0.6,0.5-1.2,1.1-1.3
		c2.3-0.5,4.7-1.1,7-1.8c0.7-0.2,1.5,0.2,1.7,1c0.2,0.7-0.2,1.4-0.9,1.7c-2.4,0.7-4.8,1.3-7.2,1.8
		C419.6,2691.2,419.5,2691.2,419.4,2691.2L419.4,2691.2z M433.5,2687c-0.8,0-1.4-0.6-1.4-1.4c0-0.6,0.4-1.1,0.9-1.3
		c2.2-0.8,4.5-1.8,6.7-2.8c0.7-0.3,1.5,0,1.8,0.6c0.3,0.7,0,1.5-0.6,1.8c0,0,0,0-0.1,0c-2.3,1-4.6,2-6.9,2.8
		C433.8,2687,433.6,2687,433.5,2687L433.5,2687z M369,2686.6c-0.2,0-0.4,0-0.5-0.1c-2.2-1-4.5-2-6.7-3.2c-0.7-0.3-1-1.2-0.6-1.8
		c0.4-0.6,1.2-1,1.8-0.6c0,0,0,0,0.1,0c2.2,1.1,4.4,2.2,6.6,3.1c0.7,0.3,1,1.1,0.7,1.8C370.1,2686.3,369.6,2686.6,369,2686.6
		L369,2686.6z M446.8,2681c-0.8,0-1.4-0.6-1.4-1.4c0-0.5,0.3-1,0.7-1.2c1.9-1,3.8-2.1,5.5-3.2c0.6-0.4,1.5-0.2,1.9,0.5
		c0.4,0.6,0.2,1.5-0.4,1.9c-1.8,1.1-3.7,2.2-5.6,3.3C447.3,2680.9,447.1,2681,446.8,2681L446.8,2681z M356,2679.9
		c-0.3,0-0.5-0.1-0.7-0.2c-2.1-1.3-4.2-2.7-6.2-4.1c-0.6-0.4-0.8-1.3-0.3-1.9c0.4-0.6,1.3-0.8,1.9-0.3c1.9,1.4,4,2.7,6.1,4
		c0.7,0.4,0.9,1.2,0.5,1.9C356.9,2679.6,356.5,2679.9,356,2679.9L356,2679.9z M344,2671.4c-0.3,0-0.6-0.1-0.9-0.3
		c-1.9-1.5-3.7-3.1-5.3-4.7c-0.6-0.4-0.8-1.3-0.3-2c0.4-0.6,1.2-0.8,1.8-0.4c2.2,0.5,4.5,0.9,6.7,1.1c0.8,0.1,1.3,0.7,1.2,1.5
		c-0.1,0.8-0.7,1.3-1.5,1.2c0,0,0,0-0.1,0c-0.9-0.1-1.7-0.2-2.6-0.3c0.6,0.5,1.2,1,1.8,1.5c0.6,0.5,0.7,1.4,0.2,1.9
		C344.8,2671.2,344.4,2671.4,344,2671.4L344,2671.4z M353.1,2668.2c-0.8,0-1.4-0.6-1.4-1.4s0.6-1.4,1.4-1.4c1.9,0,3.9-0.1,5.8-0.3
		c0.4,0,0.9-0.1,1.4-0.2c0.8-0.1,1.4,0.4,1.6,1.2c0.1,0.8-0.4,1.4-1.2,1.6c0,0,0,0-0.1,0c-0.6,0.1-1.1,0.1-1.4,0.2
		C357.2,2668,355.2,2668.2,353.1,2668.2L353.1,2668.2z M367.7,2666.5c-0.8,0-1.4-0.6-1.4-1.4c0-0.6,0.5-1.2,1.1-1.3
		c2.4-0.5,4.8-1.1,7-1.8c0.7-0.2,1.5,0.2,1.7,0.9c0.2,0.7-0.2,1.5-0.9,1.7c-2.3,0.7-4.8,1.3-7.2,1.9
		C367.9,2666.5,367.8,2666.5,367.7,2666.5L367.7,2666.5z M331.5,2664.5c-0.2,0-0.3,0-0.5-0.1c-2.4-0.8-4.7-1.8-6.9-2.9
		c-0.7-0.3-1-1.2-0.6-1.8c0.3-0.7,1.1-1,1.8-0.6c2.2,1,4.4,2,6.6,2.8c0.7,0.3,1.1,1,0.8,1.8C332.6,2664.2,332.1,2664.5,331.5,2664.5
		L331.5,2664.5z M381.7,2662.1c-0.8,0-1.4-0.6-1.4-1.4c0-0.6,0.3-1,0.8-1.3c2.2-0.9,4.3-2,6.4-3.2c0.6-0.4,1.5-0.2,1.9,0.4
		c0.4,0.6,0.2,1.5-0.4,1.9l0,0c-2.2,1.3-4.4,2.4-6.7,3.4C382.1,2662.1,381.9,2662.1,381.7,2662.1L381.7,2662.1z M333.5,2661.1
		c-0.4,0-0.8-0.2-1.1-0.5c-1.6-1.9-3.1-3.9-4.5-6c-0.4-0.6-0.3-1.5,0.3-1.9c0.6-0.4,1.5-0.3,1.9,0.3c0,0,0,0.1,0.1,0.1
		c1.3,2,2.8,3.9,4.3,5.8c0.5,0.6,0.4,1.5-0.2,1.9C334.1,2661,333.8,2661.1,333.5,2661.1L333.5,2661.1z M318.3,2658.2
		c-0.3,0-0.5-0.1-0.7-0.2c-2.1-1.3-4.2-2.7-6.1-4.3c-0.6-0.5-0.7-1.3-0.2-1.9c0.5-0.6,1.3-0.7,1.9-0.2c1.9,1.5,3.9,2.8,5.9,4.1
		c0.6,0.4,0.8,1.2,0.4,1.9C319.2,2657.9,318.8,2658.2,318.3,2658.2L318.3,2658.2z M394.3,2654.6c-0.8,0-1.4-0.6-1.4-1.4
		c0-0.4,0.2-0.8,0.5-1.1c1.8-1.5,3.5-3.2,5-5c0.5-0.6,1.3-0.7,1.9-0.2c0.6,0.5,0.7,1.3,0.2,1.9c-1.6,2-3.4,3.8-5.3,5.4
		C394.9,2654.5,394.6,2654.6,394.3,2654.6L394.3,2654.6z M306.7,2649.2c-0.4,0-0.7-0.1-1-0.4c-1.8-1.7-3.5-3.6-5.1-5.5
		c-0.5-0.6-0.4-1.5,0.2-1.9c0.6-0.5,1.4-0.4,1.9,0.2c1.5,1.8,3.2,3.6,4.9,5.3c0.5,0.5,0.6,1.4,0,1.9
		C307.5,2649.1,307.1,2649.2,306.7,2649.2L306.7,2649.2z M325.5,2648.8c-0.5,0-1-0.3-1.2-0.8c-1.1-2.3-1.9-4.7-2.6-7.1
		c-0.2-0.7,0.3-1.5,1-1.7c0.7-0.2,1.4,0.2,1.6,0.9c0.6,2.3,1.4,4.5,2.4,6.7c0.3,0.7,0,1.5-0.7,1.8
		C325.9,2648.8,325.7,2648.8,325.5,2648.8L325.5,2648.8z M403.4,2643.2c-0.8,0-1.4-0.6-1.4-1.4c0-0.2,0-0.4,0.1-0.6
		c1-2,1.8-4.1,2.3-6.2l0.1-0.4c0.2-0.7,1-1.2,1.7-1c0.7,0.2,1.1,0.9,1,1.6l-0.1,0.4c-0.6,2.3-1.4,4.6-2.5,6.7
		C404.4,2642.9,403.9,2643.2,403.4,2643.2L403.4,2643.2z M297.3,2638c-0.5,0-0.9-0.2-1.1-0.6c-1.4-2.1-2.6-4.2-3.8-6.5
		c-0.3-0.7,0-1.5,0.6-1.8c0.7-0.3,1.5-0.1,1.8,0.6c1.1,2.1,2.3,4.2,3.6,6.2c0.4,0.6,0.2,1.5-0.4,1.9
		C297.9,2637.9,297.6,2638,297.3,2638L297.3,2638z M321.8,2634.7c-0.7,0-1.3-0.6-1.4-1.3c-0.1-0.8-0.1-1.6-0.1-2.4
		c0-1.8,0.1-3.5,0.4-5.2c0.1-0.8,0.8-1.3,1.6-1.2c0.7,0.1,1.3,0.8,1.2,1.5c-0.2,1.6-0.3,3.2-0.3,4.8c0,0.7,0,1.5,0.1,2.2
		C323.2,2634,322.7,2634.7,321.8,2634.7C321.9,2634.7,321.9,2634.7,321.8,2634.7C321.9,2634.7,321.8,2634.7,321.8,2634.7
		L321.8,2634.7z M406.9,2629L406.9,2629c-0.8,0-1.4-0.7-1.4-1.4c0-0.5,0-1.1,0-1.6c0-1.8-0.1-3.7-0.4-5.5c-0.1-0.8,0.4-1.5,1.1-1.6
		c0.8-0.1,1.5,0.4,1.6,1.1c0,0,0,0,0,0.1c0.3,1.9,0.4,3.9,0.4,5.9c0,0.6,0,1.1,0,1.7C408.3,2628.5,407.7,2629,406.9,2629L406.9,2629
		z M290.7,2624.9c-0.6,0-1.1-0.4-1.3-0.9c-0.9-2.3-1.6-4.7-2.2-7.2c-0.2-0.7,0.2-1.5,1-1.7c0.8-0.2,1.5,0.2,1.7,1c0,0,0,0,0,0.1
		c0.6,2.3,1.3,4.6,2.1,6.9c0.3,0.7-0.1,1.5-0.8,1.8C291,2624.9,290.9,2624.9,290.7,2624.9L290.7,2624.9z M323.8,2620.3
		c-0.8,0-1.4-0.6-1.4-1.4c0-0.1,0-0.3,0.1-0.4c0.8-2.4,1.8-4.7,3-6.9c0.4-0.7,1.2-0.9,1.9-0.6c0.7,0.4,0.9,1.2,0.6,1.8
		c-1.1,2.1-2,4.3-2.8,6.5C325,2619.9,324.4,2620.3,323.8,2620.3L323.8,2620.3z M404.9,2614.6c-0.6,0-1.1-0.4-1.3-1
		c-0.7-2.3-1.6-4.5-2.7-6.6c-0.3-0.7-0.1-1.5,0.6-1.9c0.7-0.3,1.5-0.1,1.9,0.6c1.1,2.2,2.1,4.6,2.9,7c0.2,0.7-0.2,1.5-0.9,1.7
		C405.2,2614.6,405,2614.6,404.9,2614.6z M287.1,2610.7c-0.7,0-1.3-0.5-1.4-1.2c-0.3-2.5-0.6-5-0.7-7.4c0-0.8,0.6-1.4,1.3-1.4
		c0.8,0,1.4,0.6,1.4,1.3l0,0c0.1,2.4,0.3,4.8,0.6,7.2c0.1,0.8-0.4,1.5-1.2,1.6C287.2,2610.7,287.2,2610.7,287.1,2610.7L287.1,2610.7
		z M330.6,2607.3c-0.8,0-1.4-0.6-1.4-1.4c0-0.3,0.1-0.6,0.3-0.8c1.4-2,3-4,4.7-5.9c0.5-0.6,1.4-0.6,1.9-0.1c0.6,0.5,0.6,1.4,0.1,1.9
		l0,0c-1.6,1.8-3.1,3.6-4.5,5.6C331.4,2607.1,331,2607.3,330.6,2607.3L330.6,2607.3z M398.2,2601.6c-0.4,0-0.9-0.2-1.1-0.6
		c-1.4-1.9-3-3.7-4.7-5.4c-0.5-0.5-0.5-1.4,0-1.9c0.5-0.5,1.4-0.5,1.9,0c1.8,1.8,3.5,3.7,5,5.7c0.4,0.6,0.3,1.5-0.3,1.9
		C398.8,2601.5,398.5,2601.6,398.2,2601.6L398.2,2601.6z M340.4,2596.5c-0.8,0-1.4-0.6-1.4-1.4c0-0.4,0.2-0.8,0.5-1.1
		c1.9-1.6,3.9-3.1,6.1-4.5c0.6-0.4,1.5-0.2,1.9,0.4c0.4,0.6,0.2,1.5-0.4,1.9l0,0c-2,1.3-3.9,2.7-5.8,4.2
		C341.1,2596.3,340.8,2596.5,340.4,2596.5L340.4,2596.5z M286.5,2596L286.5,2596c-0.8,0-1.4-0.7-1.4-1.4l0,0c0.1-2.5,0.4-5,0.8-7.4
		c0.1-0.7,0.9-1.2,1.6-1.1c0.7,0.1,1.2,0.8,1.1,1.5c-0.4,2.4-0.6,4.8-0.8,7.2C287.8,2595.5,287.2,2596,286.5,2596L286.5,2596z
		 M387.8,2591.4c-0.3,0-0.5-0.1-0.8-0.2c-2-1.3-4-2.5-6.2-3.4c-0.7-0.3-1-1.1-0.7-1.8c0.3-0.7,1.1-1,1.8-0.7c2.3,1,4.6,2.2,6.7,3.6
		c0.6,0.4,0.8,1.3,0.4,1.9C388.6,2591.1,388.2,2591.4,387.8,2591.4L387.8,2591.4z M352.8,2588.6c-0.8,0-1.4-0.6-1.4-1.4
		c0-0.5,0.3-1,0.8-1.3c2.3-1,4.7-1.8,7.2-2.4c0.7-0.2,1.5,0.3,1.7,1c0.2,0.7-0.3,1.5-1,1.7l0,0c-2.3,0.6-4.5,1.3-6.7,2.3
		C353.2,2588.6,353,2588.6,352.8,2588.6L352.8,2588.6z M374.3,2585.8c-0.1,0-0.2,0-0.2,0c-1.9-0.3-3.8-0.5-5.7-0.5
		c-0.4,0-0.8,0-1.3,0c-0.8,0-1.4-0.6-1.4-1.3c0-0.8,0.6-1.4,1.3-1.4c0.5,0,0.9,0,1.4,0c2.1,0,4.2,0.2,6.2,0.6
		c0.7,0.1,1.2,0.9,1.1,1.6C375.5,2585.3,375,2585.8,374.3,2585.8L374.3,2585.8z M288.9,2581.6c-0.8,0-1.4-0.6-1.4-1.4
		c0-0.1,0-0.3,0.1-0.4c0.7-2.4,1.5-4.8,2.4-7.1c0.3-0.7,1.1-1,1.8-0.7c0.7,0.3,1,1.1,0.8,1.8c-0.9,2.2-1.7,4.5-2.3,6.8
		C290,2581.2,289.5,2581.6,288.9,2581.6L288.9,2581.6z M294.3,2568c-0.8,0-1.4-0.6-1.4-1.4c0-0.2,0.1-0.4,0.2-0.6
		c1.2-2.2,2.5-4.3,3.8-6.4c0.4-0.6,1.3-0.8,1.9-0.4c0.6,0.4,0.8,1.3,0.4,1.9l0,0c-1.3,2-2.6,4.1-3.7,6.2
		C295.3,2567.7,294.8,2568,294.3,2568L294.3,2568z M302.5,2555.8c-0.8,0-1.4-0.6-1.4-1.4c0-0.3,0.1-0.6,0.3-0.9
		c1.6-1.9,3.3-3.8,5-5.5c0.5-0.5,1.4-0.6,1.9,0c0.5,0.5,0.6,1.4,0,1.9l0,0c-1.7,1.7-3.3,3.5-4.9,5.3
		C303.3,2555.6,302.9,2555.8,302.5,2555.8L302.5,2555.8z M312.9,2545.4c-0.8,0-1.4-0.6-1.4-1.4c0-0.4,0.2-0.8,0.5-1.1
		c1.9-1.6,3.9-3.1,6-4.5c0.6-0.4,1.5-0.3,1.9,0.3c0.4,0.6,0.3,1.5-0.3,1.9l0,0c-2,1.4-3.9,2.8-5.8,4.3
		C313.5,2545.3,313.2,2545.4,312.9,2545.4L312.9,2545.4z M325,2537.2c-0.8,0-1.4-0.6-1.4-1.4c0-0.5,0.3-1,0.7-1.2
		c2.2-1.2,4.4-2.3,6.7-3.4c0.7-0.3,1.5,0,1.8,0.7s0,1.5-0.7,1.8c-2.2,1-4.4,2.1-6.5,3.3C325.5,2537.1,325.2,2537.1,325,2537.2
		L325,2537.2z M338.4,2531.1c-0.8,0-1.4-0.6-1.4-1.4c0-0.6,0.4-1.1,0.9-1.3c2.3-0.8,4.7-1.6,7.1-2.2c0.7-0.2,1.5,0.2,1.7,1
		c0.2,0.7-0.2,1.5-1,1.7c-2.3,0.6-4.7,1.3-6.9,2.1C338.7,2531.1,338.5,2531.1,338.4,2531.1L338.4,2531.1z"/>
	<g id="Grupo_130" transform="translate(1775.707 1447.976)">
		<path id="Caminho_270" class="st1" d="M-1340.9,1035.4l-134.8,18l32.7,24.8l0.5,45.6l28.2-23.9l15.8,11.9L-1340.9,1035.4z"/>
		<g id="Grupo_129" transform="translate(-1472.766 1032.593)">
			<g id="Grupo_128" transform="translate(0 0)">
				<path id="Caminho_271" class="st2" d="M33.3,88.4l-0.7-66.6L134.8,0L33.3,88.4z"/>
				<path id="Caminho_272" class="st3" d="M33,42.9C33.5,42.6,134.9,0,134.9,0L0.1,18L33,42.9z"/>
				<path id="Caminho_273" class="st4" d="M44.1,51.4L33.2,88.3l46.7-39.6L44.1,51.4z"/>
				<path id="Caminho_274" class="st3" d="M44.1,51.4l33.1,25L134.8,0L44.1,51.4z"/>
			</g>
		</g>
	</g>
</g>
</svg>
