<?xml version="1.0" encoding="utf-8"?>
<!-- Generator: Adobe Illustrator 25.2.3, SVG Export Plug-In . SVG Version: 6.00 Build 0)  -->
<svg version="1.1" id="Camada_1" xmlns="http://www.w3.org/2000/svg" xmlns:xlink="http://www.w3.org/1999/xlink" x="0px" y="0px"
	 viewBox="0 0 500 500" style="enable-background:new 0 0 500 500;" xml:space="preserve">
<style type="text/css">
	.st0{opacity:0.1;fill:#3D1F75;enable-background:new    ;}
	.st1{fill:#3D1F75;}
	.st2{fill:#263238;}
	.st3{fill:#FFC3BD;}
	.st4{fill:#FFFFFF;}
	.st5{opacity:0.2;enable-background:new    ;}
	.st6{fill:#ED847E;}
</style>
<g id="freepik--Device--inject-2">
	
		<ellipse transform="matrix(0.7174 -0.6967 0.6967 0.7174 -103.5154 244.8168)" class="st0" cx="250" cy="250" rx="257" ry="242.4"/>
	<path class="st1" d="M75.2,415.3C33.1,370.5,11.7,310.2,15.9,249h4.8c-4.2,60,16.9,119,58,162.8L75.2,415.3z"/>
	<path class="st1" d="M484.1,251l-4.8-0.3c1.3-20.9-0.3-42-4.8-62.5l4.8-1C483.8,208.2,485.4,229.6,484.1,251z"/>
	<path class="st1" d="M460.8,146.9c-23.5-52.1-66.9-92.7-120.5-112.6l1.7-4.5c54.8,20.3,99.2,61.8,123.2,115.2L460.8,146.9z"/>
	
		<ellipse transform="matrix(0.7174 -0.6967 0.6967 0.7174 -103.5154 244.8168)" class="st1" cx="250" cy="250" rx="224" ry="211.2"/>
	<path class="st2" d="M225.8,279.5L225.8,279.5c10.5-2.3,15.4-11.3,17.6-21.4c0.2-1.1,0.4-2.1,0.6-3.2v-1c0.6-4.2,0.9-8.5,1-12.8
		c-21-2.1-37-19.5-37.4-40.6c-0.5-20.2,3.9-40.2,13-58.2c-2.3,0.3-4.5,1.2-6.4,2.7c-0.4,0.3-0.8,0.4-1.3,0.3c-0.4-0.1-0.8-0.3-1-0.6
		c-0.5-0.7-0.4-1.8,0.3-2.3c3-2.2,6.6-3.4,10.3-3.4c0.7-1.1,1.4-2.3,2.1-3.4c-3,0-6,0-8.8,0c3.1-22,45.4-40.4,74.2-23.8
		c12.8,2.6,34,20.9,34,20.9c0.4,11.7,0.1,23.4-1,35l0,0c-1.9,19.9-6.6,43.2-18.1,56.2c2.8-6.7,3.9-14,3-21.2
		c-2.7,2.7-6.2,4.7-9.9,5.7c-1.4,2.9-2.9,5.7-4.8,8.4c-4.5,20.4-7.7,47.5-0.9,63.2c6.1,0.4,12.1,1,17.7,1.6l1.4,0.2
		c3.7-2.2,7.3-4.6,10.7-7.3c42.8-33.3-2.6-72.3,8.1-108.1c10.7-35.8,1.7-49.4-27.6-50.5c12.1-19.3-64.9-50.2-98.7,9.8
		c-30.7,54.4-40.5,81.6-29.5,124.1c4.1,13.9,13.5,25.6,26.2,32.7c2.2-0.6,4.3-1,6.6-1.3C213.4,280.7,219.6,280,225.8,279.5z"/>
	<path class="st3" d="M159.3,363.2c-1.7-3.1-3.3-6.3-4.8-9.5c-3.2,9.5-6.4,19-9.5,28.5c-2.9,8.6-5.8,17.1-8.7,25.3l-4.4,11.5
		l-1.9,4.8c-0.7,1.3,0,0.5,0,0.9c-2,2.4-4.3,4.5-6.7,6.5c-0.5,0.5-1.2,1-1.8,1.5c13.2,8.9,27.3,16.2,42.2,21.7
		c0.3-21.7,3-44.3,5.8-50.3C152.5,392.1,155,379.3,159.3,363.2z"/>
	<path class="st2" d="M176,299.1l-1.2,1.7C175.2,300.2,175.6,299.6,176,299.1L176,299.1z"/>
	<path class="st2" d="M165,330.9c-0.1-10.5,3.1-20.7,9.1-29.3c-9.1,14.3-16.6,29.6-22.3,45.6c0,0,0.9,2.5,2.7,6.5
		c1.4,3.2,3,6.4,4.8,9.5C162.5,352.8,164.5,341.9,165,330.9z"/>
	<path class="st2" d="M330.7,399.9c-5.6-8.3-10.6-17-15-26c-1.4,0.8-2.9,1.5-4.4,2.2c-14.3-15.1-26.4-27.2-26.4-27.2
		c-17.8-37.1-6.8-58.2,26.9-66.8c5.2,1.1,10.2,3.1,14.7,5.9c-4.4-3.1-9.6-5.2-14.9-6l-1.4-0.2c-5.7-0.6-11.6-1.2-17.7-1.6
		c1.3,3.5-29.2,47.5-48.3,54.5c-7.8-19.8-29.8-21.1-29.8-21.1s-20.5-4.2-26.9,8.7c4.2-26.7,29.9-40.8,38.5-42.8
		c-6.2,0.5-12.5,1.2-18.5,1.9c-2.2,0.3-4.4,0.7-6.6,1.3c-9.8,2.7-18.5,8.4-24.8,16.4c-0.4,0.5-0.9,1-1.2,1.6l-0.7,0.9
		c-6,8.6-9.1,18.8-9.1,29.3c-0.4,11-2.3,21.8-5.7,32.3c-4.3,16-6.8,28.9,9.9,40.8c-2.9,6-5.5,28.5-5.8,50.3
		c23.6,8.8,48.6,13.2,73.8,13.1c32.3,0,64.1-7,93.4-20.5c-0.8-17.7-0.7-35.4,0.4-53.1l0,0C331,395.8,330.8,397.9,330.7,399.9z"/>
	<path class="st4" d="M214.3,313.6c0,0,22,1.3,29.8,21.1c19-7.2,49.7-51,48.3-54.5C292.5,280.2,249.2,301.2,214.3,313.6z"/>
	<path class="st4" d="M225.9,279.5L225.9,279.5c-8.6,2-34.3,16.1-38.5,42.8c6.4-12.9,26.9-8.7,26.9-8.7
		C207.7,288.6,225.9,279.5,225.9,279.5z"/>
	<path class="st3" d="M244.1,254.9v-1V254.9z"/>
	<path class="st3" d="M293.3,217c-4.1,6-9.4,11.2-15.4,15.2c-2.5,1.8-5.2,3.4-8.1,4.8c-6.2,10-15.5,17.7-26.5,22v-0.8
		c-2.2,10.2-7.1,19-17.6,21.4c0,0-18.2,9.1-11.6,34.1c34.9-12.4,78.2-33.3,78.2-33.3C285.7,264.6,288.8,237.4,293.3,217z"/>
	<path class="st2" d="M243.5,258c0.2-1.1,0.4-2.1,0.6-3.2C243.9,255.8,243.7,256.9,243.5,258z"/>
	<path class="st5" d="M243.5,258c0.2-1.1,0.4-2.1,0.6-3.2C243.9,255.8,243.7,256.9,243.5,258z"/>
	<path class="st2" d="M245.2,241.1c-0.1,4.3-0.4,8.5-1,12.8C244.9,249.7,245.2,245.4,245.2,241.1z"/>
	<path class="st5" d="M245.2,241.1c-0.1,4.3-0.4,8.5-1,12.8C244.9,249.7,245.2,245.4,245.2,241.1z"/>
	<path class="st3" d="M269.8,236.7c-7.7,3.7-16.2,5.1-24.6,4.3c0,4.3-0.4,8.5-1,12.8v1c0,1-0.4,2.1-0.6,3.2v0.8
		C254.5,254.4,263.7,246.7,269.8,236.7z"/>
	<path class="st5" d="M269.8,236.7c-7.7,3.7-16.2,5.1-24.6,4.3c0,4.3-0.4,8.5-1,12.8v1c0,1-0.4,2.1-0.6,3.2v0.8
		C254.5,254.4,263.7,246.7,269.8,236.7z"/>
	<path class="st3" d="M269.8,236.7c2.8-1.3,5.5-2.9,8.1-4.8c6-4.1,11.3-9.2,15.4-15.2c1.8-2.7,3.4-5.5,4.8-8.4
		c-0.9,0-1.8,0.5-2.7,0.6c-7.9,0.7-10.2-8.2-6.6-16.2c1.2-2.7,2.8-5.2,4.8-7.5c-2.1-6.8-1.6-14.1,1.4-20.5
		c-7.2-14.8-14.9-28.5-15.6-38.5c-17.8,5.5-36.2,8.5-54.9,9c-0.7,1.1-1.4,2.3-2.1,3.4c1.6,0,3.2,0.2,4.8,0.7c0.8,0.3,1.3,1.2,1,2.1
		c0,0,0,0,0,0c-0.3,0.8-1.2,1.3-2.1,1c-1.7-0.5-3.5-0.6-5.3-0.4c-9,18-13.3,38-12.7,58.1c0.3,21.1,16.4,38.5,37.4,40.6l0,0
		C253.8,241.7,262.2,240.3,269.8,236.7z M259.2,143.4c5.3,1,9.7,4.6,11.8,9.5c0.4,0.8,0,1.8-0.8,2.2c-0.4,0.2-0.8,0.2-1.2,0
		c-0.4-0.1-0.8-0.4-1-0.9c-1.8-3.9-5.3-6.7-9.5-7.5c-0.9-0.1-1.5-1-1.4-1.9c0.1-0.9,0.9-1.6,1.8-1.5
		C259,143.4,259.1,143.5,259.2,143.4L259.2,143.4z M257.6,166.9L257.6,166.9c1.6,1.2,2.3,3.3,1.7,5.3c-0.5,2.8-2.4,4.8-4.2,4.3
		s-2.9-2.9-2.3-5.6c0.3-1.4,1-2.7,2-3.6c-1.5-0.8-2.6-2.1-3.3-3.6L257.6,166.9z M218.6,164.9c0.3-1.4,1-2.6,2-3.6
		c-1.5-0.8-2.6-2.1-3.2-3.7l6.2,3.2l0,0c1.6,1.3,2.2,3.3,1.7,5.3c-0.6,2.8-2.4,4.8-4.2,4.4C219.2,170.1,218.1,167.7,218.6,164.9
		L218.6,164.9z M229.6,188c-3.6,0.2-7-1.2-9.5-3.8c5.1-4.6,9.5-9.9,13.2-15.7L229.6,188z M238.8,200.7c-0.4-0.1-0.7-0.6-0.6-1
		c0.1-0.4,0.5-0.7,1-0.6c7,1.5,14.2-0.4,19.5-5.1c0.3-0.3,0.8-0.3,1.2,0c0.3,0.3,0.3,0.8,0,1.2l0,0c-4.4,4.1-10.3,6.3-16.3,6.1
		C242,201.2,240.4,201.1,238.8,200.7L238.8,200.7z"/>
	<polygon class="st2" points="322.9,167.9 322.9,167.9 322.9,167.9 	"/>
	<path class="st2" d="M301.4,179.7c-2-4.8-4.3-9.8-6.6-14.6c-3,6.4-3.5,13.7-1.4,20.5C295.5,183,298.3,180.9,301.4,179.7z"/>
	<path class="st2" d="M254.6,167.4c-1.1,0.9-1.8,2.2-2,3.6c-0.5,2.8,0.5,5.3,2.3,5.6c1.8,0.3,3.7-1.6,4.2-4.3c0.6-1.9,0-4.1-1.7-5.3
		C256.7,167.6,255.6,167.8,254.6,167.4z"/>
	<path class="st2" d="M225.4,166.3c0.6-1.9-0.1-4-1.7-5.3c-0.8,0.6-1.9,0.8-2.9,0.4c-1,0.9-1.7,2.2-2,3.6c-0.5,2.8,0.5,5.3,2.3,5.7
		C223,171,224.6,169,225.4,166.3z"/>
	<path class="st2" d="M223.5,161L223.5,161l-6.2-3.2c0.6,1.5,1.8,2.8,3.2,3.7C221.5,161.8,222.6,161.6,223.5,161z"/>
	<path class="st6" d="M220.2,184.5c2.5,2.6,5.9,4,9.5,3.8l3.8-19.4C229.7,174.6,225.3,179.9,220.2,184.5z"/>
	<path class="st2" d="M259.8,194c-0.3-0.3-0.9-0.3-1.2,0c-5.3,4.7-12.5,6.6-19.4,5.1c-0.4-0.1-0.9,0.2-1,0.6c-0.1,0.4,0.2,0.9,0.6,1
		c1.6,0.3,3.2,0.4,4.8,0.5c6,0.2,11.8-2,16.3-6.1C260.1,194.8,260.1,194.3,259.8,194z"/>
	<path class="st3" d="M301.4,179.7c-3.2,1.2-5.9,3.3-8,5.9c-1.9,2.2-3.5,4.8-4.8,7.5c-3.6,8-1.4,16.9,6.6,16.2
		c0.9,0,1.8-0.4,2.7-0.6c3.7-1,7.1-2.9,9.9-5.7C306.8,195,304.6,187.2,301.4,179.7z"/>
	<path class="st2" d="M280.3,119.4c0.3-6.8,4.2-8.5,9.5-7.5c-28.8-16.8-71.1,1.6-74.2,23.8c2.9,0,5.8,0,8.8,0
		c18.6-0.5,37.1-3.5,54.9-9C279.1,124.3,279.4,121.8,280.3,119.4z"/>
	<path class="st2" d="M280.3,119.4c-0.9,2.3-1.2,4.7-1,7.1c0.7,10.1,8.4,23.8,15.6,38.5c2.3,4.8,4.8,9.5,6.6,14.6
		c3.2,7.5,5.3,15.3,6.3,23.4c0.9,7.2-0.2,14.5-3,21.2c11.5-13,16.2-36.4,18.1-56.2l0,0c1.1-11.6,1.4-23.3,1-35
		c0,0-21.2-18.3-34-20.9C284.5,110.9,280.6,112.6,280.3,119.4z"/>
	<path class="st2" d="M258.7,146.8c4.2,0.8,7.8,3.6,9.5,7.5c0.2,0.4,0.5,0.7,1,0.9c0.4,0.2,0.8,0.2,1.2,0c0.8-0.4,1.1-1.4,0.8-2.2
		c-2.1-4.9-6.5-8.5-11.8-9.5c-0.9-0.1-1.7,0.5-1.9,1.4C257.3,145.6,257.8,146.5,258.7,146.8z"/>
	<path class="st2" d="M225.8,142.8c0.9,0.3,1.8-0.2,2.1-1c0.3-0.8-0.1-1.8-0.9-2.1c0,0,0,0,0,0c-1.5-0.5-3.1-0.7-4.8-0.7
		c-3.7,0-7.3,1.2-10.3,3.4c-0.7,0.6-0.9,1.6-0.3,2.3c0.3,0.3,0.6,0.5,1,0.6c0.4,0.1,0.9,0,1.3-0.3c1.9-1.4,4.1-2.4,6.4-2.7
		C222.2,142.1,224.1,142.2,225.8,142.8z"/>
	<path class="st2" d="M254.6,167.4c1,0.4,2,0.2,2.9-0.4l0,0l-6.2-3.2C251.9,165.4,253.1,166.6,254.6,167.4z"/>
	<path class="st2" d="M330.7,399.9c0-1.9,0.3-4,0.4-6c-2.7-4.2-5.4-8.5-8.2-12.7l-5.5-8.1l-1.7,0.9C320,382.9,325,391.6,330.7,399.9
		z"/>
	<path class="st5" d="M330.7,399.9c0-1.9,0.3-4,0.4-6c-2.7-4.2-5.4-8.5-8.2-12.7l-5.5-8.1l-1.7,0.9C320,382.9,325,391.6,330.7,399.9
		z"/>
	<path class="st3" d="M344.8,439.2v0.8c19-10.2,36.4-23,51.9-38c-2.6-7.7-5.6-15.2-9.1-22.5c-4.6-9.9-9.7-19.6-15.4-29
		c-4.8-8.2-9.8-16-15-23.8c-4.8,9.9-18.3,33.8-39.7,46.2l5.5,8.1c2.8,4.2,5.5,8.5,8.2,12.7l0,0c2.3,3.7,4.8,7.5,6.7,11.2
		c3.7,6.4,7.1,12.9,9.5,19l-0.5,3.2C346.4,431.1,345.6,435.1,344.8,439.2z"/>
	<path class="st2" d="M284.9,348.8c0,0,12.2,12.2,26.4,27.2c1.5-0.7,3-1.4,4.4-2.2l1.7-0.9c21.4-12.3,34.8-36.2,39.7-46.2
		c1.4-2.8,2.1-4.5,2.1-4.5s-13.8-22.8-32.7-34.3c-4.5-2.9-9.5-4.9-14.7-5.9C278.1,290.6,267.1,311.7,284.9,348.8z"/>
</g>
</svg>
