<?xml version="1.0" encoding="utf-8"?>
<!-- Generator: Adobe Illustrator 25.2.3, SVG Export Plug-In . SVG Version: 6.00 Build 0)  -->
<svg version="1.1" id="Camada_1" xmlns="http://www.w3.org/2000/svg" xmlns:xlink="http://www.w3.org/1999/xlink" x="0px" y="0px"
	 viewBox="0 0 500 500" style="enable-background:new 0 0 500 500;" xml:space="preserve">
<style type="text/css">
	.st0{opacity:0.1;fill:#3D1F75;enable-background:new    ;}
	.st1{fill:#3D1F75;}
	.st2{clip-path:url(#SVGID_2_);fill:#FFC3BD;stroke:#263238;stroke-linecap:round;stroke-linejoin:round;}
	.st3{clip-path:url(#SVGID_2_);fill:#263238;stroke:#263238;stroke-linecap:round;stroke-linejoin:round;}
	.st4{clip-path:url(#SVGID_2_);fill:#263238;}
	.st5{clip-path:url(#SVGID_2_);fill:none;stroke:#263238;stroke-linecap:round;stroke-linejoin:round;}
	.st6{clip-path:url(#SVGID_2_);fill:none;stroke:#FFC3BD;stroke-linecap:round;stroke-linejoin:round;}
</style>
<g>
	<g>
		<ellipse transform="matrix(0.7071 -0.7071 0.7071 0.7071 -103.5534 250)" class="st0" cx="250" cy="250" rx="257.2" ry="242.6"/>
		<path class="st1" d="M75.2,415.6C33.1,370.7,11.7,310.4,15.9,249h4.8C16.5,309,37.5,368.1,78.7,412L75.2,415.6z"/>
		<path class="st1" d="M484.1,251l-4.8-0.3c1.3-21-0.3-42-4.8-62.6l4.8-1C483.8,208.1,485.4,229.6,484.1,251z"/>
		<path class="st1" d="M460.8,146.7c-23.5-52.2-66.9-92.8-120.5-112.8l1.7-4.5c54.8,20.4,99.2,61.9,123.2,115.4L460.8,146.7z"/>
		<ellipse transform="matrix(0.7071 -0.7071 0.7071 0.7071 -103.5534 250)" class="st1" cx="250" cy="250" rx="224.2" ry="211.4"/>
	</g>
	<g id="freepik--Device--inject-2">
		<g>
			<defs>
				<path id="SVGID_1_" d="M101.8,98.3C161.1,40,238.2,32.5,238.2,32.5c13.9-1.3,105.6-8.7,172.5,60.2
					c35.4,36.4,47.7,77.5,52.3,97.7c5,23.6,5.3,43.5,4.6,57.5c-0.3,5.8-1.4,21.5-5.9,40.3c-2.3,9.5-4.8,17.2-6.1,20.9
					c-1.1,3.3-3.4,9.6-6.7,17.3c-7.3,16.7-15.1,28.9-18,33.4c-2.4,3.7-12.4,18.7-28.4,35.1c-11.7,11.9-38.4,38.6-82.1,56
					c-42.9,17.1-79.7,16.4-88.7,16.1c-24-0.9-89.9-7.5-142.3-61.5c-5.9-6.1-47.7-50.4-55.8-119.4c-1.1-9.3-4.4-43,6.8-83.8
					c2.2-8,7.2-24.2,17-43.4C59.6,154.2,75,124.6,101.8,98.3z"/>
			</defs>
			<clipPath id="SVGID_2_">
				<use xlink:href="#SVGID_1_"  style="overflow:visible;"/>
			</clipPath>
			<path class="st2" d="M189.9,325.8c0,0,13.3,33.8,9.6,57.9c-3.6,24.1-16.9,37.5-45.9,51.9s-74.8,35-79.7,49.5
				c-4.9,14.5,0,82.3,0,82.3h354.8c0,0-8.5-70.2-26.5-94.4c-18.1-24.2-90.5-43.4-110.9-56.7s-12-89.3-12-89.3
				S224.9,343.9,189.9,325.8z"/>
			<path class="st3" d="M148.2,438.5c-6.6,3.2-13.8,6.7-21,10.3c12.6,38.3,1,86.9-9.8,118.6h251.3c-4-8.4-6.7-17.4-8-26.6
				c-4.1-28.7-1.4-72.1,0.5-94.5c-8.5-3.8-17.4-7.5-26-10.9c-12.6,29.8-44.1,87.7-96.9,80.5C186,509,158.8,462.5,148.2,438.5z"/>
			<path class="st3" d="M129.6,345.2c0,0,7.2,18.1,34,21.7s13.5-35.3,92.6-38c55.7-1.9,0.3,44,12.4,46.4s42.1-1.2,59.1-41.1
				c17.1-39.8,20.5-141.2-14.5-173.8S175.5,129,159.9,158s-4.9,79.7-19.1,107.4C126.6,293.2,119.9,330.7,129.6,345.2z"/>
			<path class="st2" d="M163.5,252.1c0,0-9.6-25.4-13.3-7.2s0,36.2,8.5,43.5c8.5,7.3,13.3,6,13.3,6L163.5,252.1z"/>
			<path class="st2" d="M201.5,122.9c0,0-20.4,5.1-34,42.5s-3,135.7,5.5,146c8.5,10.2,36.8,52.6,63.9,54.3
				c17.3,1.1,60.8-38.8,67.6-59.1c6.8-20.4,9.2-112.2,4.1-134.3C303.5,150.1,261,99.1,201.5,122.9z"/>
			<path class="st4" d="M213.9,243.7c0,3.1-2.5,5.6-5.6,5.6c-3.1,0-5.6-2.5-5.6-5.6c0-3.1,2.5-5.6,5.6-5.6c0,0,0,0,0,0
				C211.5,238.2,213.9,240.6,213.9,243.7C213.9,243.7,213.9,243.7,213.9,243.7z"/>
			<path class="st4" d="M269.4,243.7c0,3.1-2.5,5.6-5.6,5.6c-3.1,0-5.6-2.5-5.6-5.6c0-3.1,2.5-5.6,5.6-5.6l0,0
				C266.9,238.1,269.4,240.6,269.4,243.7C269.4,243.7,269.4,243.7,269.4,243.7z"/>
			<path class="st5" d="M215.3,301.1c0,0,18.1,10.2,44,0"/>
			<path class="st5" d="M248.1,263.9c0,0,7.9,10.1,0,15.8c-7.1,4.8-16.2,5.3-23.7,1.1c-6.8-3.4,1.1-18.1,1.1-18.1"/>
			<path class="st4" d="M218.1,218.1c-7-7.6-17.8-10.2-27.5-6.7c-17.2,5.7-18,20-18,20s10.4-13.3,19.8-13.5S215,228.3,218.1,218.1z"
				/>
			<path class="st4" d="M249.2,219.4c6.5-7.9,17.2-11.1,27-8.1c17.5,4.8,19.1,19.1,19.1,19.1s-11.2-12.7-20.5-12.4
				C265.6,218.4,252.9,229.4,249.2,219.4z"/>
			<path class="st3" d="M218.9,153.2c0,0-30.2-8.3-42.3,10.9c-12.1,19.1-6,56.7-24.1,90.5s-7.2,85.7-4.8,93
				c2.4,7.3-15.7,16.9-25.3-19.3c-9.6-36.2,18.1-71.2,20.5-108.7c2.4-37.4-6.1-78.5,31.4-100.2s44.7-8.5,44.7-8.5V153.2z"/>
			<path class="st3" d="M367.3,210c-7.2-21.7-6-61.6-35-94.2c-18.2-20.4-52.9-32.3-81.4-33c-4.6-0.9-9.3-1.2-14-0.8
				c-45.9,3.8-74.8,27.8-66.4,45.9s48.3,25.4,48.3,25.4l6,2.4c-0.2-2-0.3-4.1-0.2-6.2c6.5-3,17.6-5,29.2,7.3
				c20.2,22.6,31.3,51.8,31.4,82.1c-1.2,45.9,21.7,62.8,21.7,82.1c0,19.3-33.8,43.5-41,49.5c-8,6.7,30.6,10,33,9.8
				c38.9-2.4,64.7-27.8,81-61.7C399,278.9,379.8,247.4,367.3,210z"/>
			<path class="st6" d="M323.5,354.3c-1.8,2.9-4.1,5.5-6.8,7.7"/>
			<path class="st6" d="M218.9,148.4c0,0-28.9-15.7-4.8-27.7s68.8,25.3,79.6,60.3c10.8,35,2.4,74.9,18.1,102.6
				c7.4,13.2,17.1,35.1,16.3,53.6"/>
			<path class="st6" d="M197.3,126.9c-0.9-3.3,0.9-8.1,9.4-14.7c21.7-16.9,61.6-8.5,82.1,13.3c20.5,21.7,27.8,48.3,30.2,79.7
				s7.2,50.8,24.2,69.9s26.5,39.8,9.6,64"/>
			<path class="st6" d="M195.9,148.4c0,0-33.8-14.5-14.5-32.6"/>
			<path class="st6" d="M153.6,342.6c2.6,3.8,5.9,7.2,9.7,9.8"/>
			<path class="st6" d="M146.5,269.1c0,0-8.5,36.1,1.6,62.7"/>
			<path class="st6" d="M321.7,137.3c9.5,15.9,15.6,33.7,17.7,52.1c4.8,43.5-8.5,58,12.1,80.9c9,9.5,14.1,22,14.5,35"/>
			<path class="st6" d="M307,117c0,0,1.8,1.8,4.4,5.2"/>
		</g>
	</g>
</g>
</svg>
