<?xml version="1.0" encoding="utf-8"?>
<!-- Generator: Adobe Illustrator 25.2.3, SVG Export Plug-In . SVG Version: 6.00 Build 0)  -->
<svg version="1.1" id="Camada_1" xmlns="http://www.w3.org/2000/svg" xmlns:xlink="http://www.w3.org/1999/xlink" x="0px" y="0px"
	 viewBox="0 0 500 500" style="enable-background:new 0 0 500 500;" xml:space="preserve">
<style type="text/css">
	.st0{opacity:0.1;fill:#3D1F75;enable-background:new    ;}
	.st1{fill:#3D1F75;}
	.st2{fill:#263238;}
	.st3{fill:#B78876;}
	.st4{fill:#AA6550;}
	.st5{fill:#455A64;}
	.st6{fill:#E0E0E0;}
</style>
<g>
	<g>
		<ellipse transform="matrix(0.7071 -0.7071 0.7071 0.7071 -103.5534 250)" class="st0" cx="250" cy="250" rx="257.2" ry="242.6"/>
		<path class="st1" d="M75.2,415.6C33.1,370.7,11.7,310.4,15.9,249h4.8C16.5,309,37.5,368.1,78.7,412L75.2,415.6z"/>
		<path class="st1" d="M484.1,251l-4.8-0.3c1.3-21-0.3-42-4.8-62.6l4.8-1C483.8,208.1,485.4,229.6,484.1,251z"/>
		<path class="st1" d="M460.8,146.7c-23.5-52.2-66.9-92.8-120.5-112.8l1.7-4.5c54.8,20.4,99.2,61.9,123.2,115.4L460.8,146.7z"/>
		<ellipse transform="matrix(0.7071 -0.7071 0.7071 0.7071 -103.5534 250)" class="st1" cx="250" cy="250" rx="224.2" ry="211.4"/>
	</g>
	<g>
		<path class="st2" d="M390.1,241.4c13-15.1,11.2-37.8-3.8-50.8c-6-5.1-13.4-8.2-21.3-8.6c7.1-19.9-3.4-41.8-23.2-48.8
			c-6-2.1-12.4-2.7-18.6-1.7c-1.6-22.7-21.2-39.9-44-38.5c-4.6,0.3-9.1,1.4-13.4,3.2c-13.9-17-38.9-19.4-55.9-5.5
			c-2.8,2.3-5.3,5-7.4,7.9l-9.9,0.6c-17.4,0.6-33.7,8.8-44.7,22.3c-0.5,0.8-1.2,1.5-1.9,2.1c-9.6,9-19.5,18.5-22.9,31.1
			c-3.8,14.1,1.3,30.2-5.9,43c-2.7,5-7.3,9.1-9.2,14.3c-3.6,10.3,3.4,21.4,2.5,32.2c-0.8,10.9-10.4,21.5-9.2,33
			c1.6,8.3,6.7,15.5,13.8,20c7.1,4.3,13.7,9.4,19.8,15.2c4.4,4.8,7.2,11.2,11.5,16.4c13.3,14.5,35.6,16.2,50.9,3.9
			c10.3,7.8,23.7,10.1,36,6.3c12.1-3.9,23.5-9.7,33.7-17.2c7.5,10.3,21.9,12.5,32.1,5c2.7-2,4.9-4.5,6.5-7.4
			c2.7,8.3,12.6,12.7,21.4,11.8c8.6-1.6,16.8-5,23.9-10.2c14.1-8.6,29.7-20.1,30.1-36.6c0.2-10.1-5.6-20.5-1.7-29.8
			C382.2,249.7,385.9,245.2,390.1,241.4z"/>
		<path class="st2" d="M295.6,178.8c-3.1-8.6-1.7-18.2-3-27.3c-2.6-20.1-18.2-37-37-44.3c-19.2-6.8-40.2-6.6-59.3,0.3
			c-14.5,4.3-27.5,12.7-37.6,23.9c-13,15.6-17.5,36.6-12.2,56.3L248.9,174c9,8.6,19.4,15.6,30.8,20.8c3.3,1.5,7,2.1,10.7,1.8
			c3.7-0.4,6.8-2.9,8-6.4C298.5,186.2,297.6,182.3,295.6,178.8z"/>
		<path class="st3" d="M282.7,155.8l-89-20.1c-28.4-2.3-46.3,33.1-47.4,61.6c-1.2,31.7-1.3,70.5,3,93.9
			c8.7,47.3,45.2,52.4,45.2,52.4s0,32.3,0.8,49.5c32.2,15.3,65.3,13.1,99.1-2l3.5-218.8C298.1,163.7,291.4,156.5,282.7,155.8z"/>
		<path class="st2" d="M164.8,226.9c0.1,3.3,2.7,5.9,6,6c3.2,0.2,6-2.4,6.1-5.6v-0.1c-0.1-3.3-2.7-5.9-6-6c-3.2-0.2-6,2.3-6.1,5.5
			C164.8,226.7,164.8,226.8,164.8,226.9z"/>
		<path class="st2" d="M155.2,217.3c0.8,0.8,5.3-2.8,11.9-2.9c6.5-0.2,11.4,3,12.1,2.2s-0.5-1.7-2.6-3.2c-5.9-3.9-13.5-3.6-19.1,0.6
			C155.6,215.6,154.8,217,155.2,217.3z"/>
		<path class="st2" d="M226.8,226.9c0.1,3.3,2.7,6,6,6c3.2,0.2,5.9-2.3,6.1-5.4c0-0.1,0-0.2,0-0.2c-0.1-3.3-2.7-6-6-6
			c-3.2-0.2-5.9,2.3-6.1,5.4C226.8,226.7,226.8,226.8,226.8,226.9z"/>
		<path class="st2" d="M219.7,217c0.8,0.8,5.3-2.8,11.9-2.9c6.5-0.2,11.4,3,12.1,2.1c0.7-0.9-0.4-1.7-2.6-3.2
			c-2.8-1.9-6.1-2.8-9.6-2.8c-3.5,0-6.8,1.2-9.6,3.3C219.7,215.1,219.2,216.5,219.7,217z"/>
		<path class="st2" d="M197.1,266c-3.5-1-7.1-1.6-10.7-1.7c-1.6,0-3.2-0.4-3.5-1.5c-0.2-1.7,0.2-3.3,0.9-4.8c1.5-4.1,3-8.4,4.8-12.9
			c4.3-10.9,7.7-22.1,10.2-33.5c-5.2,10.5-9.5,21.5-12.9,32.7l-4.4,12.9c-1,2-1.3,4.4-0.7,6.6c0.5,1.2,1.6,2,2.8,2.4
			c0.9,0.2,1.9,0.3,2.8,0.3C190,266.9,193.5,266.7,197.1,266z"/>
		<path class="st4" d="M194.6,343.6c22.3-0.2,44.1-6.7,63-18.6c0,0-15.1,33.5-62.6,30L194.6,343.6z"/>
		<path class="st4" d="M200.3,281.8c2.4-3.3,6.4-5.1,10.4-4.8c2.9,0.2,5.7,1.6,7.5,3.8c1.9,2.2,2.2,5.3,0.7,7.8
			c-2,2.4-5.4,3.5-8.5,2.4c-3.1-1-6-2.7-8.5-4.8c-0.7-0.6-1.4-1.2-1.9-1.9c-0.5-0.7-0.5-1.7,0-2.4"/>
		<path class="st2" d="M216.5,270c-1.1,0-0.9,7.1-6.9,12.3c-6,5.2-13.5,4.8-13.5,5.6c0,0.8,1.7,1.3,4.8,1.3
			c4.2-0.1,8.2-1.6,11.3-4.2c3.1-2.6,4.9-6.3,5.3-10.3C217.7,271.8,216.9,270,216.5,270z"/>
		<path class="st2" d="M218,197.1c0.7,1.7,7.2,0.8,14.9,1.5c7.7,0.7,14,2.7,14.9,1c0.4-0.8-0.7-2.4-3.2-4.1c-3.4-2-7.2-3.3-11.1-3.6
			c-3.9-0.4-7.9,0.2-11.6,1.7C219.1,194.8,217.6,196.3,218,197.1z"/>
		<path class="st2" d="M156.4,188.6c1.2,1.5,5.7,0,11.1-0.4c5.4-0.4,10,0.8,11-0.8c0.4-0.8-0.3-2.3-2.4-3.6c-2.7-1.7-5.9-2.4-9-2.3
			c-3.2,0.2-6.3,1.3-8.8,3.2C156.5,186.4,155.9,187.9,156.4,188.6z"/>
		<path class="st2" d="M312.2,165.2c-8.9-27.4-48.9-64.9-77.5-62.7l-45.5,27.8c3.2,15.9,14.8,28.7,30.2,33.5
			c8.1,2.4,17.8,3,22.7,9.9c4.8,6.9,2.2,17.5,6.8,24.8c6.4,10.1,23.9,9.6,28.7,20.5c2.1,4.8,1,10.5,3.2,15.3
			c3,6.3,19.1,14.3,25.7,12.1c6.6-2.2,6.5-13.4,8.7-19.4c2.7-6.8,3-14.2,0.8-21.1C312.8,192.6,316.4,178.2,312.2,165.2z"/>
		<path class="st5" d="M306.3,234.8c-0.2,0,0.7-2.4,1.4-6.9c0.9-6.3,0.4-12.7-1.5-18.8c-2.7-9-8.5-16.8-16.2-22
			c-4.9-2.8-9.8-5.3-15-7.5c-5.7-2.4-11-5.9-15.3-10.4c-3.7-5-6.7-10.4-8.9-16.2c-6.4-13.8-19.9-22.8-35.1-23.3
			c-6.4-0.2-12.6,1.1-18.4,3.8c-4.2,1.8-6.1,3.4-6.3,3.2c-0.2-0.2,0.4-0.6,1.4-1.3c1.4-1.1,2.9-2,4.5-2.8c5.8-3.1,12.2-4.7,18.8-4.8
			c9.9,0.1,19.5,3.7,26.8,10.2c4.4,3.9,7.9,8.5,10.4,13.8c2.1,5.6,5,10.8,8.6,15.6c4,4.2,8.9,7.6,14.3,9.8
			c5.3,2.2,10.3,4.8,15.1,7.7c13.9,9.5,20.8,26.5,17.5,43c-0.4,1.7-0.9,3.5-1.6,5.1C306.6,234.3,306.3,234.9,306.3,234.8z"/>
		<path class="st5" d="M301.9,184c-0.2,0-1-1.7-3.5-4.1c-3.7-3.3-7.9-5.9-12.5-7.7c-3.3-1.4-6.4-3-9.6-4.8c-3.5-1.9-6.5-4.6-8.9-7.7
			c-5.1-7.2-6.8-16.7-13.5-23.4c-6.4-6.2-14.5-10.1-23.3-11.2c-7.2-0.9-14.6-0.3-21.6,1.7c-6.5,2-12.9,4.5-19.1,7.4
			c1.4-1.3,3.1-2.3,4.8-3.1c4.4-2.5,9-4.6,13.9-6.1c7.2-2.3,14.8-3.1,22.4-2.3c9.3,1,18.1,5.2,24.8,11.8c7.4,7.2,8.9,17.2,13.6,23.9
			c4.7,5.5,10.7,9.8,17.4,12.5c4.7,2,8.9,5,12.5,8.6c0.9,1,1.7,2.2,2.4,3.5C301.8,183.6,302,183.9,301.9,184z"/>
		<path class="st3" d="M286.6,252.2c0-3.5,3.8-12,7.2-12.6c9.3-1.7,26.1-1.4,26.8,22.3c1,32.3-31.6,26.7-31.6,25.8
			C288.9,286.7,287,264.5,286.6,252.2z"/>
		<path class="st4" d="M298.6,275.1c0,0,0.5,0.4,1.5,0.8c1.3,0.6,2.8,0.6,4.2,0c4.2-2.8,6.5-7.7,6-12.7c0-2.8-0.6-5.5-1.9-8
			c-0.6-2-2.3-3.6-4.3-4.2c-1.3-0.3-2.7,0.4-3.3,1.7c-0.4,0.9,0,1.5-0.3,1.7c-0.3,0.1-0.7-0.6-0.5-1.9c0.2-0.8,0.5-1.6,1.2-2.1
			c0.9-0.7,2-1,3.1-0.9c2.7,0.4,5,2.2,6,4.8c1.5,2.8,2.3,5.8,2.3,9c0,6.5-3.1,12.7-7.7,14.3c-1.7,0.6-3.7,0.3-5.2-0.7
			C298.7,275.9,298.5,275.2,298.6,275.1z"/>
		<path class="st6" d="M312.7,283.1c0.5-0.7,1.6-1,3.1-0.3c2.1,1.2,3.6,3.1,4.2,5.4c1.1,3.9,0.1,8-2.6,11c-3.3,3.6-8.3,5.3-13.1,4.4
			c-4.8-1-8.8-4.3-10.5-9c-1.4-3.5-1.3-7.3,0.4-10.7c1.1-2.3,3.2-3.9,5.7-4.5c1.9,0,2.7,0.7,2.8,1.5c0,0.9-0.2,1.8-0.4,2.7
			c-0.2,1-0.2,2,0,3c0.3,1.1,0.9,2.1,1.6,3.1c0.6,0.8,1.5,1.3,2.4,1.6c0.9,0.2,1.9,0,2.8-0.3c0.9-0.3,1.6-1.1,1.9-2
			C312.4,286.9,311.8,284.5,312.7,283.1z"/>
		<path class="st2" d="M378.9,417.8c-7.3-6.7-17.2-14.7-30.1-21.8c-15.8-8.8-30.5-13.3-41.4-15.8c-17.4,3-38.4,5.3-62,5.4
			c-22.6,0.1-42.6-1.9-59.5-4.6c-11.9,4.4-25.5,10.6-39.7,19.7c-6.4,4.1-12.2,8.3-17.5,12.4h-0.6v0.5c-1.7,1.3-3.4,2.7-4.9,4
			l-0.2,0.2c-0.1,0-0.1,0.1-0.2,0.1c-3.5,3-7,5.9-10.4,8.9c7.1,5.4,13.8,9.7,19.8,13.2c5,2.9,12.9,7.2,23.1,11.6
			c4.3,1.8,11.9,4.9,21.7,7.8c5.6,1.7,17.2,4.8,32.3,6.8c11,1.4,33.2,3.5,61-0.7c7.6-1.1,22.3-3.7,39.9-9.8
			C326.9,449.8,352.2,438.9,378.9,417.8z M376.8,418.1h-0.3h0.1C376.5,418.1,376.7,418.1,376.8,418.1z"/>
	</g>
</g>
</svg>
